STARTFONT 2.1
FONT -FontForge-STIX Two Math-Book-R-Normal--28-280-72-72-P-192-ISO10646-1
SIZE 28 72 72
FONTBOUNDINGBOX 113 120 -27 -46
COMMENT "Generated by fontforge, http://fontforge.sourceforge.net"
COMMENT "Copyright 2001-2021 The STIX Fonts Project Authors (https://github.com/stipub/stixfonts)"
STARTPROPERTIES 40
FOUNDRY "FontForge"
FAMILY_NAME "STIX Two Math"
WEIGHT_NAME "Book"
SLANT "R"
SETWIDTH_NAME "Normal"
ADD_STYLE_NAME ""
PIXEL_SIZE 28
POINT_SIZE 280
RESOLUTION_X 72
RESOLUTION_Y 72
SPACING "P"
AVERAGE_WIDTH 192
CHARSET_REGISTRY "ISO10646"
CHARSET_ENCODING "1"
FONTNAME_REGISTRY ""
CHARSET_COLLECTIONS "ASCII ISOLatin1Encoding ISO8859-2 ISO8859-5 ISO8859-7 ISO8859-9 ISO8859-4 ISO10646-1"
FONT_NAME "STIXTwoMath-Regular"
FACE_NAME "STIX Two Math Regular"
COPYRIGHT "Copyright 2001-2021 The STIX Fonts Project Authors (https://github.com/stipub/stixfonts)"
FONT_VERSION "2.12 b168a"
FONT_ASCENT 21
FONT_DESCENT 7
UNDERLINE_POSITION -3
UNDERLINE_THICKNESS 2
X_HEIGHT 13
CAP_HEIGHT 18
RAW_ASCENT 762
RAW_DESCENT 238
NORM_SPACE 7
RELATIVE_WEIGHT 40
RELATIVE_SETWIDTH 50
SUPERSCRIPT_X 0
SUPERSCRIPT_Y 14
SUPERSCRIPT_SIZE 14
SUBSCRIPT_X 0
SUBSCRIPT_Y 7
SUBSCRIPT_SIZE 14
FIGURE_WIDTH 14
AVG_LOWERCASE_WIDTH 138
AVG_UPPERCASE_WIDTH 190
ENDPROPERTIES
CHARS 6611
STARTCHAR space
ENCODING 32
SWIDTH 235 0
DWIDTH 7 0
BBX 1 1 0 0
BITMAP
00
ENDCHAR
STARTCHAR exclam
ENCODING 33
SWIDTH 283 0
DWIDTH 8 0
BBX 4 19 2 0
BITMAP
60
E0
E0
60
60
60
60
60
60
60
60
60
60
60
00
00
60
F0
60
ENDCHAR
STARTCHAR quotedbl
ENCODING 34
SWIDTH 334 0
DWIDTH 9 0
BBX 7 6 1 14
BITMAP
E6
E6
C6
C4
C4
C4
ENDCHAR
STARTCHAR numbersign
ENCODING 35
SWIDTH 702 0
DWIDTH 20 0
BBX 16 19 2 0
BITMAP
0608
0608
0418
0418
0C18
0C18
FFFF
0C10
0830
0830
0830
1830
FFFE
1820
1820
1060
1060
3060
3060
ENDCHAR
STARTCHAR dollar
ENCODING 36
SWIDTH 495 0
DWIDTH 14 0
BBX 12 22 1 -2
BITMAP
0400
0400
3FC0
64E0
C460
C420
E420
E400
7C00
3E00
1F80
07C0
05E0
04F0
8470
8470
8470
C460
E4E0
3F80
0400
0400
ENDCHAR
STARTCHAR percent
ENCODING 37
SWIDTH 692 0
DWIDTH 19 0
BBX 17 19 1 0
BITMAP
1E0200
310E00
61FC00
410800
C11800
C11000
C23000
666000
7C4000
00CF00
009880
01B080
013080
023080
066080
046080
0C2100
083300
101C00
ENDCHAR
STARTCHAR ampersand
ENCODING 38
SWIDTH 736 0
DWIDTH 21 0
BBX 19 19 1 0
BITMAP
03C000
0C6000
0C2000
1C3000
0C2000
0C6000
0EC000
0F8FC0
070700
1B0600
338600
618400
E1CC00
C0E800
C07000
E03800
F0FC20
7F9FC0
3E0780
ENDCHAR
STARTCHAR quotesingle
ENCODING 39
SWIDTH 187 0
DWIDTH 5 0
BBX 3 6 1 14
BITMAP
E0
E0
C0
C0
C0
C0
ENDCHAR
STARTCHAR parenleft
ENCODING 40
SWIDTH 357 0
DWIDTH 10 0
BBX 8 26 1 -5
BITMAP
01
03
04
0C
18
30
30
60
60
60
E0
E0
E0
E0
E0
E0
E0
60
60
60
30
30
18
0C
06
03
ENDCHAR
STARTCHAR parenright
ENCODING 41
SWIDTH 357 0
DWIDTH 10 0
BBX 8 26 1 -5
BITMAP
80
C0
20
10
18
0C
0C
06
06
06
06
07
07
07
07
07
06
06
06
06
0C
0C
18
30
60
C0
ENDCHAR
STARTCHAR asterisk
ENCODING 42
SWIDTH 410 0
DWIDTH 11 0
BBX 9 11 1 9
BITMAP
0C00
0C00
CD80
EB80
7B00
0C00
3B00
E980
C980
0C00
0C00
ENDCHAR
STARTCHAR plus
ENCODING 43
SWIDTH 720 0
DWIDTH 20 0
BBX 16 17 2 -1
BITMAP
0180
0180
0180
0180
0180
0180
0180
0180
FFFF
FFFF
0180
0180
0180
0180
0180
0180
0180
ENDCHAR
STARTCHAR comma
ENCODING 44
SWIDTH 245 0
DWIDTH 7 0
BBX 3 7 2 -4
BITMAP
E0
E0
E0
20
20
40
80
ENDCHAR
STARTCHAR hyphen
ENCODING 45
SWIDTH 315 0
DWIDTH 9 0
BBX 7 2 1 6
BITMAP
FE
FE
ENDCHAR
STARTCHAR period
ENCODING 46
SWIDTH 245 0
DWIDTH 7 0
BBX 3 3 2 0
BITMAP
E0
E0
E0
ENDCHAR
STARTCHAR slash
ENCODING 47
SWIDTH 386 0
DWIDTH 11 0
BBX 9 23 1 -3
BITMAP
0180
0100
0300
0300
0200
0200
0600
0400
0400
0C00
0C00
0800
1800
1800
1000
3000
3000
2000
6000
6000
4000
C000
C000
ENDCHAR
STARTCHAR zero
ENCODING 48
SWIDTH 495 0
DWIDTH 14 0
BBX 12 19 1 0
BITMAP
0F00
39C0
70C0
6060
E060
E070
E070
E070
C070
C070
C070
C070
E070
E070
E060
6060
70C0
39C0
0F00
ENDCHAR
STARTCHAR one
ENCODING 49
SWIDTH 495 0
DWIDTH 14 0
BBX 10 19 2 0
BITMAP
0400
3C00
FC00
0C00
0C00
0C00
0C00
0C00
0C00
0C00
0C00
0C00
0C00
0C00
0C00
0C00
0C00
1E00
FFC0
ENDCHAR
STARTCHAR two
ENCODING 50
SWIDTH 495 0
DWIDTH 14 0
BBX 12 19 1 0
BITMAP
1F00
3FC0
61C0
40E0
80E0
00E0
00E0
00E0
00C0
01C0
0180
0300
0600
0C00
1810
3010
2030
7FE0
FFE0
ENDCHAR
STARTCHAR three
ENCODING 51
SWIDTH 495 0
DWIDTH 14 0
BBX 10 19 2 0
BITMAP
1E00
7F00
4380
8180
0180
0180
0180
0300
0400
1F00
0780
01C0
00C0
00C0
00C0
00C0
0080
E300
FC00
ENDCHAR
STARTCHAR four
ENCODING 52
SWIDTH 495 0
DWIDTH 14 0
BBX 13 19 0 0
BITMAP
0060
00E0
01E0
03E0
02E0
04E0
0CE0
08E0
10E0
30E0
20E0
40E0
FFF8
FFF8
00E0
00E0
00E0
00E0
00E0
ENDCHAR
STARTCHAR five
ENCODING 53
SWIDTH 495 0
DWIDTH 14 0
BBX 10 18 2 0
BITMAP
3FC0
3FC0
2000
2000
4000
7E00
7F00
0780
01C0
00C0
00C0
00C0
00C0
00C0
00C0
C180
F700
FC00
ENDCHAR
STARTCHAR six
ENCODING 54
SWIDTH 495 0
DWIDTH 14 0
BBX 12 19 1 0
BITMAP
01E0
0700
0E00
1800
3000
7000
6000
6F80
F1C0
E0E0
E060
E070
E070
E070
6070
6060
3060
38C0
0F80
ENDCHAR
STARTCHAR seven
ENCODING 55
SWIDTH 495 0
DWIDTH 14 0
BBX 12 18 1 0
BITMAP
7FF0
7FF0
4020
8060
0060
00C0
00C0
0080
0180
0180
0300
0300
0700
0600
0600
0C00
0C00
1C00
ENDCHAR
STARTCHAR eight
ENCODING 56
SWIDTH 495 0
DWIDTH 14 0
BBX 12 19 1 0
BITMAP
1F00
30C0
60E0
6060
6060
6060
70C0
3980
1E00
0F80
13C0
21E0
60E0
E060
C070
E060
6060
70C0
1F80
ENDCHAR
STARTCHAR nine
ENCODING 57
SWIDTH 495 0
DWIDTH 14 0
BBX 12 19 1 0
BITMAP
1F00
31C0
60C0
E060
E060
E060
E070
E070
E070
6070
70E0
1F60
0060
00E0
00C0
0180
0380
0E00
7800
ENDCHAR
STARTCHAR colon
ENCODING 58
SWIDTH 245 0
DWIDTH 7 0
BBX 3 13 2 0
BITMAP
E0
E0
E0
00
00
00
00
00
00
00
E0
E0
E0
ENDCHAR
STARTCHAR semicolon
ENCODING 59
SWIDTH 245 0
DWIDTH 7 0
BBX 3 17 2 -4
BITMAP
E0
E0
E0
00
00
00
00
00
00
00
E0
E0
E0
20
20
40
80
ENDCHAR
STARTCHAR less
ENCODING 60
SWIDTH 720 0
DWIDTH 20 0
BBX 16 16 2 -1
BITMAP
0001
000F
003C
00F0
03C0
0F00
3C00
F000
7800
1E00
0780
01F0
003C
000F
0003
0001
ENDCHAR
STARTCHAR equal
ENCODING 61
SWIDTH 720 0
DWIDTH 20 0
BBX 16 8 2 4
BITMAP
FFFF
FFFF
0000
0000
0000
0000
FFFF
FFFF
ENDCHAR
STARTCHAR greater
ENCODING 62
SWIDTH 720 0
DWIDTH 20 0
BBX 16 16 2 -1
BITMAP
C000
F000
3C00
0F00
03C0
00F0
003C
000F
001E
0078
01E0
0780
1E00
7800
C000
8000
ENDCHAR
STARTCHAR question
ENCODING 63
SWIDTH 411 0
DWIDTH 12 0
BBX 10 19 1 0
BITMAP
3E00
6380
C180
C1C0
E1C0
C1C0
0180
0180
0300
0600
0600
0C00
0800
0800
0000
0000
1C00
1C00
1C00
ENDCHAR
STARTCHAR at
ENCODING 64
SWIDTH 905 0
DWIDTH 25 0
BBX 22 23 2 -5
BITMAP
00FE00
070380
0C00C0
180060
300030
60F318
618B18
C30718
C3070C
C6070C
C6070C
C6070C
C60608
C60608
C60618
C70610
E38B30
61F3C0
700000
380000
1C0000
0700C0
01FF00
ENDCHAR
STARTCHAR A
ENCODING 65
SWIDTH 718 0
DWIDTH 20 0
BBX 20 19 0 0
BITMAP
006000
006000
00F000
00F000
01B000
01B800
013800
031C00
021C00
061E00
060E00
040E00
0FFF00
080700
180780
180380
3003C0
3003E0
FC0FF0
ENDCHAR
STARTCHAR B
ENCODING 66
SWIDTH 618 0
DWIDTH 17 0
BBX 15 19 1 0
BITMAP
FFE0
3878
181C
181C
180C
180C
181C
1818
1820
1FF0
183C
181E
180E
180E
180E
180E
180E
383C
FFF0
ENDCHAR
STARTCHAR C
ENCODING 67
SWIDTH 670 0
DWIDTH 19 0
BBX 17 19 1 0
BITMAP
03F900
0E0F00
1C0700
380300
700300
700100
700100
600000
E00000
E00000
E00000
700000
700000
700000
780000
380180
1E0700
0FFC00
03F000
ENDCHAR
STARTCHAR D
ENCODING 68
SWIDTH 730 0
DWIDTH 20 0
BBX 18 19 1 0
BITMAP
FFF000
387C00
180F00
180700
180380
180380
1801C0
1801C0
1801C0
1801C0
1801C0
1801C0
1801C0
180180
180380
180300
180700
383C00
FFF000
ENDCHAR
STARTCHAR E
ENCODING 69
SWIDTH 626 0
DWIDTH 18 0
BBX 16 19 1 0
BITMAP
FFFE
380E
1806
1802
1800
1808
1808
1818
1818
1FF8
1818
1808
1800
1801
1803
1802
1806
380E
FFFE
ENDCHAR
STARTCHAR F
ENCODING 70
SWIDTH 588 0
DWIDTH 16 0
BBX 15 19 1 0
BITMAP
FFFE
380E
1802
1802
1800
1808
1818
1818
1818
1FF8
1818
1808
1800
1800
1800
1800
1800
3C00
FF00
ENDCHAR
STARTCHAR G
ENCODING 71
SWIDTH 720 0
DWIDTH 20 0
BBX 18 19 1 0
BITMAP
03F900
0E0F00
1C0700
380300
700300
700100
700100
600000
E00000
E00000
E01FC0
600780
700300
700300
700300
380300
1C0300
0F0F00
03F800
ENDCHAR
STARTCHAR H
ENCODING 72
SWIDTH 777 0
DWIDTH 22 0
BBX 20 19 1 0
BITMAP
FF0FF0
3C03C0
1C01C0
1C0180
1C0180
1C0180
1C0180
1C0180
1C0180
1FFF80
1C0180
1C0180
1C0180
1C0180
1C0180
1C0180
1C0180
1C03C0
FF0FF0
ENDCHAR
STARTCHAR I
ENCODING 73
SWIDTH 357 0
DWIDTH 10 0
BBX 8 19 1 0
BITMAP
FF
3C
18
18
18
18
18
18
18
18
18
18
18
18
18
18
18
3C
FF
ENDCHAR
STARTCHAR J
ENCODING 74
SWIDTH 396 0
DWIDTH 11 0
BBX 11 19 0 0
BITMAP
1FE0
0780
0700
0700
0700
0700
0700
0700
0700
0700
0700
0700
0700
0700
0700
4700
E700
E600
7C00
ENDCHAR
STARTCHAR K
ENCODING 75
SWIDTH 702 0
DWIDTH 20 0
BBX 18 19 1 0
BITMAP
FF3F80
3C0F00
180C00
181800
183000
186000
18C000
198000
1B0000
1F0000
1B8000
19C000
18E000
187000
183800
181C00
180E00
3C0F80
FF3FC0
ENDCHAR
STARTCHAR L
ENCODING 76
SWIDTH 585 0
DWIDTH 16 0
BBX 15 19 1 0
BITMAP
FF00
3C00
1800
1800
1800
1800
1800
1800
1800
1800
1800
1800
1800
1800
1802
1806
1804
3C1C
FFFC
ENDCHAR
STARTCHAR M
ENCODING 77
SWIDTH 895 0
DWIDTH 25 0
BBX 23 19 1 0
BITMAP
FC007E
3C0078
3E00F0
3E00F0
3E00B0
3701B0
370130
338330
338330
318230
31C630
31C430
30EC30
30EC30
307830
307830
307030
303078
FC21FE
ENDCHAR
STARTCHAR N
ENCODING 78
SWIDTH 742 0
DWIDTH 21 0
BBX 19 19 1 0
BITMAP
F80FE0
7C0380
3C0180
3E0180
3F0180
378100
338100
31C100
31E100
30F100
307100
303900
301D00
301F00
300F00
300700
300300
380300
FC0100
ENDCHAR
STARTCHAR O
ENCODING 79
SWIDTH 738 0
DWIDTH 21 0
BBX 18 19 1 0
BITMAP
03F800
0E1E00
1C0700
380380
700380
7001C0
7001C0
6001C0
E001C0
E001C0
E001C0
6001C0
7001C0
7001C0
700380
380380
1C0700
0E0E00
03F800
ENDCHAR
STARTCHAR P
ENCODING 80
SWIDTH 569 0
DWIDTH 16 0
BBX 14 19 1 0
BITMAP
FFE0
3878
181C
181C
181C
181C
181C
181C
1818
1830
1FE0
1800
1800
1800
1800
1800
1800
3C00
FF00
ENDCHAR
STARTCHAR Q
ENCODING 81
SWIDTH 737 0
DWIDTH 21 0
BBX 19 24 1 -5
BITMAP
03F800
0E1E00
1C0700
380380
300380
7001C0
7001C0
6001C0
E001C0
E001C0
E001C0
6001C0
7001C0
7001C0
700380
380380
1C0700
0E0E00
03F800
007000
007800
003C00
001F00
0007E0
ENDCHAR
STARTCHAR R
ENCODING 82
SWIDTH 659 0
DWIDTH 18 0
BBX 18 19 1 0
BITMAP
FFE000
387800
181C00
181C00
181C00
181C00
181C00
181800
187000
1FC000
19C000
18E000
187000
187800
183800
181C00
181E00
3C0F00
FF07C0
ENDCHAR
STARTCHAR S
ENCODING 83
SWIDTH 504 0
DWIDTH 14 0
BBX 12 19 1 0
BITMAP
1F20
30E0
6060
E020
E020
E020
7000
7C00
3F00
0F80
07E0
01F0
00F0
8070
8030
C070
C070
F0E0
9F80
ENDCHAR
STARTCHAR T
ENCODING 84
SWIDTH 603 0
DWIDTH 17 0
BBX 16 19 0 0
BITMAP
7FFF
61C3
41C1
41C1
81C1
01C0
01C0
01C0
01C0
01C0
01C0
01C0
01C0
01C0
01C0
01C0
01C0
03C0
0FF8
ENDCHAR
STARTCHAR U
ENCODING 85
SWIDTH 752 0
DWIDTH 21 0
BBX 20 19 1 0
BITMAP
FF07F0
3C01C0
380180
380180
380180
380180
380180
380180
380180
380180
380180
380180
380180
380180
180180
1C0300
1E0700
0FFE00
03F800
ENDCHAR
STARTCHAR V
ENCODING 86
SWIDTH 680 0
DWIDTH 19 0
BBX 19 19 0 0
BITMAP
FE07E0
7C01C0
380180
1C0180
1C0300
1C0300
0E0200
0E0600
070400
070400
030C00
038800
039800
01D000
01D000
00F000
00E000
00E000
004000
ENDCHAR
STARTCHAR W
ENCODING 87
SWIDTH 944 0
DWIDTH 26 0
BBX 26 19 0 0
BITMAP
FE7F07C0
781E0380
380C0300
180E0300
1C0E0300
1C070200
0E070600
0E0F0600
0E0B8400
070B8C00
07198C00
0391C800
03B1D800
03A0D800
01E0F000
01E07000
00C06000
00C06000
00C02000
ENDCHAR
STARTCHAR X
ENCODING 88
SWIDTH 664 0
DWIDTH 19 0
BBX 18 19 0 0
BITMAP
FF0FC0
3E0700
1E0600
0E0400
070C00
071800
039000
01E000
01E000
00E000
01F000
017000
023800
061C00
0C1C00
080E00
180F00
380F80
FC1FC0
ENDCHAR
STARTCHAR Y
ENCODING 89
SWIDTH 647 0
DWIDTH 18 0
BBX 18 19 0 0
BITMAP
FE0FC0
7C0380
3C0200
1C0600
0E0400
0F0C00
070800
039000
03B000
01E000
00E000
00C000
00C000
00C000
00C000
00C000
00E000
01E000
07F800
ENDCHAR
STARTCHAR Z
ENCODING 90
SWIDTH 594 0
DWIDTH 17 0
BBX 15 19 1 0
BITMAP
7FFE
701C
4038
4038
4070
00F0
00E0
01C0
03C0
0380
0700
0F00
0E00
1C00
3C02
3806
7004
F00C
FFFC
ENDCHAR
STARTCHAR bracketleft
ENCODING 91
SWIDTH 349 0
DWIDTH 10 0
BBX 5 27 3 -6
BITMAP
F8
C0
C0
C0
C0
C0
C0
C0
C0
C0
C0
C0
C0
C0
C0
C0
C0
C0
C0
C0
C0
C0
C0
C0
C0
C0
F8
ENDCHAR
STARTCHAR backslash
ENCODING 92
SWIDTH 385 0
DWIDTH 11 0
BBX 9 23 1 -3
BITMAP
C000
C000
4000
6000
6000
2000
3000
3000
1000
1800
1800
0800
0800
0C00
0400
0400
0600
0200
0200
0300
0300
0100
0180
ENDCHAR
STARTCHAR bracketright
ENCODING 93
SWIDTH 349 0
DWIDTH 10 0
BBX 6 27 1 -6
BITMAP
FC
0C
0C
0C
0C
0C
0C
0C
0C
0C
0C
0C
0C
0C
0C
0C
0C
0C
0C
0C
0C
0C
0C
0C
0C
0C
FC
ENDCHAR
STARTCHAR asciicircum
ENCODING 94
SWIDTH 480 0
DWIDTH 13 0
BBX 12 11 1 9
BITMAP
0600
0E00
0E00
1B00
1900
1180
3080
20C0
6040
4060
C030
ENDCHAR
STARTCHAR underscore
ENCODING 95
SWIDTH 512 0
DWIDTH 14 0
BBX 14 1 0 -3
BITMAP
FFFC
ENDCHAR
STARTCHAR grave
ENCODING 96
SWIDTH 222 0
DWIDTH 6 0
BBX 4 5 1 15
BITMAP
C0
E0
60
30
10
ENDCHAR
STARTCHAR a
ENCODING 97
SWIDTH 480 0
DWIDTH 13 0
BBX 12 14 1 0
BITMAP
1F00
7380
61C0
61C0
41C0
01C0
07C0
39C0
61C0
E1C0
E1C0
E1D0
E2F0
7CE0
ENDCHAR
STARTCHAR b
ENCODING 98
SWIDTH 522 0
DWIDTH 15 0
BBX 14 20 0 0
BITMAP
3800
F800
3800
3800
3800
3800
39E0
3BF0
3C38
3838
3818
381C
381C
381C
3818
3818
3818
3830
3C60
0FC0
ENDCHAR
STARTCHAR c
ENCODING 99
SWIDTH 446 0
DWIDTH 12 0
BBX 11 14 1 0
BITMAP
0F80
31C0
60E0
40C0
C000
C000
C000
C000
C000
E000
E020
78C0
3F80
1F00
ENDCHAR
STARTCHAR d
ENCODING 100
SWIDTH 539 0
DWIDTH 15 0
BBX 13 20 1 0
BITMAP
0060
01E0
0060
0060
0060
0060
0FE0
38E0
6060
6060
E060
C060
C060
C060
C060
E060
E060
70E0
7F78
1E78
ENDCHAR
STARTCHAR e
ENCODING 101
SWIDTH 464 0
DWIDTH 13 0
BBX 11 14 1 0
BITMAP
1F00
3180
60C0
40E0
C0E0
FFE0
C000
C000
E000
E000
7020
7840
3FC0
1F00
ENDCHAR
STARTCHAR f
ENCODING 102
SWIDTH 307 0
DWIDTH 9 0
BBX 11 21 0 0
BITMAP
07C0
0DE0
08E0
1800
1800
1800
1800
7F80
1800
1800
1800
1800
1800
1800
1800
1800
1800
1800
1800
3C00
FF00
ENDCHAR
STARTCHAR g
ENCODING 103
SWIDTH 484 0
DWIDTH 14 0
BBX 12 20 1 -6
BITMAP
1FF0
31C0
60C0
60E0
E0E0
E0E0
60C0
71C0
1F00
6000
6000
E000
7FE0
7FF0
4030
C010
C010
C020
E0C0
7F00
ENDCHAR
STARTCHAR h
ENCODING 104
SWIDTH 577 0
DWIDTH 16 0
BBX 15 20 1 0
BITMAP
7000
F000
3000
3000
3000
3000
31E0
37F0
3C70
3030
3030
3038
3038
3038
3038
3038
3038
3038
7038
FCFE
ENDCHAR
STARTCHAR i
ENCODING 105
SWIDTH 285 0
DWIDTH 8 0
BBX 6 19 1 0
BITMAP
30
78
30
00
00
70
F0
30
30
30
30
30
30
30
30
30
30
38
FC
ENDCHAR
STARTCHAR j
ENCODING 106
SWIDTH 263 0
DWIDTH 7 0
BBX 9 25 -3 -6
BITMAP
0300
0780
0300
0000
0000
0700
0F00
0300
0300
0300
0300
0300
0300
0300
0300
0300
0300
0300
0300
0300
0300
0300
E200
F600
7C00
ENDCHAR
STARTCHAR k
ENCODING 107
SWIDTH 542 0
DWIDTH 15 0
BBX 14 20 1 0
BITMAP
7000
F000
3000
3000
3000
3000
31F8
30E0
30C0
3180
3300
3400
3E00
3700
3380
31C0
31C0
30E0
7070
FCFC
ENDCHAR
STARTCHAR l
ENCODING 108
SWIDTH 283 0
DWIDTH 8 0
BBX 6 20 1 0
BITMAP
30
F0
30
30
30
30
30
30
30
30
30
30
30
30
30
30
30
30
70
FC
ENDCHAR
STARTCHAR m
ENCODING 109
SWIDTH 852 0
DWIDTH 24 0
BBX 22 14 1 0
BITMAP
F3E3E0
347470
383830
303030
303030
303030
303030
303030
303030
303030
303030
303030
387878
FCFCFC
ENDCHAR
STARTCHAR n
ENCODING 110
SWIDTH 576 0
DWIDTH 16 0
BBX 15 14 1 0
BITMAP
71E0
F7F0
3C70
3030
3030
3030
3030
3030
3030
3030
3030
3030
3838
FCFE
ENDCHAR
STARTCHAR o
ENCODING 111
SWIDTH 514 0
DWIDTH 14 0
BBX 12 14 1 0
BITMAP
0F80
38C0
7060
6070
E030
E030
E030
E030
E030
E030
6070
7060
38C0
1F80
ENDCHAR
STARTCHAR p
ENCODING 112
SWIDTH 537 0
DWIDTH 15 0
BBX 13 20 1 -6
BITMAP
73C0
F7F0
3870
3038
3038
3038
3038
3038
3038
3038
3030
3030
3CE0
3780
3000
3000
3000
3000
7800
FE00
ENDCHAR
STARTCHAR q
ENCODING 113
SWIDTH 521 0
DWIDTH 15 0
BBX 13 20 1 -6
BITMAP
0FA0
38E0
6060
6060
E060
C060
C060
C060
C060
E060
E060
70E0
7F60
1E60
0060
0060
0060
0060
00F0
03F8
ENDCHAR
STARTCHAR r
ENCODING 114
SWIDTH 380 0
DWIDTH 11 0
BBX 9 14 1 0
BITMAP
3380
F780
3580
3800
3000
3000
3000
3000
3000
3000
3000
3000
3800
FE00
ENDCHAR
STARTCHAR s
ENCODING 115
SWIDTH 395 0
DWIDTH 11 0
BBX 9 14 1 0
BITMAP
3F00
6300
C100
C100
E080
7800
3C00
1F00
0780
8380
8180
C180
E380
BE00
ENDCHAR
STARTCHAR t
ENCODING 116
SWIDTH 315 0
DWIDTH 9 0
BBX 8 18 1 0
BITMAP
10
30
30
70
FE
30
30
30
30
30
30
30
30
30
30
30
33
1C
ENDCHAR
STARTCHAR u
ENCODING 117
SWIDTH 570 0
DWIDTH 16 0
BBX 14 14 1 0
BITMAP
F0F0
7070
3030
3030
3030
3030
3030
3030
3030
3030
3030
3070
38F0
1F3C
ENDCHAR
STARTCHAR v
ENCODING 118
SWIDTH 481 0
DWIDTH 13 0
BBX 14 14 0 0
BITMAP
FC7C
7018
3010
3830
3820
1860
1C40
0C40
0CC0
0E80
0680
0700
0700
0300
ENDCHAR
STARTCHAR w
ENCODING 119
SWIDTH 749 0
DWIDTH 21 0
BBX 21 14 0 0
BITMAP
FDF8F8
707030
307020
383020
383860
183840
1C5840
0C5CC0
0CCC80
0E8E80
068F00
070700
030700
030200
ENDCHAR
STARTCHAR x
ENCODING 120
SWIDTH 479 0
DWIDTH 13 0
BBX 14 14 0 0
BITMAP
FCF8
3870
1860
1C40
0E80
0700
0700
0780
0580
09C0
18E0
3060
6070
F8FC
ENDCHAR
STARTCHAR y
ENCODING 121
SWIDTH 483 0
DWIDTH 14 0
BBX 14 20 0 -6
BITMAP
FC7C
7018
3030
3830
3820
1C60
1C40
0C40
0EC0
0680
0780
0300
0300
0300
0200
0600
0400
EC00
F800
7000
ENDCHAR
STARTCHAR z
ENCODING 122
SWIDTH 458 0
DWIDTH 13 0
BBX 11 14 1 0
BITMAP
FFE0
C1C0
C1C0
8380
0300
0700
0E00
0C00
1C00
3820
3020
7060
E0E0
FFE0
ENDCHAR
STARTCHAR braceleft
ENCODING 123
SWIDTH 327 0
DWIDTH 9 0
BBX 7 27 1 -6
BITMAP
0E
18
30
30
30
30
30
30
30
30
30
30
60
C0
E0
30
30
30
30
30
30
30
30
30
30
38
0E
ENDCHAR
STARTCHAR bar
ENCODING 124
SWIDTH 267 0
DWIDTH 7 0
BBX 2 26 3 -6
BITMAP
C0
C0
C0
C0
C0
C0
C0
C0
C0
C0
C0
C0
C0
C0
C0
C0
C0
C0
C0
C0
C0
C0
C0
C0
C0
C0
ENDCHAR
STARTCHAR braceright
ENCODING 125
SWIDTH 327 0
DWIDTH 9 0
BBX 7 27 1 -6
BITMAP
E0
38
18
18
18
18
18
18
18
18
18
18
0C
06
0E
18
18
18
18
18
18
18
18
18
18
38
F0
ENDCHAR
STARTCHAR asciitilde
ENCODING 126
SWIDTH 557 0
DWIDTH 16 0
BBX 14 5 1 5
BITMAP
380C
7F18
E3F8
C0F0
4000
ENDCHAR
STARTCHAR uni00A0
ENCODING 160
SWIDTH 235 0
DWIDTH 7 0
BBX 1 1 0 0
BITMAP
00
ENDCHAR
STARTCHAR exclamdown
ENCODING 161
SWIDTH 282 0
DWIDTH 8 0
BBX 4 19 2 -5
BITMAP
60
F0
60
00
00
60
60
60
60
60
60
60
60
60
60
60
E0
60
60
ENDCHAR
STARTCHAR cent
ENCODING 162
SWIDTH 495 0
DWIDTH 14 0
BBX 12 19 1 0
BITMAP
0200
0200
0200
0FC0
32E0
22E0
6260
6200
E200
E200
E200
E200
6210
7620
7E60
3FC0
0F80
0600
0600
ENDCHAR
STARTCHAR sterling
ENCODING 163
SWIDTH 495 0
DWIDTH 14 0
BBX 13 19 0 0
BITMAP
01E0
0678
0438
0C18
0C00
0C00
0C00
0C00
0C00
7FC0
0E00
0E00
0E00
0600
0400
7C08
CE18
CBF0
71E0
ENDCHAR
STARTCHAR currency
ENCODING 164
SWIDTH 617 0
DWIDTH 17 0
BBX 15 16 1 0
BITMAP
4002
C006
77CC
3C78
1818
3018
2008
200C
200C
2008
3018
1018
3C38
77EC
E006
4002
ENDCHAR
STARTCHAR yen
ENCODING 165
SWIDTH 495 0
DWIDTH 14 0
BBX 14 18 0 0
BITMAP
FC7C
7838
3830
3820
1C60
1C40
0E40
0680
0780
3FF0
0300
0300
0300
3FF0
0300
0300
0780
1FE0
ENDCHAR
STARTCHAR brokenbar
ENCODING 166
SWIDTH 267 0
DWIDTH 7 0
BBX 2 20 3 0
BITMAP
C0
C0
C0
C0
C0
C0
C0
C0
00
00
00
00
C0
C0
C0
C0
C0
C0
C0
C0
ENDCHAR
STARTCHAR section
ENCODING 167
SWIDTH 491 0
DWIDTH 14 0
BBX 10 25 2 -6
BITMAP
1F00
3180
6180
6180
6180
7000
3800
1C00
3E00
4700
4380
C180
C0C0
E0C0
7080
3880
1F00
0E00
0700
0380
C180
C180
C180
6300
3E00
ENDCHAR
STARTCHAR dieresis
ENCODING 168
SWIDTH 392 0
DWIDTH 11 0
BBX 9 3 1 16
BITMAP
E380
E380
E380
ENDCHAR
STARTCHAR copyright
ENCODING 169
SWIDTH 781 0
DWIDTH 22 0
BBX 18 20 2 0
BITMAP
03F000
0C1C00
100200
200100
400080
C3E880
861840
8C0840
8C0840
8C0040
8C0040
8C0040
8C0040
860840
C3F080
400080
600100
300300
1C0C00
07F800
ENDCHAR
STARTCHAR ordfeminine
ENCODING 170
SWIDTH 410 0
DWIDTH 11 0
BBX 10 11 1 7
BITMAP
3E00
6300
E300
4300
0300
1F00
6300
C300
C300
E700
79C0
ENDCHAR
STARTCHAR guillemotleft
ENCODING 171
SWIDTH 517 0
DWIDTH 14 0
BBX 12 11 1 1
BITMAP
0430
0860
10C0
3180
E380
C300
6180
30C0
1860
0820
0410
ENDCHAR
STARTCHAR logicalnot
ENCODING 172
SWIDTH 720 0
DWIDTH 20 0
BBX 16 9 2 3
BITMAP
FFFF
FFFF
0003
0003
0003
0003
0003
0003
0003
ENDCHAR
STARTCHAR uni00AD
ENCODING 173
SWIDTH 315 0
DWIDTH 9 0
BBX 7 2 1 6
BITMAP
FE
FE
ENDCHAR
STARTCHAR registered
ENCODING 174
SWIDTH 413 0
DWIDTH 12 0
BBX 10 11 1 11
BITMAP
1E00
2100
4080
BC80
9240
9C40
9440
9280
7B80
2100
1E00
ENDCHAR
STARTCHAR macron
ENCODING 175
SWIDTH 350 0
DWIDTH 10 0
BBX 8 1 1 16
BITMAP
FF
ENDCHAR
STARTCHAR degree
ENCODING 176
SWIDTH 409 0
DWIDTH 11 0
BBX 9 9 1 12
BITMAP
1E00
6300
4180
4180
C180
4180
4180
6300
3E00
ENDCHAR
STARTCHAR plusminus
ENCODING 177
SWIDTH 720 0
DWIDTH 20 0
BBX 16 18 2 -1
BITMAP
0180
0180
0180
0180
0180
0180
FFFF
FFFF
0180
0180
0180
0180
0180
0180
0000
0000
FFFF
FFFF
ENDCHAR
STARTCHAR twosuperior
ENCODING 178
SWIDTH 373 0
DWIDTH 10 0
BBX 9 13 1 7
BITMAP
3C00
7F00
8700
0300
0300
0300
0600
0400
1800
3000
6080
FF80
FF00
ENDCHAR
STARTCHAR threesuperior
ENCODING 179
SWIDTH 374 0
DWIDTH 10 0
BBX 8 13 1 7
BITMAP
3C
7E
87
02
04
3C
07
03
03
03
03
C2
FC
ENDCHAR
STARTCHAR acute
ENCODING 180
SWIDTH 222 0
DWIDTH 6 0
BBX 4 5 1 15
BITMAP
30
70
60
C0
80
ENDCHAR
STARTCHAR uni00B5
ENCODING 181
SWIDTH 556 0
DWIDTH 16 0
BBX 15 20 1 -6
BITMAP
7070
7070
6060
6060
6060
6060
6060
6060
60E0
60E0
61E0
7366
5F3C
4E38
C000
C000
E000
E000
E000
C000
ENDCHAR
STARTCHAR paragraph
ENCODING 182
SWIDTH 605 0
DWIDTH 17 0
BBX 13 23 2 -4
BITMAP
1FF8
6660
C660
C660
C660
C660
C660
C660
C660
6660
3660
0E60
0660
0660
0660
0660
0660
0660
0660
0660
0660
0660
1E78
ENDCHAR
STARTCHAR periodcentered
ENCODING 183
SWIDTH 282 0
DWIDTH 8 0
BBX 4 3 2 6
BITMAP
60
F0
60
ENDCHAR
STARTCHAR cedilla
ENCODING 184
SWIDTH 247 0
DWIDTH 7 0
BBX 5 6 1 -6
BITMAP
40
40
70
18
18
F0
ENDCHAR
STARTCHAR onesuperior
ENCODING 185
SWIDTH 343 0
DWIDTH 10 0
BBX 7 13 1 7
BITMAP
38
F8
18
18
18
18
18
18
18
18
18
18
FE
ENDCHAR
STARTCHAR ordmasculine
ENCODING 186
SWIDTH 432 0
DWIDTH 12 0
BBX 10 11 1 7
BITMAP
1E00
6180
61C0
C0C0
C0C0
C0C0
C0C0
C0C0
E0C0
6180
1F00
ENDCHAR
STARTCHAR guillemotright
ENCODING 187
SWIDTH 517 0
DWIDTH 14 0
BBX 13 11 1 1
BITMAP
C300
6180
30C0
1860
0C30
0E38
1C70
1860
30C0
6180
C200
ENDCHAR
STARTCHAR onequarter
ENCODING 188
SWIDTH 861 0
DWIDTH 24 0
BBX 22 21 1 -1
BITMAP
0000C0
780180
F80100
180300
180200
180600
180400
180800
181810
181030
183070
3820F0
FE60B0
00C130
008330
018630
0107FC
030030
020030
040030
0C0000
ENDCHAR
STARTCHAR onehalf
ENCODING 189
SWIDTH 889 0
DWIDTH 25 0
BBX 23 20 1 0
BITMAP
0000C0
380180
F80100
180300
180200
180400
180C00
180800
1818F8
1811FC
18320E
38200E
FE400C
00C00C
008018
018030
010062
020082
0601FE
0C03FE
ENDCHAR
STARTCHAR threequarters
ENCODING 190
SWIDTH 861 0
DWIDTH 24 0
BBX 22 21 1 -1
BITMAP
0000C0
3C0180
460100
830300
060200
0C0600
3C0400
070800
031810
031030
033070
C220F0
FC60B0
00C130
008330
018630
0107FC
030030
020030
040030
0C0000
ENDCHAR
STARTCHAR questiondown
ENCODING 191
SWIDTH 411 0
DWIDTH 12 0
BBX 10 19 1 -5
BITMAP
0C00
1E00
0C00
0000
0000
0800
0800
0800
1800
3000
7000
6000
E000
E180
C1C0
C1C0
E0C0
6180
3F00
ENDCHAR
STARTCHAR Agrave
ENCODING 192
SWIDTH 718 0
DWIDTH 20 0
BBX 20 24 0 0
BITMAP
01C000
01E000
006000
001800
000000
006000
006000
00F000
00F000
01B000
01B800
013800
031C00
021C00
061E00
060E00
040E00
0FFF00
080700
180780
180380
3003C0
3003E0
FC0FF0
ENDCHAR
STARTCHAR Aacute
ENCODING 193
SWIDTH 718 0
DWIDTH 20 0
BBX 20 24 0 0
BITMAP
003800
007000
00E000
018000
000000
006000
006000
00F000
00F000
01B000
01B800
013800
031C00
021C00
061E00
060E00
040E00
0FFF00
080700
180780
180380
3003C0
3003E0
FC0FF0
ENDCHAR
STARTCHAR Acircumflex
ENCODING 194
SWIDTH 718 0
DWIDTH 20 0
BBX 20 24 0 0
BITMAP
006000
00F000
019800
030C00
000000
006000
006000
00F000
00F000
01B000
01B800
013800
031C00
021C00
061E00
060E00
040E00
0FFF00
080700
180780
180380
3003C0
3003E0
FC0FF0
ENDCHAR
STARTCHAR Atilde
ENCODING 195
SWIDTH 718 0
DWIDTH 20 0
BBX 20 24 0 0
BITMAP
01C200
03FC00
023800
040000
000000
006000
006000
00F000
00F000
01B000
01B800
013800
031C00
021C00
061E00
060E00
040E00
0FFF00
080700
180780
180380
3003C0
3003E0
FC0FF0
ENDCHAR
STARTCHAR Adieresis
ENCODING 196
SWIDTH 718 0
DWIDTH 20 0
BBX 20 23 0 0
BITMAP
030C00
071E00
030C00
000000
006000
006000
00F000
00F000
01B000
01B800
013800
031C00
021C00
061E00
060E00
040E00
0FFF00
080700
180780
180380
3003C0
3003E0
FC0FF0
ENDCHAR
STARTCHAR Aring
ENCODING 197
SWIDTH 718 0
DWIDTH 20 0
BBX 20 25 0 0
BITMAP
00F000
019800
010800
019800
00F000
000000
006000
006000
00F000
00F000
01B000
01B800
013800
031C00
021C00
061E00
060E00
040E00
0FFF00
080700
180780
180380
3003C0
3003E0
FC0FF0
ENDCHAR
STARTCHAR AE
ENCODING 198
SWIDTH 894 0
DWIDTH 25 0
BBX 25 19 -1 0
BITMAP
007FFF00
00160700
00360100
00260100
00660100
00460000
00C60400
00860400
01860C00
01FFFC00
03060C00
02060400
06060400
0C060000
08060080
18060080
180E0180
380E0780
FC3FFF00
ENDCHAR
STARTCHAR Ccedilla
ENCODING 199
SWIDTH 670 0
DWIDTH 19 0
BBX 17 25 1 -6
BITMAP
03F900
0E0F00
1C0700
380300
700300
700100
700100
600000
E00000
E00000
E00000
700000
700000
700000
780000
380180
1E0700
0FFC00
03F000
008000
008000
00E000
003000
003000
03E000
ENDCHAR
STARTCHAR Egrave
ENCODING 200
SWIDTH 626 0
DWIDTH 18 0
BBX 16 24 1 0
BITMAP
0700
0380
0180
0060
0000
FFFE
380E
1806
1802
1800
1808
1808
1818
1818
1FF8
1818
1808
1800
1801
1803
1802
1806
380E
FFFE
ENDCHAR
STARTCHAR Eacute
ENCODING 201
SWIDTH 626 0
DWIDTH 18 0
BBX 16 24 1 0
BITMAP
00E0
01C0
0180
0600
0000
FFFE
380E
1806
1802
1800
1808
1808
1818
1818
1FF8
1818
1808
1800
1801
1803
1802
1806
380E
FFFE
ENDCHAR
STARTCHAR Ecircumflex
ENCODING 202
SWIDTH 626 0
DWIDTH 18 0
BBX 16 24 1 0
BITMAP
0180
03C0
0660
0C30
0000
FFFE
380E
1806
1802
1800
1808
1808
1818
1818
1FF8
1818
1808
1800
1801
1803
1802
1806
380E
FFFE
ENDCHAR
STARTCHAR Edieresis
ENCODING 203
SWIDTH 626 0
DWIDTH 18 0
BBX 16 23 1 0
BITMAP
0C30
1C78
0C30
0000
FFFE
380E
1806
1802
1800
1808
1808
1818
1818
1FF8
1818
1808
1800
1801
1803
1802
1806
380E
FFFE
ENDCHAR
STARTCHAR Igrave
ENCODING 204
SWIDTH 357 0
DWIDTH 10 0
BBX 8 24 1 0
BITMAP
70
38
18
06
00
FF
3C
18
18
18
18
18
18
18
18
18
18
18
18
18
18
18
3C
FF
ENDCHAR
STARTCHAR Iacute
ENCODING 205
SWIDTH 357 0
DWIDTH 10 0
BBX 8 24 1 0
BITMAP
0E
1C
18
60
00
FF
3C
18
18
18
18
18
18
18
18
18
18
18
18
18
18
18
3C
FF
ENDCHAR
STARTCHAR Icircumflex
ENCODING 206
SWIDTH 357 0
DWIDTH 10 0
BBX 8 24 1 0
BITMAP
18
3C
66
C3
00
FF
3C
18
18
18
18
18
18
18
18
18
18
18
18
18
18
18
3C
FF
ENDCHAR
STARTCHAR Idieresis
ENCODING 207
SWIDTH 357 0
DWIDTH 10 0
BBX 10 23 0 0
BITMAP
6180
F1C0
6180
0000
7F80
1E00
0C00
0C00
0C00
0C00
0C00
0C00
0C00
0C00
0C00
0C00
0C00
0C00
0C00
0C00
0C00
1E00
7F80
ENDCHAR
STARTCHAR Eth
ENCODING 208
SWIDTH 737 0
DWIDTH 21 0
BBX 18 19 1 0
BITMAP
FFF000
383C00
180F00
180780
180380
1803C0
1801C0
1801C0
1801C0
FFC1C0
1801C0
1801C0
1801C0
1801C0
180380
180380
180700
381C00
FFF000
ENDCHAR
STARTCHAR Ntilde
ENCODING 209
SWIDTH 742 0
DWIDTH 21 0
BBX 19 24 1 0
BITMAP
01C400
03FC00
047800
000000
000000
F80FE0
7C0380
3C0180
3E0180
3F0180
378100
338100
31C100
31E100
30F100
307100
303900
301D00
301F00
300F00
300700
300300
380300
FC0100
ENDCHAR
STARTCHAR Ograve
ENCODING 210
SWIDTH 738 0
DWIDTH 21 0
BBX 18 24 1 0
BITMAP
038000
01C000
00E000
003000
000000
03F800
0E1E00
1C0700
380380
700380
7001C0
7001C0
6001C0
E001C0
E001C0
E001C0
6001C0
7001C0
7001C0
700380
380380
1C0700
0E0E00
03F800
ENDCHAR
STARTCHAR Oacute
ENCODING 211
SWIDTH 738 0
DWIDTH 21 0
BBX 18 24 1 0
BITMAP
003000
007000
00C000
018000
000000
03F800
0E1E00
1C0700
380380
700380
7001C0
7001C0
6001C0
E001C0
E001C0
E001C0
6001C0
7001C0
7001C0
700380
380380
1C0700
0E0E00
03F800
ENDCHAR
STARTCHAR Ocircumflex
ENCODING 212
SWIDTH 738 0
DWIDTH 21 0
BBX 18 24 1 0
BITMAP
00E000
01F000
033000
060800
000000
03F800
0E1E00
1C0700
380380
700380
7001C0
7001C0
6001C0
E001C0
E001C0
E001C0
6001C0
7001C0
7001C0
700380
380380
1C0700
0E0E00
03F800
ENDCHAR
STARTCHAR Otilde
ENCODING 213
SWIDTH 738 0
DWIDTH 21 0
BBX 18 24 1 0
BITMAP
03C400
07FC00
047800
000000
000000
03F800
0E1E00
1C0700
380380
700380
7001C0
7001C0
6001C0
E001C0
E001C0
E001C0
6001C0
7001C0
7001C0
700380
380380
1C0700
0E0E00
03F800
ENDCHAR
STARTCHAR Odieresis
ENCODING 214
SWIDTH 738 0
DWIDTH 21 0
BBX 18 23 1 0
BITMAP
061C00
071C00
061C00
000000
03F800
0E1E00
1C0700
380380
700380
7001C0
7001C0
6001C0
E001C0
E001C0
E001C0
6001C0
7001C0
7001C0
700380
380380
1C0700
0E0E00
03F800
ENDCHAR
STARTCHAR multiply
ENCODING 215
SWIDTH 720 0
DWIDTH 20 0
BBX 16 16 2 -1
BITMAP
4002
E007
700E
381C
1C38
0E70
07E0
03C0
03C0
07E0
0E70
1C38
381C
700E
E007
4002
ENDCHAR
STARTCHAR Oslash
ENCODING 216
SWIDTH 737 0
DWIDTH 21 0
BBX 18 19 1 0
BITMAP
03F980
0E1F00
1C0700
380780
700F80
7019C0
7011C0
6021C0
E041C0
E0C1C0
E181C0
6101C0
7201C0
7601C0
7C0380
380380
1C0700
2E0E00
63F000
ENDCHAR
STARTCHAR Ugrave
ENCODING 217
SWIDTH 752 0
DWIDTH 21 0
BBX 20 24 1 0
BITMAP
01C000
00E000
007000
001800
000000
FF07F0
3C01C0
380180
380180
380180
380180
380180
380180
380180
380180
380180
380180
380180
380180
180180
1C0300
1E0700
0FFE00
03F800
ENDCHAR
STARTCHAR Uacute
ENCODING 218
SWIDTH 752 0
DWIDTH 21 0
BBX 20 24 1 0
BITMAP
003800
003800
006000
01C000
000000
FF07F0
3C01C0
380180
380180
380180
380180
380180
380180
380180
380180
380180
380180
380180
380180
180180
1C0300
1E0700
0FFE00
03F800
ENDCHAR
STARTCHAR Ucircumflex
ENCODING 219
SWIDTH 752 0
DWIDTH 21 0
BBX 20 24 1 0
BITMAP
007000
00F000
019800
030400
000000
FF07F0
3C01C0
380180
380180
380180
380180
380180
380180
380180
380180
380180
380180
380180
380180
180180
1C0300
1E0700
0FFE00
03F800
ENDCHAR
STARTCHAR Udieresis
ENCODING 220
SWIDTH 752 0
DWIDTH 21 0
BBX 20 23 1 0
BITMAP
030C00
078E00
030C00
000000
FF07F0
3C01C0
380180
380180
380180
380180
380180
380180
380180
380180
380180
380180
380180
380180
180180
1C0300
1E0700
0FFE00
03F800
ENDCHAR
STARTCHAR Yacute
ENCODING 221
SWIDTH 647 0
DWIDTH 18 0
BBX 18 24 0 0
BITMAP
003800
007000
00C000
018000
000000
FE0FC0
7C0380
3C0200
1C0600
0E0400
0F0C00
070800
039000
03B000
01E000
00E000
00C000
00C000
00C000
00C000
00C000
00E000
01E000
07F800
ENDCHAR
STARTCHAR Thorn
ENCODING 222
SWIDTH 572 0
DWIDTH 16 0
BBX 14 19 1 0
BITMAP
FF00
3C00
1800
1800
1FE0
1878
181C
181C
181C
181C
181C
1818
1838
1FE0
1800
1800
1800
3C00
FF00
ENDCHAR
STARTCHAR germandbls
ENCODING 223
SWIDTH 563 0
DWIDTH 16 0
BBX 14 21 1 0
BITMAP
07C0
1860
1030
3030
3030
3030
3060
F0C0
3300
33C0
3070
3038
3018
301C
301C
301C
301C
321C
3318
33B0
F1E0
ENDCHAR
STARTCHAR agrave
ENCODING 224
SWIDTH 480 0
DWIDTH 13 0
BBX 12 20 1 0
BITMAP
3800
1800
0C00
0400
0600
0000
1F00
7380
61C0
61C0
41C0
01C0
07C0
39C0
61C0
E1C0
E1C0
E1D0
E2F0
7CE0
ENDCHAR
STARTCHAR aacute
ENCODING 225
SWIDTH 480 0
DWIDTH 13 0
BBX 12 20 1 0
BITMAP
0380
0700
0600
0400
0C00
0000
1F00
7380
61C0
61C0
41C0
01C0
07C0
39C0
61C0
E1C0
E1C0
E1D0
E2F0
7CE0
ENDCHAR
STARTCHAR acircumflex
ENCODING 226
SWIDTH 480 0
DWIDTH 13 0
BBX 12 20 1 0
BITMAP
0400
0E00
1B00
1100
2080
0000
1F00
7380
61C0
61C0
41C0
01C0
07C0
39C0
61C0
E1C0
E1C0
E1D0
E2F0
7CE0
ENDCHAR
STARTCHAR atilde
ENCODING 227
SWIDTH 480 0
DWIDTH 13 0
BBX 12 19 1 0
BITMAP
3840
3E40
4780
0000
0000
1F00
7380
61C0
61C0
41C0
01C0
07C0
39C0
61C0
E1C0
E1C0
E1D0
E2F0
7CE0
ENDCHAR
STARTCHAR adieresis
ENCODING 228
SWIDTH 480 0
DWIDTH 13 0
BBX 12 19 1 0
BITMAP
71C0
71C0
71C0
0000
0000
1F00
7380
61C0
61C0
41C0
01C0
07C0
39C0
61C0
E1C0
E1C0
E1D0
E2F0
7CE0
ENDCHAR
STARTCHAR aring
ENCODING 229
SWIDTH 480 0
DWIDTH 13 0
BBX 12 21 1 0
BITMAP
0E00
1300
1100
1100
1100
0E00
0000
1F00
7380
61C0
61C0
41C0
01C0
07C0
39C0
61C0
E1C0
E1C0
E1D0
E2F0
7CE0
ENDCHAR
STARTCHAR ae
ENCODING 230
SWIDTH 709 0
DWIDTH 20 0
BBX 18 14 1 0
BITMAP
1F3E00
63E300
61C180
61C180
01C1C0
01FFC0
0F8000
31C000
61C000
E1C000
E1C040
E1F180
E27F00
7C3E00
ENDCHAR
STARTCHAR ccedilla
ENCODING 231
SWIDTH 446 0
DWIDTH 12 0
BBX 11 20 1 -6
BITMAP
0F80
31C0
60C0
60E0
C000
C000
C000
C000
C000
E000
E020
78C0
3F80
1F00
0400
0700
0180
0180
1100
0F00
ENDCHAR
STARTCHAR egrave
ENCODING 232
SWIDTH 464 0
DWIDTH 13 0
BBX 11 20 1 0
BITMAP
1800
1C00
0C00
0600
0200
0000
1F00
3180
60C0
40E0
C0E0
FFE0
C000
C000
E000
E000
7020
7840
3FC0
1F00
ENDCHAR
STARTCHAR eacute
ENCODING 233
SWIDTH 464 0
DWIDTH 13 0
BBX 11 20 1 0
BITMAP
0380
0300
0700
0600
0C00
0000
1F00
3180
60C0
40E0
C0E0
FFE0
C000
C000
E000
E000
7020
7840
3FC0
1F00
ENDCHAR
STARTCHAR ecircumflex
ENCODING 234
SWIDTH 464 0
DWIDTH 13 0
BBX 11 20 1 0
BITMAP
0600
0E00
0B00
1180
20C0
0000
1F00
3180
60C0
40E0
C0E0
FFE0
C000
C000
E000
E000
7020
7840
3FC0
1F00
ENDCHAR
STARTCHAR edieresis
ENCODING 235
SWIDTH 464 0
DWIDTH 13 0
BBX 11 19 1 0
BITMAP
30C0
71C0
30C0
0000
0000
1F00
3180
60C0
40E0
C0E0
FFE0
C000
C000
E000
E000
7020
7840
3FC0
1F00
ENDCHAR
STARTCHAR igrave
ENCODING 236
SWIDTH 285 0
DWIDTH 8 0
BBX 7 20 0 0
BITMAP
E0
60
30
10
18
00
38
78
18
18
18
18
18
18
18
18
18
18
1C
7E
ENDCHAR
STARTCHAR iacute
ENCODING 237
SWIDTH 285 0
DWIDTH 8 0
BBX 6 20 1 0
BITMAP
1C
18
30
20
60
00
70
F0
30
30
30
30
30
30
30
30
30
30
38
FC
ENDCHAR
STARTCHAR icircumflex
ENCODING 238
SWIDTH 285 0
DWIDTH 8 0
BBX 7 20 0 0
BITMAP
38
38
6C
44
82
00
38
78
18
18
18
18
18
18
18
18
18
18
1C
7E
ENDCHAR
STARTCHAR idieresis
ENCODING 239
SWIDTH 285 0
DWIDTH 8 0
BBX 9 19 -1 0
BITMAP
6300
E380
6300
0000
0000
1C00
3C00
0C00
0C00
0C00
0C00
0C00
0C00
0C00
0C00
0C00
0C00
0E00
3F00
ENDCHAR
STARTCHAR eth
ENCODING 240
SWIDTH 532 0
DWIDTH 15 0
BBX 13 21 1 0
BITMAP
3E00
43B0
01C0
03C0
0C60
0060
0070
0F30
38F0
6070
6070
E038
E038
E030
E030
E030
E030
6070
7060
38C0
1F80
ENDCHAR
STARTCHAR ntilde
ENCODING 241
SWIDTH 576 0
DWIDTH 16 0
BBX 15 19 1 0
BITMAP
0E10
0F90
11E0
0000
0000
71E0
F7F0
3C70
3030
3030
3030
3030
3030
3030
3030
3030
3030
3838
FCFE
ENDCHAR
STARTCHAR ograve
ENCODING 242
SWIDTH 514 0
DWIDTH 14 0
BBX 12 20 1 0
BITMAP
1C00
0C00
0600
0600
0300
0000
0F80
38C0
7060
6070
E030
E030
E030
E030
E030
E030
6070
7060
38C0
1F80
ENDCHAR
STARTCHAR oacute
ENCODING 243
SWIDTH 514 0
DWIDTH 14 0
BBX 12 20 1 0
BITMAP
0180
0380
0300
0600
0400
0000
0F80
38C0
7060
6070
E030
E030
E030
E030
E030
E030
6070
7060
38C0
1F80
ENDCHAR
STARTCHAR ocircumflex
ENCODING 244
SWIDTH 514 0
DWIDTH 14 0
BBX 12 20 1 0
BITMAP
0600
0700
0D80
1880
3040
0000
0F80
38C0
7060
6070
E030
E030
E030
E030
E030
E030
6070
7060
38C0
1F80
ENDCHAR
STARTCHAR otilde
ENCODING 245
SWIDTH 514 0
DWIDTH 14 0
BBX 12 19 1 0
BITMAP
1C20
3F60
23C0
0000
0000
0F80
38C0
7060
6070
E030
E030
E030
E030
E030
E030
6070
7060
38C0
1F80
ENDCHAR
STARTCHAR odieresis
ENCODING 246
SWIDTH 514 0
DWIDTH 14 0
BBX 12 19 1 0
BITMAP
30E0
38E0
30E0
0000
0000
0F80
38C0
7060
6070
E030
E030
E030
E030
E030
E030
6070
7060
38C0
1F80
ENDCHAR
STARTCHAR divide
ENCODING 247
SWIDTH 720 0
DWIDTH 20 0
BBX 16 15 2 0
BITMAP
0180
03C0
0180
0000
0000
0000
FFFF
FFFF
0000
0000
0000
0000
0180
03C0
0180
ENDCHAR
STARTCHAR oslash
ENCODING 248
SWIDTH 514 0
DWIDTH 14 0
BBX 12 14 1 0
BITMAP
0FA0
38E0
7060
60F0
E130
E330
E630
E430
E830
F030
7070
7060
78C0
8F80
ENDCHAR
STARTCHAR ugrave
ENCODING 249
SWIDTH 570 0
DWIDTH 16 0
BBX 14 20 1 0
BITMAP
0C00
0E00
0600
0300
0100
0000
F0F0
7070
3030
3030
3030
3030
3030
3030
3030
3030
3030
3070
38F0
1F3C
ENDCHAR
STARTCHAR uacute
ENCODING 250
SWIDTH 570 0
DWIDTH 16 0
BBX 14 20 1 0
BITMAP
01C0
0180
0300
0300
0600
0000
F0F0
7070
3030
3030
3030
3030
3030
3030
3030
3030
3030
3070
38F0
1F3C
ENDCHAR
STARTCHAR ucircumflex
ENCODING 251
SWIDTH 570 0
DWIDTH 16 0
BBX 14 20 1 0
BITMAP
0300
0700
0D80
08C0
1060
0000
F0F0
7070
3030
3030
3030
3030
3030
3030
3030
3030
3030
3070
38F0
1F3C
ENDCHAR
STARTCHAR udieresis
ENCODING 252
SWIDTH 570 0
DWIDTH 16 0
BBX 14 19 1 0
BITMAP
3860
38E0
3860
0000
0000
F0F0
7070
3030
3030
3030
3030
3030
3030
3030
3030
3030
3070
38F0
1F3C
ENDCHAR
STARTCHAR yacute
ENCODING 253
SWIDTH 483 0
DWIDTH 14 0
BBX 14 26 0 -6
BITMAP
00C0
01C0
0180
0300
0200
0000
FC7C
7018
3030
3830
3820
1C60
1C40
0C40
0EC0
0680
0780
0300
0300
0300
0200
0600
0400
EC00
F800
7000
ENDCHAR
STARTCHAR thorn
ENCODING 254
SWIDTH 524 0
DWIDTH 15 0
BBX 14 26 0 -6
BITMAP
3800
F800
3800
3800
3800
3800
39E0
3BF0
3C38
3838
381C
381C
381C
381C
3818
3818
3818
3830
3C60
3FC0
3800
3800
3800
3800
3800
FE00
ENDCHAR
STARTCHAR ydieresis
ENCODING 255
SWIDTH 483 0
DWIDTH 14 0
BBX 14 25 0 -6
BITMAP
1870
1C70
1870
0000
0000
FC7C
7018
3030
3830
3820
1C60
1C40
0C40
0EC0
0680
0780
0300
0300
0300
0200
0600
0400
EC00
F800
7000
ENDCHAR
STARTCHAR Amacron
ENCODING 256
SWIDTH 718 0
DWIDTH 20 0
BBX 20 22 0 0
BITMAP
03FC00
000000
000000
006000
006000
00F000
00F000
01B000
01B800
013800
031C00
021C00
061E00
060E00
040E00
0FFF00
080700
180780
180380
3003C0
3003E0
FC0FF0
ENDCHAR
STARTCHAR amacron
ENCODING 257
SWIDTH 480 0
DWIDTH 13 0
BBX 12 17 1 0
BITMAP
7FC0
0000
0000
1F00
7380
61C0
61C0
41C0
01C0
07C0
39C0
61C0
E1C0
E1C0
E1D0
E2F0
7CE0
ENDCHAR
STARTCHAR Abreve
ENCODING 258
SWIDTH 718 0
DWIDTH 20 0
BBX 20 26 0 0
BITMAP
020400
020400
030C00
01F800
00F000
000000
000000
006000
006000
00F000
00F000
01B000
01B800
013800
031C00
021C00
061E00
060E00
040E00
0FFF00
080700
180780
180380
3003C0
3003E0
FC0FF0
ENDCHAR
STARTCHAR abreve
ENCODING 259
SWIDTH 480 0
DWIDTH 13 0
BBX 12 20 1 0
BITMAP
4040
4080
2080
3F80
1F00
0000
1F00
7380
61C0
61C0
41C0
01C0
07C0
39C0
61C0
E1C0
E1C0
E1D0
E2F0
7CE0
ENDCHAR
STARTCHAR Aogonek
ENCODING 260
SWIDTH 719 0
DWIDTH 20 0
BBX 20 25 0 -6
BITMAP
006000
006000
00F000
00F000
01B000
013800
011800
031C00
021C00
060E00
040E00
07FE00
0C0700
080700
180380
100380
3003C0
3003E0
FC0FF0
001800
003000
003000
003000
003100
001E00
ENDCHAR
STARTCHAR aogonek
ENCODING 261
SWIDTH 480 0
DWIDTH 13 0
BBX 13 20 1 -6
BITMAP
1F00
7380
6180
61C0
61C0
01C0
07C0
19C0
71C0
E1C0
E1C0
E1C0
E2D0
7CF0
00C0
0180
0100
0300
0198
01E0
ENDCHAR
STARTCHAR Cacute
ENCODING 262
SWIDTH 670 0
DWIDTH 19 0
BBX 17 24 1 0
BITMAP
003800
007000
00C000
018000
000000
03F900
0E0F00
1C0700
380300
700300
700100
700100
600000
E00000
E00000
E00000
700000
700000
700000
780000
380180
1E0700
0FFC00
03F000
ENDCHAR
STARTCHAR cacute
ENCODING 263
SWIDTH 446 0
DWIDTH 12 0
BBX 11 20 1 0
BITMAP
0380
0300
0700
0600
0C00
0000
0F80
31C0
60E0
40C0
C000
C000
C000
C000
C000
E000
E020
78C0
3F80
1F00
ENDCHAR
STARTCHAR Ccircumflex
ENCODING 264
SWIDTH 670 0
DWIDTH 19 0
BBX 17 24 1 0
BITMAP
00E000
01F000
019800
060C00
000000
03F900
0E0F00
1C0700
380300
700300
700100
700100
600000
E00000
E00000
E00000
700000
700000
700000
780000
380180
1E0700
0FFC00
03F000
ENDCHAR
STARTCHAR ccircumflex
ENCODING 265
SWIDTH 446 0
DWIDTH 12 0
BBX 11 20 1 0
BITMAP
0600
0E00
1B00
1180
20C0
0000
0F80
31C0
60E0
40C0
C000
C000
C000
C000
C000
E000
E020
78C0
3F80
1F00
ENDCHAR
STARTCHAR Cdotaccent
ENCODING 266
SWIDTH 670 0
DWIDTH 19 0
BBX 17 23 1 0
BITMAP
00E000
00E000
00E000
000000
03F900
0E0F00
1C0700
380300
700300
700100
700100
600000
E00000
E00000
E00000
700000
700000
700000
780000
380180
1E0700
0FFC00
03F000
ENDCHAR
STARTCHAR cdotaccent
ENCODING 267
SWIDTH 446 0
DWIDTH 12 0
BBX 11 19 1 0
BITMAP
0600
0E00
0600
0000
0000
0F80
31C0
60E0
40C0
C000
C000
C000
C000
C000
E000
E020
78C0
3F80
1F00
ENDCHAR
STARTCHAR Ccaron
ENCODING 268
SWIDTH 670 0
DWIDTH 19 0
BBX 17 24 1 0
BITMAP
060C00
019800
01F000
00E000
000000
03F900
0E0F00
1C0700
380300
700300
700100
700100
600000
E00000
E00000
E00000
700000
700000
700000
780000
380180
1E0700
0FFC00
03F000
ENDCHAR
STARTCHAR ccaron
ENCODING 269
SWIDTH 446 0
DWIDTH 12 0
BBX 11 20 1 0
BITMAP
2040
3080
1900
0F00
0E00
0000
0F80
31C0
60E0
40C0
C000
C000
C000
C000
C000
E000
E020
78C0
3F80
1F00
ENDCHAR
STARTCHAR Dcaron
ENCODING 270
SWIDTH 730 0
DWIDTH 20 0
BBX 18 24 1 0
BITMAP
0C1800
033000
03E000
01C000
000000
FFF000
387C00
180F00
180700
180380
180380
1801C0
1801C0
1801C0
1801C0
1801C0
1801C0
1801C0
180180
180380
180300
180700
383C00
FFF000
ENDCHAR
STARTCHAR dcaron
ENCODING 271
SWIDTH 626 0
DWIDTH 18 0
BBX 16 20 1 0
BITMAP
0063
01E3
0063
0066
0066
0064
0FE0
38E0
6060
6060
E060
C060
C060
C060
C060
E060
E060
70E0
7F78
1E78
ENDCHAR
STARTCHAR Dcroat
ENCODING 272
SWIDTH 733 0
DWIDTH 21 0
BBX 18 19 1 0
BITMAP
FFF000
387C00
180F00
180700
180380
180380
1801C0
1801C0
1801C0
FFC1C0
1801C0
1801C0
1801C0
180380
180380
180700
180700
383C00
FFF000
ENDCHAR
STARTCHAR dcroat
ENCODING 273
SWIDTH 540 0
DWIDTH 15 0
BBX 13 20 1 0
BITMAP
0060
01E0
0060
07F8
0060
0060
0FE0
38E0
6060
6060
E060
C060
C060
C060
C060
E060
E060
70E0
7F78
1E78
ENDCHAR
STARTCHAR Emacron
ENCODING 274
SWIDTH 626 0
DWIDTH 18 0
BBX 16 22 1 0
BITMAP
0FF0
0000
0000
FFFE
380E
1806
1802
1800
1808
1808
1818
1818
1FF8
1818
1808
1800
1801
1803
1802
1806
380E
FFFE
ENDCHAR
STARTCHAR emacron
ENCODING 275
SWIDTH 464 0
DWIDTH 13 0
BBX 11 17 1 0
BITMAP
3FC0
0000
0000
1F00
3180
60C0
40E0
C0E0
FFE0
C000
C000
E000
E000
7020
7840
3FC0
1F00
ENDCHAR
STARTCHAR Ebreve
ENCODING 276
SWIDTH 626 0
DWIDTH 18 0
BBX 16 26 1 0
BITMAP
0810
0810
0C30
07E0
03C0
0000
0000
FFFE
380E
1806
1802
1800
1808
1808
1818
1818
1FF8
1818
1808
1800
1801
1803
1802
1806
380E
FFFE
ENDCHAR
STARTCHAR ebreve
ENCODING 277
SWIDTH 464 0
DWIDTH 13 0
BBX 11 20 1 0
BITMAP
2040
2040
2080
3F80
0F00
0000
1F00
3180
60C0
40E0
C0E0
FFE0
C000
C000
E000
E000
7020
7840
3FC0
1F00
ENDCHAR
STARTCHAR Edotaccent
ENCODING 278
SWIDTH 626 0
DWIDTH 18 0
BBX 16 23 1 0
BITMAP
0180
03C0
0180
0000
FFFE
380E
1806
1802
1800
1808
1808
1818
1818
1FF8
1818
1808
1800
1801
1803
1802
1806
380E
FFFE
ENDCHAR
STARTCHAR edotaccent
ENCODING 279
SWIDTH 464 0
DWIDTH 13 0
BBX 11 19 1 0
BITMAP
0600
0E00
0600
0000
0000
1F00
3180
60C0
40E0
C0E0
FFE0
C000
C000
E000
E000
7020
7840
3FC0
1F00
ENDCHAR
STARTCHAR Eogonek
ENCODING 280
SWIDTH 625 0
DWIDTH 18 0
BBX 16 25 1 -6
BITMAP
FFFE
380E
1806
1802
1800
1808
1808
1818
1FF8
1818
1808
1808
1800
1800
1801
1802
1802
380E
FFFE
0008
0010
0030
0020
0033
003C
ENDCHAR
STARTCHAR eogonek
ENCODING 281
SWIDTH 464 0
DWIDTH 13 0
BBX 11 20 1 -6
BITMAP
1F00
3180
60C0
40E0
C0E0
FFE0
C000
C000
E000
E000
7020
7840
3FC0
1F80
0200
0400
0C00
0C00
0C40
0780
ENDCHAR
STARTCHAR Ecaron
ENCODING 282
SWIDTH 626 0
DWIDTH 18 0
BBX 16 24 1 0
BITMAP
0C30
0660
03C0
0180
0000
FFFE
380E
1806
1802
1800
1808
1808
1818
1818
1FF8
1818
1808
1800
1801
1803
1802
1806
380E
FFFE
ENDCHAR
STARTCHAR ecaron
ENCODING 283
SWIDTH 464 0
DWIDTH 13 0
BBX 11 20 1 0
BITMAP
2040
3080
1900
0F00
0600
0000
1F00
3180
60C0
40E0
C0E0
FFE0
C000
C000
E000
E000
7020
7840
3FC0
1F00
ENDCHAR
STARTCHAR Gcircumflex
ENCODING 284
SWIDTH 720 0
DWIDTH 20 0
BBX 18 24 1 0
BITMAP
00E000
01F000
011000
060C00
000000
03F900
0E0F00
1C0700
380300
700300
700100
700100
600000
E00000
E00000
E01FC0
600780
700300
700300
700300
380300
1C0300
0F0F00
03F800
ENDCHAR
STARTCHAR gcircumflex
ENCODING 285
SWIDTH 484 0
DWIDTH 14 0
BBX 12 26 1 -6
BITMAP
0600
0E00
0B00
1180
20C0
0000
1FF0
31C0
60C0
60E0
E0E0
E0E0
60C0
71C0
1F00
6000
6000
E000
7FE0
7FF0
4030
C010
C010
C020
E0C0
7F00
ENDCHAR
STARTCHAR Gbreve
ENCODING 286
SWIDTH 720 0
DWIDTH 20 0
BBX 18 26 1 0
BITMAP
040400
060C00
020800
03F800
01F000
000000
000000
03F900
0E0F00
1C0700
380300
700300
700100
700100
600000
E00000
E00000
E01FC0
600780
700300
700300
700300
380300
1C0300
0F0F00
03F800
ENDCHAR
STARTCHAR gbreve
ENCODING 287
SWIDTH 484 0
DWIDTH 14 0
BBX 12 26 1 -6
BITMAP
2040
2040
2080
3F80
0F00
0000
1FF0
31C0
60C0
60E0
E0E0
E0E0
60C0
71C0
1F00
6000
6000
E000
7FE0
7FF0
4030
C010
C010
C020
E0C0
7F00
ENDCHAR
STARTCHAR Gdotaccent
ENCODING 288
SWIDTH 720 0
DWIDTH 20 0
BBX 18 23 1 0
BITMAP
00E000
00E000
00E000
000000
03F900
0E0F00
1C0700
380300
700300
700100
700100
600000
E00000
E00000
E01FC0
600780
700300
700300
700300
380300
1C0300
0F0F00
03F800
ENDCHAR
STARTCHAR gdotaccent
ENCODING 289
SWIDTH 484 0
DWIDTH 14 0
BBX 12 25 1 -6
BITMAP
0600
0E00
0600
0000
0000
1FF0
31C0
60C0
60E0
E0E0
E0E0
60C0
71C0
1F00
6000
6000
E000
7FE0
7FF0
4030
C010
C010
C020
E0C0
7F00
ENDCHAR
STARTCHAR Gcommaaccent
ENCODING 290
SWIDTH 720 0
DWIDTH 20 0
BBX 18 27 1 -8
BITMAP
03F900
0E0F00
1C0700
380300
700300
700100
700100
600000
E00000
E00000
E01FC0
600780
700300
700300
700300
380300
1C0300
0F0F00
03F800
000000
000000
00C000
01E000
00E000
002000
004000
018000
ENDCHAR
STARTCHAR gcommaaccent
ENCODING 291
SWIDTH 484 0
DWIDTH 14 0
BBX 12 27 1 -6
BITMAP
0600
0C00
0800
0E00
0E00
0E00
0000
1FF0
31C0
60C0
60E0
E0E0
E0E0
60C0
71C0
1F00
6000
6000
E000
7FE0
7FF0
4030
C010
C010
C020
E0C0
7F00
ENDCHAR
STARTCHAR Hcircumflex
ENCODING 292
SWIDTH 777 0
DWIDTH 22 0
BBX 20 24 1 0
BITMAP
006000
00F000
019800
030C00
000000
FF0FF0
3C03C0
180380
180380
180380
180380
180380
180380
180380
1FFF80
180380
180380
180380
180380
180380
180380
180380
3C03C0
FF0FF0
ENDCHAR
STARTCHAR hcircumflex
ENCODING 293
SWIDTH 577 0
DWIDTH 16 0
BBX 15 25 1 0
BITMAP
0700
0F80
0CC0
3060
0000
7000
F000
3000
3000
3000
3000
31E0
37F0
3C70
3030
3030
3038
3038
3038
3038
3038
3038
3038
7038
FCFE
ENDCHAR
STARTCHAR Hbar
ENCODING 294
SWIDTH 788 0
DWIDTH 22 0
BBX 20 19 1 0
BITMAP
FF0FF0
3C03C0
1C0180
180180
180180
FFFFF0
180180
180180
180180
1FFF80
180180
180180
180180
180180
180180
180180
1C0180
3C03C0
FF0FF0
ENDCHAR
STARTCHAR hbar
ENCODING 295
SWIDTH 579 0
DWIDTH 16 0
BBX 15 20 1 0
BITMAP
7000
F000
3000
FF80
3000
3000
31E0
37F0
3C70
3030
3030
3038
3038
3038
3038
3038
3038
3038
7838
FCFE
ENDCHAR
STARTCHAR Itilde
ENCODING 296
SWIDTH 357 0
DWIDTH 10 0
BBX 9 24 1 0
BITMAP
7080
FF00
8E00
0000
0000
FF00
3C00
1800
1800
1800
1800
1800
1800
1800
1800
1800
1800
1800
1800
1800
1800
1800
3C00
FF00
ENDCHAR
STARTCHAR itilde
ENCODING 297
SWIDTH 285 0
DWIDTH 8 0
BBX 8 19 0 0
BITMAP
61
F2
9E
00
00
38
78
18
18
18
18
18
18
18
18
18
18
1C
7E
ENDCHAR
STARTCHAR Imacron
ENCODING 298
SWIDTH 357 0
DWIDTH 10 0
BBX 8 22 1 0
BITMAP
FF
00
00
FF
3C
18
18
18
18
18
18
18
18
18
18
18
18
18
18
18
3C
FF
ENDCHAR
STARTCHAR imacron
ENCODING 299
SWIDTH 285 0
DWIDTH 8 0
BBX 7 17 0 0
BITMAP
FE
00
00
38
78
18
18
18
18
18
18
18
18
18
18
1C
7E
ENDCHAR
STARTCHAR Ibreve
ENCODING 300
SWIDTH 357 0
DWIDTH 10 0
BBX 8 26 1 0
BITMAP
81
81
C3
7E
3C
00
00
FF
3C
18
18
18
18
18
18
18
18
18
18
18
18
18
18
18
3C
FF
ENDCHAR
STARTCHAR ibreve
ENCODING 301
SWIDTH 285 0
DWIDTH 8 0
BBX 7 20 0 0
BITMAP
82
82
C6
7C
00
00
38
78
18
18
18
18
18
18
18
18
18
18
1C
7E
ENDCHAR
STARTCHAR Iogonek
ENCODING 302
SWIDTH 357 0
DWIDTH 10 0
BBX 8 25 1 -6
BITMAP
FF
3C
18
18
18
18
18
18
18
18
18
18
18
18
18
18
18
3C
FF
18
30
20
60
32
3C
ENDCHAR
STARTCHAR iogonek
ENCODING 303
SWIDTH 285 0
DWIDTH 8 0
BBX 6 26 1 -6
BITMAP
30
78
30
00
00
00
70
F0
30
30
30
30
30
30
30
30
30
30
38
FC
30
60
C0
C0
C4
78
ENDCHAR
STARTCHAR Idotaccent
ENCODING 304
SWIDTH 357 0
DWIDTH 10 0
BBX 8 23 1 0
BITMAP
18
3C
18
00
FF
3C
18
18
18
18
18
18
18
18
18
18
18
18
18
18
18
3C
FF
ENDCHAR
STARTCHAR dotlessi
ENCODING 305
SWIDTH 285 0
DWIDTH 8 0
BBX 6 14 1 0
BITMAP
70
F0
30
30
30
30
30
30
30
30
30
30
38
FC
ENDCHAR
STARTCHAR IJ
ENCODING 306
SWIDTH 753 0
DWIDTH 21 0
BBX 20 19 1 0
BITMAP
FF0FF0
3C03C0
180380
180380
180380
180380
180380
180380
180380
180380
180380
180380
180380
180380
180380
182380
187380
3C7300
FF3E00
ENDCHAR
STARTCHAR ij
ENCODING 307
SWIDTH 548 0
DWIDTH 15 0
BBX 13 25 1 -6
BITMAP
3030
7878
3030
0000
0000
7070
F0F0
3030
3030
3030
3030
3030
3030
3030
3030
3030
3030
3830
FC30
0030
0030
0030
0E20
0F60
07C0
ENDCHAR
STARTCHAR Jcircumflex
ENCODING 308
SWIDTH 396 0
DWIDTH 11 0
BBX 11 24 0 0
BITMAP
0700
0F80
0CC0
1060
0000
1FE0
0780
0700
0700
0700
0700
0700
0700
0700
0700
0700
0700
0700
0700
0700
4700
E700
E600
7C00
ENDCHAR
STARTCHAR jcircumflex
ENCODING 309
SWIDTH 263 0
DWIDTH 7 0
BBX 11 26 -3 -6
BITMAP
0300
0700
0D80
08C0
1060
0000
0700
0F00
0300
0300
0300
0300
0300
0300
0300
0300
0300
0300
0300
0300
0300
0300
0300
E200
F600
7C00
ENDCHAR
STARTCHAR Kcommaaccent
ENCODING 310
SWIDTH 702 0
DWIDTH 20 0
BBX 18 27 1 -8
BITMAP
FF3F80
3C0F00
180C00
181800
183000
186000
18C000
198000
1B0000
1F0000
1B8000
19C000
18E000
187000
183800
181C00
180E00
3C0F80
FF3FC0
000000
000000
01C000
01E000
01E000
006000
004000
018000
ENDCHAR
STARTCHAR kcommaaccent
ENCODING 311
SWIDTH 542 0
DWIDTH 15 0
BBX 14 28 1 -8
BITMAP
7000
F000
3000
3000
3000
3000
31F8
30E0
30C0
3180
3300
3400
3E00
3700
3380
31C0
31C0
30E0
7070
FCFC
0000
0000
0700
0700
0780
0100
0100
0600
ENDCHAR
STARTCHAR kgreenlandic
ENCODING 312
SWIDTH 542 0
DWIDTH 15 0
BBX 14 14 1 0
BITMAP
71F8
F060
30C0
3180
3300
3600
3E00
3700
3380
31C0
31C0
30E0
3878
FCFC
ENDCHAR
STARTCHAR Lacute
ENCODING 313
SWIDTH 585 0
DWIDTH 16 0
BBX 15 24 1 0
BITMAP
0700
0700
0C00
3800
0000
FF00
3C00
1800
1800
1800
1800
1800
1800
1800
1800
1800
1800
1800
1800
1802
1806
1804
3C1C
FFFC
ENDCHAR
STARTCHAR lacute
ENCODING 314
SWIDTH 283 0
DWIDTH 8 0
BBX 6 25 1 0
BITMAP
0C
1C
30
60
00
30
F0
30
30
30
30
30
30
30
30
30
30
30
30
30
30
30
30
70
FC
ENDCHAR
STARTCHAR Lcommaaccent
ENCODING 315
SWIDTH 585 0
DWIDTH 16 0
BBX 15 27 1 -8
BITMAP
FF00
3C00
1800
1800
1800
1800
1800
1800
1800
1800
1800
1800
1800
1800
1802
1806
1804
3C1C
FFFC
0000
0000
0300
0780
0380
0080
0180
0700
ENDCHAR
STARTCHAR lcommaaccent
ENCODING 316
SWIDTH 283 0
DWIDTH 8 0
BBX 6 28 1 -8
BITMAP
30
F0
30
30
30
30
30
30
30
30
30
30
30
30
30
30
30
30
70
FC
00
00
30
78
78
18
10
60
ENDCHAR
STARTCHAR Lcaron
ENCODING 317
SWIDTH 585 0
DWIDTH 16 0
BBX 15 19 1 0
BITMAP
FF18
3C18
1818
1818
1810
1810
1800
1800
1800
1800
1800
1800
1800
1800
1802
1806
1804
3C1C
FFFC
ENDCHAR
STARTCHAR lcaron
ENCODING 318
SWIDTH 366 0
DWIDTH 10 0
BBX 9 20 1 0
BITMAP
3380
F380
3300
3300
3300
3200
3000
3000
3000
3000
3000
3000
3000
3000
3000
3000
3000
3000
7000
FC00
ENDCHAR
STARTCHAR Ldot
ENCODING 319
SWIDTH 605 0
DWIDTH 17 0
BBX 15 19 1 0
BITMAP
FF00
3C00
1800
1800
1800
1800
1800
181C
181C
181C
1800
1800
1800
1800
1802
1806
1804
3C1C
FFFC
ENDCHAR
STARTCHAR ldot
ENCODING 320
SWIDTH 357 0
DWIDTH 10 0
BBX 10 20 1 0
BITMAP
3000
F000
3000
3000
3000
3000
3000
3000
3180
33C0
3180
3000
3000
3000
3000
3000
3000
3000
7000
FC00
ENDCHAR
STARTCHAR Lslash
ENCODING 321
SWIDTH 590 0
DWIDTH 17 0
BBX 15 19 1 0
BITMAP
FF00
3C00
1C00
1800
1800
1800
18C0
1980
1E00
1800
3800
D800
9800
1800
1802
1806
1806
1C0C
FFFC
ENDCHAR
STARTCHAR lslash
ENCODING 322
SWIDTH 290 0
DWIDTH 8 0
BBX 8 20 0 0
BITMAP
18
78
18
18
18
18
18
1B
1C
18
38
D8
18
18
18
18
18
18
1C
7E
ENDCHAR
STARTCHAR Nacute
ENCODING 323
SWIDTH 742 0
DWIDTH 21 0
BBX 19 24 1 0
BITMAP
003800
007000
00E000
018000
000000
F80FE0
7C0380
3C0180
3E0180
3F0180
378100
338100
31C100
31E100
30F100
307100
303900
301D00
301F00
300F00
300700
300300
380300
FC0100
ENDCHAR
STARTCHAR nacute
ENCODING 324
SWIDTH 576 0
DWIDTH 16 0
BBX 15 20 1 0
BITMAP
00C0
01C0
0180
0100
0200
0000
71E0
F7F0
3C70
3030
3030
3030
3030
3030
3030
3030
3030
3030
3838
FCFE
ENDCHAR
STARTCHAR Ncommaaccent
ENCODING 325
SWIDTH 742 0
DWIDTH 21 0
BBX 19 27 1 -8
BITMAP
F80FE0
7C0380
3C0180
3E0180
3F0180
378100
338100
31C100
31E100
30F100
307100
303900
301D00
301F00
300F00
300700
300300
380300
FC0100
000000
000000
00C000
01E000
00E000
002000
004000
018000
ENDCHAR
STARTCHAR ncommaaccent
ENCODING 326
SWIDTH 576 0
DWIDTH 16 0
BBX 15 22 1 -8
BITMAP
71E0
F7F0
3C70
3030
3030
3030
3030
3030
3030
3030
3030
3030
3838
FCFE
0000
0000
0700
0780
0780
0180
0100
0600
ENDCHAR
STARTCHAR Ncaron
ENCODING 327
SWIDTH 742 0
DWIDTH 21 0
BBX 19 24 1 0
BITMAP
060C00
019800
01F000
00E000
000000
F80FE0
7C0380
3C0180
3E0180
3F0180
378100
338100
31C100
31E100
30F100
307100
303900
301D00
301F00
300F00
300700
300300
380300
FC0100
ENDCHAR
STARTCHAR ncaron
ENCODING 328
SWIDTH 576 0
DWIDTH 16 0
BBX 15 20 1 0
BITMAP
1820
0C60
06C0
0780
0380
0000
71E0
F7F0
3C70
3030
3030
3030
3030
3030
3030
3030
3030
3030
3838
FCFE
ENDCHAR
STARTCHAR napostrophe
ENCODING 329
SWIDTH 576 0
DWIDTH 16 0
BBX 20 20 -4 0
BITMAP
E00000
F00000
F00000
300000
200000
400000
838F00
07BF80
01E380
018180
018180
018180
018180
018180
018180
018180
018180
018180
01C1C0
07E7F0
ENDCHAR
STARTCHAR Eng
ENCODING 330
SWIDTH 742 0
DWIDTH 21 0
BBX 19 25 1 -6
BITMAP
F80FE0
7C0380
3C0180
3E0180
3F0100
378100
338100
31C100
31E100
30F100
307100
303900
303D00
301F00
300F00
300F00
300700
380300
FC0100
000100
000100
000100
006100
007600
007C00
ENDCHAR
STARTCHAR eng
ENCODING 331
SWIDTH 559 0
DWIDTH 16 0
BBX 12 20 1 -6
BITMAP
71E0
F7F0
3C70
3030
3030
3030
3030
3030
3030
3030
3030
3030
3830
FC30
0030
0030
0030
0630
0760
07C0
ENDCHAR
STARTCHAR Omacron
ENCODING 332
SWIDTH 738 0
DWIDTH 21 0
BBX 18 22 1 0
BITMAP
07F800
000000
000000
03F800
0E1E00
1C0700
380380
700380
7001C0
7001C0
6001C0
E001C0
E001C0
E001C0
6001C0
7001C0
7001C0
700380
380380
1C0700
0E0E00
03F800
ENDCHAR
STARTCHAR omacron
ENCODING 333
SWIDTH 514 0
DWIDTH 14 0
BBX 12 17 1 0
BITMAP
3FC0
0000
0000
0F80
38C0
7060
6070
E030
E030
E030
E030
E030
E030
6070
7060
38C0
1F80
ENDCHAR
STARTCHAR Obreve
ENCODING 334
SWIDTH 738 0
DWIDTH 21 0
BBX 18 26 1 0
BITMAP
040400
040800
060800
03F800
01E000
000000
000000
03F800
0E1E00
1C0700
380380
700380
7001C0
7001C0
6001C0
E001C0
E001C0
E001C0
6001C0
7001C0
7001C0
700380
380380
1C0700
0E0E00
03F800
ENDCHAR
STARTCHAR obreve
ENCODING 335
SWIDTH 514 0
DWIDTH 14 0
BBX 12 20 1 0
BITMAP
2040
2040
1040
1FC0
0F00
0000
0F80
38C0
7060
6070
E030
E030
E030
E030
E030
E030
6070
7060
38C0
1F80
ENDCHAR
STARTCHAR Ohungarumlaut
ENCODING 336
SWIDTH 738 0
DWIDTH 21 0
BBX 18 24 1 0
BITMAP
00EE00
00CC00
019800
033000
000000
03F800
0E1E00
1C0700
380380
700380
7001C0
7001C0
6001C0
E001C0
E001C0
E001C0
6001C0
7001C0
7001C0
700380
380380
1C0700
0E0E00
03F800
ENDCHAR
STARTCHAR ohungarumlaut
ENCODING 337
SWIDTH 514 0
DWIDTH 14 0
BBX 12 19 1 0
BITMAP
0770
0660
0CC0
0980
0000
0F80
38C0
7060
6070
E030
E030
E030
E030
E030
E030
6070
7060
38C0
1F80
ENDCHAR
STARTCHAR OE
ENCODING 338
SWIDTH 945 0
DWIDTH 26 0
BBX 25 19 1 0
BITMAP
03FFFF00
0E1E0700
1C0E0300
380E0100
700E0000
700E0400
700E0C00
600E0C00
E00FFC00
E00E0C00
E00E0C00
600E0400
700E0000
700E0080
700E0180
380E0100
1C0E0300
0E1E0700
03FFFF00
ENDCHAR
STARTCHAR oe
ENCODING 339
SWIDTH 807 0
DWIDTH 23 0
BBX 21 14 1 0
BITMAP
0F87C0
38CCE0
707870
607030
E07030
E03FF8
E03000
E03000
E07000
E07800
607808
707E30
38CFE0
1F07C0
ENDCHAR
STARTCHAR Racute
ENCODING 340
SWIDTH 659 0
DWIDTH 18 0
BBX 18 24 1 0
BITMAP
00E000
01C000
038000
060000
000000
FFE000
387800
181C00
181C00
181C00
181C00
181C00
181800
187000
1FC000
19C000
18E000
187000
187800
183800
181C00
181E00
3C0F00
FF07C0
ENDCHAR
STARTCHAR racute
ENCODING 341
SWIDTH 380 0
DWIDTH 11 0
BBX 9 20 1 0
BITMAP
0700
0600
0C00
0800
1800
0000
3380
F780
3580
3800
3000
3000
3000
3000
3000
3000
3000
3000
3800
FE00
ENDCHAR
STARTCHAR Rcommaaccent
ENCODING 342
SWIDTH 659 0
DWIDTH 18 0
BBX 18 27 1 -8
BITMAP
FFE000
387800
181C00
181C00
181C00
181C00
181C00
181800
187000
1FC000
19C000
18E000
187000
187800
183800
181C00
181E00
3C0F00
FF07C0
000000
000000
01C000
01C000
01C000
004000
00C000
018000
ENDCHAR
STARTCHAR rcommaaccent
ENCODING 343
SWIDTH 380 0
DWIDTH 11 0
BBX 9 22 1 -8
BITMAP
3380
F780
3580
3800
3000
3000
3000
3000
3000
3000
3000
3000
3800
FE00
0000
0000
3800
3800
3800
0800
1800
3000
ENDCHAR
STARTCHAR Rcaron
ENCODING 344
SWIDTH 659 0
DWIDTH 18 0
BBX 18 24 1 0
BITMAP
083000
066000
03C000
038000
000000
FFE000
387800
181C00
181C00
181C00
181C00
181C00
181800
187000
1FC000
19C000
18E000
187000
187800
183800
181C00
181E00
3C0F00
FF07C0
ENDCHAR
STARTCHAR rcaron
ENCODING 345
SWIDTH 380 0
DWIDTH 11 0
BBX 9 20 1 0
BITMAP
4100
6300
3600
1C00
1C00
0000
3380
F780
3580
3800
3000
3000
3000
3000
3000
3000
3000
3000
3800
FE00
ENDCHAR
STARTCHAR Sacute
ENCODING 346
SWIDTH 504 0
DWIDTH 14 0
BBX 12 24 1 0
BITMAP
0380
0700
0600
1800
0000
1F20
30E0
6060
E020
E020
E020
7000
7C00
3F00
0F80
07E0
01F0
00F0
8070
8030
C070
C070
F0E0
9F80
ENDCHAR
STARTCHAR sacute
ENCODING 347
SWIDTH 394 0
DWIDTH 11 0
BBX 9 20 1 0
BITMAP
0700
0600
0C00
0C00
1800
0000
3F00
6300
C100
C100
E080
7800
3C00
1F00
0780
8380
8180
C180
E380
BE00
ENDCHAR
STARTCHAR Scircumflex
ENCODING 348
SWIDTH 504 0
DWIDTH 14 0
BBX 12 24 1 0
BITMAP
0600
0F00
1980
30C0
0000
1F20
30E0
6060
E020
E020
E020
7000
7C00
3F00
0F80
07E0
01F0
00F0
8070
8030
C070
C070
F0E0
9F80
ENDCHAR
STARTCHAR scircumflex
ENCODING 349
SWIDTH 394 0
DWIDTH 11 0
BBX 9 20 1 0
BITMAP
0C00
1C00
3600
2300
4180
0000
3F00
6300
C100
C100
E080
7800
3C00
1F00
0780
8380
8180
C180
E380
BE00
ENDCHAR
STARTCHAR uni015E
ENCODING 350
SWIDTH 504 0
DWIDTH 14 0
BBX 12 25 1 -6
BITMAP
1F20
30E0
6060
E020
E020
E020
7000
7C00
3F00
0F80
07E0
01F0
00F0
8070
8030
C070
C070
F0E0
9F80
0400
0400
0700
0180
0180
1F00
ENDCHAR
STARTCHAR uni015F
ENCODING 351
SWIDTH 394 0
DWIDTH 11 0
BBX 9 20 1 -6
BITMAP
3F00
6300
C100
C100
E080
7800
3C00
1F00
0780
8380
8180
C180
E380
BE00
1000
1000
1E00
0600
0600
3C00
ENDCHAR
STARTCHAR Scaron
ENCODING 352
SWIDTH 504 0
DWIDTH 14 0
BBX 12 24 1 0
BITMAP
30C0
1980
0F00
0700
0000
1F20
30E0
6060
E020
E020
E020
7000
7C00
3F00
0F80
07E0
01F0
00F0
8070
8030
C070
C070
F0E0
9F80
ENDCHAR
STARTCHAR scaron
ENCODING 353
SWIDTH 394 0
DWIDTH 11 0
BBX 9 20 1 0
BITMAP
4180
6300
3600
1E00
1C00
0000
3F00
6300
C100
C100
E080
7800
3C00
1F00
0780
8380
8180
C180
E380
BE00
ENDCHAR
STARTCHAR uni0162
ENCODING 354
SWIDTH 603 0
DWIDTH 17 0
BBX 16 25 0 -6
BITMAP
7FFF
61C3
41C1
41C1
81C1
01C0
01C0
01C0
01C0
01C0
01C0
01C0
01C0
01C0
01C0
01C0
01C0
03C0
0FF8
0100
0100
01E0
0060
0060
03C0
ENDCHAR
STARTCHAR uni0163
ENCODING 355
SWIDTH 315 0
DWIDTH 9 0
BBX 8 24 1 -6
BITMAP
10
30
30
70
FE
30
30
30
30
30
30
30
30
30
30
30
33
1C
10
10
1C
06
06
3C
ENDCHAR
STARTCHAR Tcaron
ENCODING 356
SWIDTH 603 0
DWIDTH 17 0
BBX 16 24 0 0
BITMAP
0C18
0620
03E0
01C0
0000
7FFF
61C3
41C1
41C1
81C1
01C0
01C0
01C0
01C0
01C0
01C0
01C0
01C0
01C0
01C0
01C0
01C0
03C0
0FF8
ENDCHAR
STARTCHAR tcaron
ENCODING 357
SWIDTH 353 0
DWIDTH 10 0
BBX 9 20 1 0
BITMAP
0380
0300
1300
3300
3200
7200
FE00
3000
3000
3000
3000
3000
3000
3000
3000
3000
3000
3000
3300
1C00
ENDCHAR
STARTCHAR Tbar
ENCODING 358
SWIDTH 603 0
DWIDTH 17 0
BBX 16 19 0 0
BITMAP
7FFF
61C3
41C1
41C1
81C1
01C0
01C0
01C0
0FF8
01C0
01C0
01C0
01C0
01C0
01C0
01C0
01C0
03C0
0FF8
ENDCHAR
STARTCHAR tbar
ENCODING 359
SWIDTH 328 0
DWIDTH 9 0
BBX 8 18 1 0
BITMAP
10
10
30
70
FE
30
30
30
FE
30
30
30
30
30
30
30
33
1C
ENDCHAR
STARTCHAR Utilde
ENCODING 360
SWIDTH 752 0
DWIDTH 21 0
BBX 20 24 1 0
BITMAP
01E200
03FC00
023C00
000000
000000
FF07F0
3C01C0
380180
380180
380180
380180
380180
380180
380180
380180
380180
380180
380180
380180
180180
1C0300
1E0700
0FFE00
03F800
ENDCHAR
STARTCHAR utilde
ENCODING 361
SWIDTH 570 0
DWIDTH 16 0
BBX 14 19 1 0
BITMAP
0E20
1F20
23C0
0000
0000
F0F0
7070
3030
3030
3030
3030
3030
3030
3030
3030
3030
3070
38F0
1F3C
ENDCHAR
STARTCHAR Umacron
ENCODING 362
SWIDTH 752 0
DWIDTH 21 0
BBX 20 22 1 0
BITMAP
03FC00
000000
000000
FF07F0
3C01C0
380180
380180
380180
380180
380180
380180
380180
380180
380180
380180
380180
380180
180180
1C0300
1E0700
0FFE00
03F800
ENDCHAR
STARTCHAR umacron
ENCODING 363
SWIDTH 570 0
DWIDTH 16 0
BBX 14 17 1 0
BITMAP
1FE0
0000
0000
F0F0
7070
3030
3030
3030
3030
3030
3030
3030
3030
3030
3070
38F0
1F3C
ENDCHAR
STARTCHAR Ubreve
ENCODING 364
SWIDTH 752 0
DWIDTH 21 0
BBX 20 26 1 0
BITMAP
020400
020400
030C00
01F800
00F000
000000
000000
FF07F0
3C01C0
380180
380180
380180
380180
380180
380180
380180
380180
380180
380180
380180
380180
180180
1C0300
1E0700
0FFE00
03F800
ENDCHAR
STARTCHAR ubreve
ENCODING 365
SWIDTH 570 0
DWIDTH 16 0
BBX 14 20 1 0
BITMAP
2020
1020
1040
1FC0
0F80
0000
F0F0
7070
3030
3030
3030
3030
3030
3030
3030
3030
3030
3070
38F0
1F3C
ENDCHAR
STARTCHAR Uring
ENCODING 366
SWIDTH 752 0
DWIDTH 21 0
BBX 20 25 1 0
BITMAP
00F000
019800
018800
019800
00F000
000000
FF07F0
3C01C0
380180
380180
380180
380180
380180
380180
380180
380180
380180
380180
380180
380180
180180
1C0300
1E0700
0FFE00
03F800
ENDCHAR
STARTCHAR uring
ENCODING 367
SWIDTH 570 0
DWIDTH 16 0
BBX 14 21 1 0
BITMAP
0700
0C80
08C0
08C0
0880
0780
0000
F0F0
7070
3030
3030
3030
3030
3030
3030
3030
3030
3030
3070
38F0
1F3C
ENDCHAR
STARTCHAR Uhungarumlaut
ENCODING 368
SWIDTH 752 0
DWIDTH 21 0
BBX 20 24 1 0
BITMAP
007700
006600
00CC00
019800
000000
FF07F0
3C01C0
380180
380180
380180
380180
380180
380180
380180
380180
380180
380180
380180
380180
180180
1C0300
1E0700
0FFE00
03F800
ENDCHAR
STARTCHAR uhungarumlaut
ENCODING 369
SWIDTH 570 0
DWIDTH 16 0
BBX 14 19 1 0
BITMAP
0370
0660
06C0
0C80
0000
F0F0
7070
3030
3030
3030
3030
3030
3030
3030
3030
3030
3070
38F0
1F3C
ENDCHAR
STARTCHAR Uogonek
ENCODING 370
SWIDTH 753 0
DWIDTH 21 0
BBX 20 25 1 -6
BITMAP
FF07F0
3C01C0
380180
380180
380180
380180
380180
380180
380180
380180
380180
380180
380180
380180
180180
1C0300
1E0700
0FFE00
03FC00
003000
006000
004000
00C000
00E400
007800
ENDCHAR
STARTCHAR uogonek
ENCODING 371
SWIDTH 570 0
DWIDTH 16 0
BBX 14 20 1 -6
BITMAP
F0F0
7070
3030
3030
3030
3030
3030
3030
3030
3030
3030
38F0
3FBC
1E38
0060
00C0
0180
0180
01C8
00F0
ENDCHAR
STARTCHAR Wcircumflex
ENCODING 372
SWIDTH 944 0
DWIDTH 26 0
BBX 26 24 0 0
BITMAP
001C0000
001E0000
00330000
00618000
00000000
FE7F07C0
781E0380
380C0300
180E0300
1C0E0300
1C070200
0E070600
0E0F0600
0E0B8400
070B8C00
07198C00
0391C800
03B1D800
03A0D800
01E0F000
01E07000
00C06000
00C06000
00C02000
ENDCHAR
STARTCHAR wcircumflex
ENCODING 373
SWIDTH 749 0
DWIDTH 21 0
BBX 21 20 0 0
BITMAP
002000
007000
00D800
008800
010400
000000
FDF8F8
707030
307020
383020
383860
183840
1C5840
0C5CC0
0CCC80
0E8E80
068F00
070700
030700
030200
ENDCHAR
STARTCHAR Ycircumflex
ENCODING 374
SWIDTH 647 0
DWIDTH 18 0
BBX 18 24 0 0
BITMAP
00E000
01F000
011000
060C00
000000
FE0FC0
7C0380
3C0200
1C0600
0E0400
0F0C00
070800
039000
03B000
01E000
00E000
00C000
00C000
00C000
00C000
00C000
00E000
01E000
07F800
ENDCHAR
STARTCHAR ycircumflex
ENCODING 375
SWIDTH 483 0
DWIDTH 14 0
BBX 14 26 0 -6
BITMAP
0300
0380
06C0
0C40
1820
0000
FC7C
7018
3030
3830
3820
1C60
1C40
0C40
0EC0
0680
0780
0300
0300
0300
0200
0600
0400
EC00
F800
7000
ENDCHAR
STARTCHAR Ydieresis
ENCODING 376
SWIDTH 647 0
DWIDTH 18 0
BBX 18 23 0 0
BITMAP
071C00
071C00
071C00
000000
FE0FC0
7C0380
3C0200
1C0600
0E0400
0F0C00
070800
039000
03B000
01E000
00E000
00C000
00C000
00C000
00C000
00C000
00E000
01E000
07F800
ENDCHAR
STARTCHAR Zacute
ENCODING 377
SWIDTH 594 0
DWIDTH 17 0
BBX 15 24 1 0
BITMAP
00E0
01C0
0380
0600
0000
7FFE
701C
4038
4038
4070
00F0
00E0
01C0
03C0
0380
0700
0F00
0E00
1C00
3C02
3806
7004
F00C
FFFC
ENDCHAR
STARTCHAR zacute
ENCODING 378
SWIDTH 458 0
DWIDTH 13 0
BBX 11 20 1 0
BITMAP
0380
0300
0700
0600
0C00
0000
FFE0
C1C0
C1C0
8380
0300
0700
0E00
0C00
1C00
3820
3020
7060
E0E0
FFE0
ENDCHAR
STARTCHAR Zdotaccent
ENCODING 379
SWIDTH 594 0
DWIDTH 17 0
BBX 15 23 1 0
BITMAP
0180
0380
0180
0000
7FFE
701C
4038
4038
4070
00F0
00E0
01C0
03C0
0380
0700
0F00
0E00
1C00
3C02
3806
7004
F00C
FFFC
ENDCHAR
STARTCHAR zdotaccent
ENCODING 380
SWIDTH 458 0
DWIDTH 13 0
BBX 11 19 1 0
BITMAP
0E00
0E00
0600
0000
0000
FFE0
C1C0
C1C0
8380
0300
0700
0E00
0C00
1C00
3820
3020
7060
E0E0
FFE0
ENDCHAR
STARTCHAR Zcaron
ENCODING 381
SWIDTH 594 0
DWIDTH 17 0
BBX 15 24 1 0
BITMAP
0C30
0660
03C0
0380
0000
7FFE
701C
4038
4038
4070
00F0
00E0
01C0
03C0
0380
0700
0F00
0E00
1C00
3C02
3806
7004
F00C
FFFC
ENDCHAR
STARTCHAR zcaron
ENCODING 382
SWIDTH 458 0
DWIDTH 13 0
BBX 11 20 1 0
BITMAP
2040
3080
1900
0F00
0E00
0000
FFE0
C1C0
C1C0
8380
0300
0700
0E00
0C00
1C00
3820
3020
7060
E0E0
FFE0
ENDCHAR
STARTCHAR longs
ENCODING 383
SWIDTH 285 0
DWIDTH 8 0
BBX 11 21 0 0
BITMAP
07C0
0DE0
08E0
1800
1800
1800
1800
7800
1800
1800
1800
1800
1800
1800
1800
1800
1800
1800
1800
3C00
FF00
ENDCHAR
STARTCHAR uni0180
ENCODING 384
SWIDTH 522 0
DWIDTH 15 0
BBX 14 20 0 0
BITMAP
3800
F800
3800
FFC0
3800
3800
39E0
3BF0
3C38
3838
3818
381C
381C
381C
3818
3818
3818
3830
3C60
0FC0
ENDCHAR
STARTCHAR uni0188
ENCODING 392
SWIDTH 446 0
DWIDTH 12 0
BBX 14 19 1 0
BITMAP
0038
004C
00CC
0080
0080
0F80
31C0
60C0
40E0
C000
C000
C000
C000
C000
E000
E020
78C0
3F80
1F00
ENDCHAR
STARTCHAR uni0190
ENCODING 400
SWIDTH 518 0
DWIDTH 15 0
BBX 13 19 1 0
BITMAP
1FC0
38F0
7070
E030
E000
6000
7000
3800
0F80
3800
7000
6000
E000
E000
E000
E018
7030
7FE0
1F80
ENDCHAR
STARTCHAR uni0192
ENCODING 402
SWIDTH 301 0
DWIDTH 8 0
BBX 14 27 -3 -6
BITMAP
00F0
01B8
031C
0300
0300
0300
0300
0FF0
0300
0300
0300
0300
0300
0300
0300
0300
0300
0300
0300
0300
0300
0300
0300
0300
E300
6600
7C00
ENDCHAR
STARTCHAR uni0195
ENCODING 405
SWIDTH 798 0
DWIDTH 22 0
BBX 20 20 1 0
BITMAP
700000
F00000
300000
300000
300000
300000
31C0C0
37E0E0
3C7070
303030
303030
303010
303010
303010
303010
303010
303020
303020
701840
FC0F80
ENDCHAR
STARTCHAR uni0199
ENCODING 409
SWIDTH 538 0
DWIDTH 15 0
BBX 14 21 1 0
BITMAP
0780
19C0
10C0
3000
3000
3000
3000
31F8
30E0
30C0
3180
3200
3400
3E00
3700
3380
3380
31C0
30E0
7070
FCFC
ENDCHAR
STARTCHAR uni019A
ENCODING 410
SWIDTH 287 0
DWIDTH 8 0
BBX 6 20 1 0
BITMAP
30
F0
30
30
30
30
30
30
30
FC
30
30
30
30
30
30
30
30
38
FC
ENDCHAR
STARTCHAR uni019B
ENCODING 411
SWIDTH 495 0
DWIDTH 14 0
BBX 14 20 0 0
BITMAP
7800
7C40
66C0
0300
0F00
1100
0100
0180
0380
0380
0740
0640
0E40
0C20
1C20
1830
3810
3010
7018
FC7C
ENDCHAR
STARTCHAR uni019E
ENCODING 414
SWIDTH 559 0
DWIDTH 16 0
BBX 15 20 1 -6
BITMAP
71E0
F7F0
3C70
3030
3030
3030
3030
3030
3030
3030
3030
3030
3830
FC30
0030
0030
0030
0030
0038
003E
ENDCHAR
STARTCHAR Ohorn
ENCODING 416
SWIDTH 737 0
DWIDTH 21 0
BBX 19 24 1 0
BITMAP
000040
0000E0
0000E0
000060
000040
03FFC0
0E1E00
1C0700
380380
700380
7001C0
7001C0
6001C0
E001C0
E001C0
E001C0
6001C0
7001C0
700180
700380
380300
1C0700
0E0C00
03F000
ENDCHAR
STARTCHAR ohorn
ENCODING 417
SWIDTH 516 0
DWIDTH 14 0
BBX 13 19 1 0
BITMAP
0010
0018
0018
0018
0018
0FF0
38C0
7060
6070
E030
E030
E030
E030
E030
E030
6070
7060
38C0
1F80
ENDCHAR
STARTCHAR uni01A5
ENCODING 421
SWIDTH 522 0
DWIDTH 15 0
BBX 14 27 0 -6
BITMAP
07C0
09E0
18E0
1840
3800
3800
3800
39E0
3BF0
3C78
3838
3818
381C
381C
381C
3818
3818
3818
3830
3C60
3FC0
3800
3800
3800
3800
3800
FE00
ENDCHAR
STARTCHAR uni01AA
ENCODING 426
SWIDTH 298 0
DWIDTH 8 0
BBX 13 27 -2 -6
BITMAP
3C00
4600
8600
8300
8300
4300
7F00
0300
0300
0300
0300
0300
0300
0300
0300
0300
0300
0300
0300
0300
0300
0300
0300
0300
0318
0138
00F0
ENDCHAR
STARTCHAR uni01AB
ENCODING 427
SWIDTH 321 0
DWIDTH 9 0
BBX 8 25 1 -6
BITMAP
10
10
30
30
70
FE
30
30
30
30
30
30
30
30
30
30
30
33
1F
03
03
03
33
32
1C
ENDCHAR
STARTCHAR uni01AD
ENCODING 429
SWIDTH 315 0
DWIDTH 9 0
BBX 10 21 1 0
BITMAP
0780
19C0
30C0
3000
3000
3000
7000
FE00
3000
3000
3000
3000
3000
3000
3000
3000
3000
3000
3000
3300
1C00
ENDCHAR
STARTCHAR Uhorn
ENCODING 431
SWIDTH 762 0
DWIDTH 21 0
BBX 22 25 1 0
BITMAP
000008
00001C
00001C
00000C
00000C
000008
FF07F0
3C0180
380180
380180
380180
380180
380180
380180
380180
380180
380180
380180
380180
380180
180180
1C0300
1E0700
0FFE00
03F800
ENDCHAR
STARTCHAR uhorn
ENCODING 432
SWIDTH 574 0
DWIDTH 16 0
BBX 15 18 1 0
BITMAP
0006
0006
0006
0006
F0FC
F0F0
7030
3030
3030
3030
3030
3030
3030
3030
3030
3070
38F0
1F3C
ENDCHAR
STARTCHAR uni01B5
ENCODING 437
SWIDTH 594 0
DWIDTH 17 0
BBX 15 19 1 0
BITMAP
7FFE
701C
4038
4038
4070
00E0
00E0
01C0
3FF8
0780
0700
0E00
0E00
1C00
3802
3806
7004
F00C
FFFC
ENDCHAR
STARTCHAR uni01BA
ENCODING 442
SWIDTH 430 0
DWIDTH 12 0
BBX 10 20 1 -6
BITMAP
FFC0
C380
8700
8600
0C00
1800
3C00
3F80
01C0
01C0
01C0
01C0
0180
0700
3800
4000
8180
8380
C780
7E00
ENDCHAR
STARTCHAR uni01BB
ENCODING 443
SWIDTH 508 0
DWIDTH 14 0
BBX 12 20 1 0
BITMAP
1F00
3FC0
61E0
40E0
80E0
0060
0060
00E0
00E0
00C0
FFF0
0300
0300
0600
0C00
1810
3010
6030
FFF0
FFE0
ENDCHAR
STARTCHAR uni01BE
ENCODING 446
SWIDTH 406 0
DWIDTH 11 0
BBX 10 18 1 0
BITMAP
1000
1000
3000
7000
FF00
3000
3000
3C00
0700
0380
0180
0180
01C0
81C0
8180
C180
E300
BE00
ENDCHAR
STARTCHAR uni01C0
ENCODING 448
SWIDTH 250 0
DWIDTH 7 0
BBX 3 20 2 0
BITMAP
E0
E0
E0
E0
E0
E0
E0
E0
E0
E0
E0
E0
E0
E0
E0
E0
E0
E0
E0
E0
ENDCHAR
STARTCHAR uni01C1
ENCODING 449
SWIDTH 423 0
DWIDTH 12 0
BBX 7 20 2 0
BITMAP
E6
E6
E6
E6
E6
E6
E6
E6
E6
E6
E6
E6
E6
E6
E6
E6
E6
E6
E6
E6
ENDCHAR
STARTCHAR uni01C2
ENCODING 450
SWIDTH 422 0
DWIDTH 12 0
BBX 10 20 1 0
BITMAP
0C00
0C00
0C00
0C00
0C00
0C00
FFC0
0C00
0C00
0C00
FFC0
0C00
0C00
0C00
0C00
0C00
0C00
0C00
0C00
0C00
ENDCHAR
STARTCHAR uni01C3
ENCODING 451
SWIDTH 245 0
DWIDTH 7 0
BBX 3 20 2 0
BITMAP
E0
E0
E0
E0
E0
E0
E0
C0
40
40
40
40
40
40
40
00
00
E0
E0
E0
ENDCHAR
STARTCHAR uni01DE
ENCODING 478
SWIDTH 718 0
DWIDTH 20 0
BBX 20 25 0 0
BITMAP
03FC00
000000
030C00
071E00
030C00
000000
006000
006000
00F000
00F000
01B000
01B800
013800
031C00
021C00
061E00
060E00
040E00
0FFF00
080700
180780
180380
3003C0
3003E0
FC0FF0
ENDCHAR
STARTCHAR uni01DF
ENCODING 479
SWIDTH 480 0
DWIDTH 13 0
BBX 12 21 1 0
BITMAP
7FC0
0000
71C0
71C0
71C0
0000
0000
1F00
7380
61C0
61C0
41C0
01C0
07C0
39C0
61C0
E1C0
E1C0
E1D0
E2F0
7CE0
ENDCHAR
STARTCHAR uni01F0
ENCODING 496
SWIDTH 263 0
DWIDTH 7 0
BBX 11 26 -3 -6
BITMAP
1060
18C0
0D80
0780
0700
0000
0700
0F00
0300
0300
0300
0300
0300
0300
0300
0300
0300
0300
0300
0300
0300
0300
0300
E200
F600
7C00
ENDCHAR
STARTCHAR Aringacute
ENCODING 506
SWIDTH 718 0
DWIDTH 20 0
BBX 20 30 0 0
BITMAP
003800
007000
00E000
018000
000000
00F000
019800
010800
019800
00F000
000000
006000
006000
00F000
00F000
01B000
01B800
013800
031C00
021C00
061E00
060E00
040E00
0FFF00
080700
180780
180380
3003C0
3003E0
FC0FF0
ENDCHAR
STARTCHAR aringacute
ENCODING 507
SWIDTH 480 0
DWIDTH 13 0
BBX 12 25 1 0
BITMAP
0380
0700
0C00
1800
0E00
1300
1100
1100
1100
0E00
0000
1F00
7380
61C0
61C0
41C0
01C0
07C0
39C0
61C0
E1C0
E1C0
E1D0
E2F0
7CE0
ENDCHAR
STARTCHAR AEacute
ENCODING 508
SWIDTH 894 0
DWIDTH 25 0
BBX 25 24 -1 0
BITMAP
00007000
0000E000
0001C000
00030000
00000000
007FFF00
00160700
00360100
00260100
00660100
00460000
00C60400
00860400
01860C00
01FFFC00
03060C00
02060400
06060400
0C060000
08060080
18060080
180E0180
380E0780
FC3FFF00
ENDCHAR
STARTCHAR aeacute
ENCODING 509
SWIDTH 709 0
DWIDTH 20 0
BBX 18 20 1 0
BITMAP
00E000
00E000
00C000
018000
010000
020000
1F3E00
63E300
61C180
61C180
01C1C0
01FFC0
0F8000
31C000
61C000
E1C000
E1C040
E1F180
E27F00
7C3E00
ENDCHAR
STARTCHAR Oslashacute
ENCODING 510
SWIDTH 737 0
DWIDTH 21 0
BBX 18 24 1 0
BITMAP
003000
007000
00C000
018000
000000
03F980
0E1F00
1C0700
380780
700F80
7019C0
7011C0
6021C0
E041C0
E0C1C0
E181C0
6101C0
7201C0
7601C0
7C0380
380380
1C0700
2E0E00
63F000
ENDCHAR
STARTCHAR oslashacute
ENCODING 511
SWIDTH 514 0
DWIDTH 14 0
BBX 12 20 1 0
BITMAP
0380
0300
0700
0600
0C00
0000
0FA0
38E0
7060
60F0
E130
E330
E630
E430
E830
F030
7070
7060
78C0
8F80
ENDCHAR
STARTCHAR uni0218
ENCODING 536
SWIDTH 504 0
DWIDTH 14 0
BBX 12 27 1 -8
BITMAP
1F20
30E0
6060
E020
E020
E020
7000
7C00
3F00
0F80
07E0
01F0
00F0
8070
8030
C070
C070
F0E0
9F80
0000
0000
0E00
0F00
0F00
0300
0200
0C00
ENDCHAR
STARTCHAR uni0219
ENCODING 537
SWIDTH 394 0
DWIDTH 11 0
BBX 9 22 1 -8
BITMAP
3F00
6300
C100
C100
E080
7800
3C00
1F00
0780
8380
8180
C180
E380
BE00
0000
0000
1C00
1C00
1C00
0400
0C00
1800
ENDCHAR
STARTCHAR uni021A
ENCODING 538
SWIDTH 603 0
DWIDTH 17 0
BBX 16 27 0 -8
BITMAP
7FFF
61C3
41C1
41C1
81C1
01C0
01C0
01C0
01C0
01C0
01C0
01C0
01C0
01C0
01C0
01C0
01C0
03C0
0FF8
0000
0000
01C0
01C0
01C0
0040
00C0
0180
ENDCHAR
STARTCHAR uni021B
ENCODING 539
SWIDTH 315 0
DWIDTH 9 0
BBX 8 26 1 -8
BITMAP
10
30
30
70
FE
30
30
30
30
30
30
30
30
30
30
30
33
1C
00
00
18
3C
1C
04
0C
18
ENDCHAR
STARTCHAR uni0221
ENCODING 545
SWIDTH 674 0
DWIDTH 19 0
BBX 18 24 1 -4
BITMAP
006000
01E000
006000
006000
006000
006000
0FE000
38E000
606000
606000
E06000
C06000
C06000
C06000
E06000
E06380
E06640
70E440
7F78C0
1E3F00
001000
002000
002000
004000
ENDCHAR
STARTCHAR uni0228
ENCODING 552
SWIDTH 626 0
DWIDTH 18 0
BBX 16 25 1 -6
BITMAP
FFFE
380E
1806
1802
1800
1808
1808
1818
1818
1FF8
1818
1808
1800
1801
1803
1802
1806
380E
FFFE
0100
0100
01C0
0060
0060
03C0
ENDCHAR
STARTCHAR uni0229
ENCODING 553
SWIDTH 464 0
DWIDTH 13 0
BBX 11 20 1 -6
BITMAP
1F00
3180
60C0
40E0
C0E0
FFE0
C000
C000
E000
E000
7020
7840
3FC0
1F00
0400
0400
0F00
0100
0100
1F00
ENDCHAR
STARTCHAR uni0234
ENCODING 564
SWIDTH 399 0
DWIDTH 11 0
BBX 11 24 0 -4
BITMAP
3800
F800
3800
3800
3800
3800
3800
3800
3800
3800
3800
3800
3800
3800
3800
38E0
3920
3A20
1C60
0F80
0800
1800
1000
2000
ENDCHAR
STARTCHAR uni0235
ENCODING 565
SWIDTH 702 0
DWIDTH 20 0
BBX 19 18 1 -4
BITMAP
F3C000
346000
387000
303000
303000
303000
303000
303000
303000
3031C0
303320
303620
383440
FC1F80
000800
001000
003000
002000
ENDCHAR
STARTCHAR uni0236
ENCODING 566
SWIDTH 406 0
DWIDTH 11 0
BBX 11 22 1 -4
BITMAP
1000
3000
3000
7000
FE00
3000
3000
3000
3000
3000
3000
3000
3000
31C0
3340
3460
3CC0
1F00
1000
1000
2000
2000
ENDCHAR
STARTCHAR uni0237
ENCODING 567
SWIDTH 263 0
DWIDTH 7 0
BBX 8 20 -3 -6
BITMAP
07
0F
03
03
03
03
03
03
03
03
03
03
03
03
03
03
03
E2
F6
7C
ENDCHAR
STARTCHAR uni0250
ENCODING 592
SWIDTH 475 0
DWIDTH 13 0
BBX 12 14 0 0
BITMAP
71E0
FE70
B830
1830
1830
1860
18C0
1F00
1800
1820
1870
1870
1C60
0FC0
ENDCHAR
STARTCHAR uni0251
ENCODING 593
SWIDTH 542 0
DWIDTH 15 0
BBX 13 14 1 0
BITMAP
0FA0
38E0
6060
6060
E060
C060
C060
C060
C060
E060
E060
70E0
7F78
1E78
ENDCHAR
STARTCHAR uni0252
ENCODING 594
SWIDTH 544 0
DWIDTH 15 0
BBX 13 14 1 0
BITMAP
F3E0
77F0
3870
3038
3038
3018
3018
3018
3018
3018
3030
3030
3860
2780
ENDCHAR
STARTCHAR uni0253
ENCODING 595
SWIDTH 518 0
DWIDTH 15 0
BBX 12 21 2 0
BITMAP
1F00
2780
6380
4000
C000
C000
C000
C780
CFC0
D1E0
E0E0
C060
C060
C070
C060
C060
C060
C0E0
C0C0
F180
3E00
ENDCHAR
STARTCHAR uni0254
ENCODING 596
SWIDTH 454 0
DWIDTH 13 0
BBX 11 14 1 0
BITMAP
1F00
7F80
63C0
81C0
80C0
00E0
00E0
00E0
00E0
00C0
E0C0
E080
7180
3E00
ENDCHAR
STARTCHAR uni0255
ENCODING 597
SWIDTH 447 0
DWIDTH 13 0
BBX 11 17 1 -3
BITMAP
0F80
31C0
60C0
60E0
C000
C000
C000
C000
C000
E3C0
E640
7C60
3840
1F80
3000
2000
2000
ENDCHAR
STARTCHAR uni0256
ENCODING 598
SWIDTH 528 0
DWIDTH 15 0
BBX 17 26 1 -6
BITMAP
006000
01E000
006000
006000
006000
006000
0FE000
38E000
606000
606000
E06000
C06000
C06000
C06000
E06000
E06000
E06000
70E000
7F6000
1E6000
006000
006000
006000
003180
003380
001F00
ENDCHAR
STARTCHAR uni0257
ENCODING 599
SWIDTH 542 0
DWIDTH 15 0
BBX 17 21 1 0
BITMAP
000F00
003380
003180
006000
006000
006000
006000
0FE000
38E000
606000
606000
E06000
C06000
C06000
C06000
C06000
E06000
E06000
70E000
7F7C00
1E7800
ENDCHAR
STARTCHAR uni0258
ENCODING 600
SWIDTH 466 0
DWIDTH 13 0
BBX 11 14 1 0
BITMAP
1F00
3180
60C0
E060
E060
FFE0
0060
0060
0060
00E0
81C0
63C0
7F80
1F00
ENDCHAR
STARTCHAR uni0259
ENCODING 601
SWIDTH 464 0
DWIDTH 13 0
BBX 11 14 1 0
BITMAP
1F00
7F80
63C0
81C0
00E0
00E0
0060
0060
FFE0
E060
E040
60C0
3180
1F00
ENDCHAR
STARTCHAR uni025A
ENCODING 602
SWIDTH 642 0
DWIDTH 18 0
BBX 17 14 1 0
BITMAP
1E0000
7F8000
63C400
81DC80
00EC80
00E700
006000
006000
FFE000
E06000
E04000
60C000
318000
1F0000
ENDCHAR
STARTCHAR uni025B
ENCODING 603
SWIDTH 399 0
DWIDTH 11 0
BBX 10 14 1 0
BITMAP
3F00
6380
E1C0
E080
E000
6000
1E00
7000
E000
C000
C000
E040
7080
3F00
ENDCHAR
STARTCHAR uni025C
ENCODING 604
SWIDTH 398 0
DWIDTH 11 0
BBX 10 14 0 0
BITMAP
3F00
7180
60C0
40C0
01C0
0180
1E00
0380
01C0
00C0
00C0
80C0
6180
3F00
ENDCHAR
STARTCHAR uni025D
ENCODING 605
SWIDTH 575 0
DWIDTH 16 0
BBX 16 14 0 0
BITMAP
3F00
7180
60C8
40F9
01D9
018E
1E00
0380
01C0
00C0
00C0
80C0
6180
3F00
ENDCHAR
STARTCHAR uni025E
ENCODING 606
SWIDTH 500 0
DWIDTH 14 0
BBX 12 14 1 0
BITMAP
0FC0
38E0
7070
6070
E070
C060
C780
C0E0
C070
E030
6030
6070
38E0
0FC0
ENDCHAR
STARTCHAR uni025F
ENCODING 607
SWIDTH 272 0
DWIDTH 8 0
BBX 10 20 -3 -6
BITMAP
0F00
0700
0300
0300
0300
0FC0
0300
0300
0300
0300
0300
0300
0300
0300
0300
0300
0300
E200
7600
7C00
ENDCHAR
STARTCHAR uni0260
ENCODING 608
SWIDTH 541 0
DWIDTH 15 0
BBX 18 27 1 -6
BITMAP
000F80
0013C0
0021C0
006000
006000
006000
006000
0F6000
38E000
606000
606000
E06000
C06000
C06000
C06000
C06000
E06000
E06000
70E000
7F6000
1E6000
006000
006000
006000
E0C000
71C000
3F0000
ENDCHAR
STARTCHAR uni0261
ENCODING 609
SWIDTH 521 0
DWIDTH 15 0
BBX 11 20 1 -6
BITMAP
0FA0
38E0
6060
6060
E060
C060
C060
C060
C060
E060
E060
70E0
7F60
1E60
0060
0060
0060
E0C0
71C0
3F00
ENDCHAR
STARTCHAR uni0262
ENCODING 610
SWIDTH 535 0
DWIDTH 15 0
BBX 13 14 1 0
BITMAP
0FF0
3870
7030
6010
E010
E000
E000
E0F8
E070
E030
6030
7030
3870
0FC0
ENDCHAR
STARTCHAR uni0263
ENCODING 611
SWIDTH 479 0
DWIDTH 13 0
BBX 14 20 0 -6
BITMAP
FC7C
7018
3030
3830
3820
1860
1C40
0C40
0EC0
0E80
0780
0700
0300
0780
0580
0580
0DC0
08C0
0D80
0780
ENDCHAR
STARTCHAR uni0264
ENCODING 612
SWIDTH 466 0
DWIDTH 13 0
BBX 13 14 0 0
BITMAP
78F0
C738
C318
C790
0980
09C0
10C0
10C0
10C0
10C0
10C0
10C0
19C0
0F00
ENDCHAR
STARTCHAR uni0265
ENCODING 613
SWIDTH 553 0
DWIDTH 15 0
BBX 14 20 1 -6
BITMAP
7030
F0F0
3030
3030
3030
3030
3030
3030
3030
3030
3030
3870
3FB0
1E30
0030
0030
0030
0030
0038
003C
ENDCHAR
STARTCHAR uni0266
ENCODING 614
SWIDTH 577 0
DWIDTH 16 0
BBX 15 21 1 0
BITMAP
0780
19C0
10E0
3000
3000
3000
3000
31E0
37F0
3C70
3030
3030
3038
3038
3038
3038
3038
3038
3038
7038
FCFE
ENDCHAR
STARTCHAR uni0267
ENCODING 615
SWIDTH 562 0
DWIDTH 16 0
BBX 13 27 1 -6
BITMAP
0780
19C0
10E0
3000
3000
3000
3000
31E0
37F0
3C70
3030
3030
3038
3038
3038
3038
3038
3038
3038
7038
FC38
0030
0030
0030
0630
0760
03C0
ENDCHAR
STARTCHAR uni0268
ENCODING 616
SWIDTH 295 0
DWIDTH 8 0
BBX 6 20 1 0
BITMAP
30
38
30
00
00
00
70
F0
30
30
30
30
FC
30
30
30
30
30
38
FC
ENDCHAR
STARTCHAR uni0269
ENCODING 617
SWIDTH 286 0
DWIDTH 8 0
BBX 8 14 1 0
BITMAP
70
F0
30
30
30
30
30
30
30
30
30
30
33
1C
ENDCHAR
STARTCHAR uni026A
ENCODING 618
SWIDTH 287 0
DWIDTH 8 0
BBX 6 14 1 0
BITMAP
FC
30
30
30
30
30
30
30
30
30
30
30
30
FC
ENDCHAR
STARTCHAR uni026B
ENCODING 619
SWIDTH 290 0
DWIDTH 8 0
BBX 8 20 0 0
BITMAP
18
78
18
18
18
18
18
18
79
9E
98
18
18
18
18
18
18
18
1C
7E
ENDCHAR
STARTCHAR uni026C
ENCODING 620
SWIDTH 318 0
DWIDTH 9 0
BBX 9 20 0 0
BITMAP
1C00
7C00
0C00
0C00
0C00
0C00
7C00
CC00
CC00
8C80
CD80
FF00
3C00
0C00
0C00
0C00
0C00
0C00
1C00
3F00
ENDCHAR
STARTCHAR uni026D
ENCODING 621
SWIDTH 248 0
DWIDTH 7 0
BBX 10 26 0 -6
BITMAP
3800
F800
3800
3800
3800
3800
3800
3800
3800
3800
3800
3800
3800
3800
3800
3800
3800
3800
3800
3800
3800
3800
1800
19C0
19C0
0780
ENDCHAR
STARTCHAR uni026E
ENCODING 622
SWIDTH 590 0
DWIDTH 17 0
BBX 15 26 1 -6
BITMAP
7000
F000
3000
3000
3000
3000
3FFE
301C
3018
3038
3070
3060
30E0
31C0
3180
30F0
301C
300C
700E
FC0E
0006
000E
080E
0C0C
0E38
07E0
ENDCHAR
STARTCHAR uni026F
ENCODING 623
SWIDTH 846 0
DWIDTH 24 0
BBX 22 14 1 0
BITMAP
707070
F0F0F0
307030
307030
307030
307030
307030
307030
307030
307030
307030
307070
38B9B0
1F1E3C
ENDCHAR
STARTCHAR uni0270
ENCODING 624
SWIDTH 826 0
DWIDTH 23 0
BBX 22 20 1 -6
BITMAP
707070
F0F0F0
307030
307030
307030
307030
307030
307030
307030
307030
307070
38F0F0
3FBF30
1E1E30
000030
000030
000030
000030
000030
00003C
ENDCHAR
STARTCHAR uni0271
ENCODING 625
SWIDTH 835 0
DWIDTH 23 0
BBX 20 20 1 -6
BITMAP
71E1E0
F7F7F0
3C7C70
303030
303030
303030
303030
303030
303030
303030
303030
303030
387830
FCFC30
000030
000030
000030
000630
000F60
0007C0
ENDCHAR
STARTCHAR uni0272
ENCODING 626
SWIDTH 574 0
DWIDTH 16 0
BBX 18 20 -3 -6
BITMAP
0F3E00
034700
038300
030300
030300
030300
030300
030300
030300
030300
030300
030300
030380
030FC0
030000
030000
030000
620000
F60000
7C0000
ENDCHAR
STARTCHAR uni0273
ENCODING 627
SWIDTH 563 0
DWIDTH 16 0
BBX 18 20 1 -6
BITMAP
71E000
F7F000
3C7000
303000
303000
303000
303000
303000
303000
303000
303000
303000
303000
FC3000
003000
003000
003000
0019C0
0019C0
000780
ENDCHAR
STARTCHAR uni0274
ENCODING 628
SWIDTH 568 0
DWIDTH 16 0
BBX 14 14 1 0
BITMAP
F07C
7818
3818
3C10
2E10
2710
2790
2390
21D0
20F0
2070
2070
6030
F810
ENDCHAR
STARTCHAR uni0275
ENCODING 629
SWIDTH 514 0
DWIDTH 14 0
BBX 12 14 1 0
BITMAP
0F80
38C0
6060
6070
E030
E030
FFF0
E030
E030
E030
6070
7060
38C0
1F80
ENDCHAR
STARTCHAR uni0276
ENCODING 630
SWIDTH 732 0
DWIDTH 21 0
BBX 19 14 1 0
BITMAP
0FFFC0
38E0C0
706040
606000
E06100
E06100
E07F00
E06100
E06100
E06020
606040
706040
38E0C0
0FFFC0
ENDCHAR
STARTCHAR uni0277
ENCODING 631
SWIDTH 672 0
DWIDTH 19 0
BBX 17 14 1 0
BITMAP
07F000
1C1C00
300E00
700700
600300
E1C380
E1C380
E1C380
E1C380
E18380
E08300
61C300
714600
1E3C00
ENDCHAR
STARTCHAR uni0278
ENCODING 632
SWIDTH 658 0
DWIDTH 18 0
BBX 16 26 1 -6
BITMAP
0180
0780
0180
0180
0180
0180
0FF8
399C
718E
6187
E187
E183
E183
E183
E183
E183
6187
7186
398C
0FF0
0180
0180
0180
0180
01C0
07E0
ENDCHAR
STARTCHAR uni0279
ENCODING 633
SWIDTH 380 0
DWIDTH 11 0
BBX 10 14 0 0
BITMAP
1FC0
0700
0700
0700
0700
0700
0700
0700
0700
0700
0700
EB00
F3C0
6300
ENDCHAR
STARTCHAR uni027A
ENCODING 634
SWIDTH 374 0
DWIDTH 10 0
BBX 10 20 0 0
BITMAP
0700
1F00
0700
0700
0700
0700
0700
0700
0700
0700
0700
0700
0700
0700
0700
0700
0700
EB00
F3C0
6300
ENDCHAR
STARTCHAR uni027B
ENCODING 635
SWIDTH 375 0
DWIDTH 11 0
BBX 13 20 0 -6
BITMAP
1FC0
0700
0700
0700
0700
0700
0700
0700
0700
0700
0700
EB00
F300
6300
0300
0300
0300
0318
01B8
00F0
ENDCHAR
STARTCHAR uni027C
ENCODING 636
SWIDTH 378 0
DWIDTH 11 0
BBX 9 20 1 -6
BITMAP
3380
F780
3D80
3800
3000
3000
3000
3000
3000
3000
3000
3000
3000
3000
3000
3000
3000
3000
7800
FE00
ENDCHAR
STARTCHAR uni027D
ENCODING 637
SWIDTH 373 0
DWIDTH 10 0
BBX 9 20 1 -6
BITMAP
7380
F780
3980
3800
3000
3000
3000
3000
3000
3000
3000
3000
3000
3000
3000
3000
3000
3180
1B80
0F00
ENDCHAR
STARTCHAR uni027E
ENCODING 638
SWIDTH 371 0
DWIDTH 10 0
BBX 9 14 1 0
BITMAP
0F80
1B80
3180
3000
3000
3000
3000
3000
3000
3000
3000
3000
7000
FE00
ENDCHAR
STARTCHAR uni027F
ENCODING 639
SWIDTH 371 0
DWIDTH 10 0
BBX 10 14 0 0
BITMAP
7800
E400
4600
0600
0700
0700
0700
0700
0700
0700
0700
0700
0700
1FC0
ENDCHAR
STARTCHAR uni0280
ENCODING 640
SWIDTH 494 0
DWIDTH 14 0
BBX 13 14 1 0
BITMAP
FF80
31C0
30E0
30E0
30E0
30E0
31C0
3F00
3300
3380
31C0
30E0
30F0
FC78
ENDCHAR
STARTCHAR uni0281
ENCODING 641
SWIDTH 494 0
DWIDTH 14 0
BBX 13 14 1 0
BITMAP
FC78
30F0
30E0
31C0
3380
3300
3E00
31C0
30C0
30E0
30E0
30E0
31C0
FF80
ENDCHAR
STARTCHAR uni0282
ENCODING 642
SWIDTH 395 0
DWIDTH 11 0
BBX 9 20 1 -6
BITMAP
3F00
6300
C100
C100
E080
7800
3C00
1F00
0780
8380
8180
C180
E380
BE00
8000
8000
8000
CC00
4C00
3800
ENDCHAR
STARTCHAR uni0283
ENCODING 643
SWIDTH 253 0
DWIDTH 7 0
BBX 13 27 -3 -6
BITMAP
00F0
0138
0318
0300
0700
0700
0700
0700
0700
0700
0700
0700
0700
0700
0700
0700
0700
0700
0700
0700
0700
0700
0700
0600
C600
E600
7C00
ENDCHAR
STARTCHAR uni0284
ENCODING 644
SWIDTH 286 0
DWIDTH 8 0
BBX 12 26 -2 -6
BITMAP
01F0
0330
0230
0600
0600
0600
0600
0600
0600
0600
0600
0600
0600
0600
0600
0600
0600
0600
0600
1F80
0600
0600
0600
8600
EC00
F800
ENDCHAR
STARTCHAR uni0285
ENCODING 645
SWIDTH 361 0
DWIDTH 10 0
BBX 13 20 0 -6
BITMAP
7800
E600
C600
0600
0700
0700
0700
0700
0700
0700
0700
0700
0700
0700
0700
0300
0300
0318
0338
00F0
ENDCHAR
STARTCHAR uni0286
ENCODING 646
SWIDTH 253 0
DWIDTH 7 0
BBX 12 27 -2 -6
BITMAP
01E0
0270
0630
0600
0E00
0E00
0E00
0E00
0E00
0E00
0E00
0E00
0E00
0E00
0E00
0E00
0E00
0E00
0E00
0E00
0E00
7E00
CF00
8F80
8C00
8C00
7800
ENDCHAR
STARTCHAR uni0287
ENCODING 647
SWIDTH 315 0
DWIDTH 9 0
BBX 8 18 0 -4
BITMAP
38
DC
0C
0C
0C
0C
0C
0C
0C
0C
0C
0C
0C
7F
0E
0C
08
08
ENDCHAR
STARTCHAR uni0288
ENCODING 648
SWIDTH 309 0
DWIDTH 9 0
BBX 9 25 1 -6
BITMAP
1000
1000
3000
3000
7000
FE00
3000
3000
3000
3000
3000
3000
3000
3000
3000
3000
3000
3000
3000
3000
3000
3000
3180
1B80
0F00
ENDCHAR
STARTCHAR uni0289
ENCODING 649
SWIDTH 580 0
DWIDTH 16 0
BBX 14 14 1 0
BITMAP
F0F0
7070
3030
3030
3030
3030
FFFC
3030
3030
3030
3030
3030
38F0
1F3C
ENDCHAR
STARTCHAR uni028A
ENCODING 650
SWIDTH 548 0
DWIDTH 15 0
BBX 13 14 1 0
BITMAP
78F8
1860
1060
3020
6030
6038
E038
E018
E018
E038
6038
7030
3860
0FC0
ENDCHAR
STARTCHAR uni028B
ENCODING 651
SWIDTH 530 0
DWIDTH 15 0
BBX 13 14 1 0
BITMAP
F060
7070
3070
3030
3010
3018
3018
3010
3010
3010
3010
3020
3840
0F80
ENDCHAR
STARTCHAR uni028C
ENCODING 652
SWIDTH 495 0
DWIDTH 14 0
BBX 14 14 0 0
BITMAP
0300
0300
0780
0580
0D80
09C0
08C0
18C0
10E0
3060
3070
2070
6078
F8FC
ENDCHAR
STARTCHAR uni028D
ENCODING 653
SWIDTH 764 0
DWIDTH 21 0
BBX 22 14 0 0
BITMAP
030200
030700
070700
078F00
0D8B80
098980
09D1C0
18D1C0
10F0C0
30E0E0
306060
207070
607070
F8FCFC
ENDCHAR
STARTCHAR uni028E
ENCODING 654
SWIDTH 492 0
DWIDTH 14 0
BBX 14 21 0 0
BITMAP
0038
007C
00D8
0180
0100
0100
0300
0200
0700
0700
0780
0980
09C0
09C0
18C0
10E0
3060
3070
2030
6038
F8FC
ENDCHAR
STARTCHAR uni028F
ENCODING 655
SWIDTH 454 0
DWIDTH 13 0
BBX 13 14 0 0
BITMAP
F878
7030
3020
3840
1840
0C80
0F80
0700
0700
0700
0700
0700
0700
1FC0
ENDCHAR
STARTCHAR uni0290
ENCODING 656
SWIDTH 458 0
DWIDTH 13 0
BBX 15 20 1 -6
BITMAP
FFE0
C1C0
C1C0
8380
0300
0700
0E00
0C00
1C00
3820
3020
7060
E0E0
FFE0
0060
0060
0060
0022
0026
001E
ENDCHAR
STARTCHAR uni0291
ENCODING 657
SWIDTH 458 0
DWIDTH 13 0
BBX 12 19 1 -5
BITMAP
FFE0
C1C0
C1C0
8380
0300
0700
0E00
0C00
1C00
38E0
3120
7230
E420
FFC0
0800
0800
1000
3000
1000
ENDCHAR
STARTCHAR uni0292
ENCODING 658
SWIDTH 443 0
DWIDTH 12 0
BBX 11 20 1 -6
BITMAP
FFE0
C1C0
8380
8380
0700
0E00
0C00
1C00
3C00
0780
01C0
00E0
00E0
00E0
00E0
00E0
C0C0
C1C0
E380
7E00
ENDCHAR
STARTCHAR uni0293
ENCODING 659
SWIDTH 443 0
DWIDTH 12 0
BBX 11 24 1 -10
BITMAP
FFE0
C1C0
8380
8380
0700
0E00
0C00
1C00
3C00
0780
01C0
00C0
00E0
00E0
70E0
98E0
88C0
85C0
6780
3E00
0200
0100
0180
0080
ENDCHAR
STARTCHAR uni0294
ENCODING 660
SWIDTH 383 0
DWIDTH 11 0
BBX 10 21 1 0
BITMAP
3E00
6300
C180
C180
C1C0
01C0
01C0
0180
0180
0300
0600
3800
3000
3000
3000
3000
3000
3000
3000
7800
FE00
ENDCHAR
STARTCHAR uni0295
ENCODING 661
SWIDTH 383 0
DWIDTH 11 0
BBX 10 21 0 0
BITMAP
1F00
3180
61C0
E0C0
E0C0
E000
E000
E000
6000
7000
3800
0E00
0300
0300
0300
0300
0300
0300
0300
0700
1FC0
ENDCHAR
STARTCHAR uni0296
ENCODING 662
SWIDTH 408 0
DWIDTH 11 0
BBX 10 20 1 0
BITMAP
3000
F000
3000
3000
3000
3000
3000
3000
3000
1C00
0700
0380
0180
0180
01C0
01C0
C180
C180
C300
7E00
ENDCHAR
STARTCHAR uni0297
ENCODING 663
SWIDTH 437 0
DWIDTH 12 0
BBX 11 19 1 -5
BITMAP
0F80
31C0
20C0
60E0
6000
C000
C000
C000
C000
C000
C000
C000
C000
E000
6000
7020
78C0
3F80
1F00
ENDCHAR
STARTCHAR uni0298
ENCODING 664
SWIDTH 736 0
DWIDTH 21 0
BBX 19 20 1 0
BITMAP
03F800
0E1E00
180700
300380
700180
6001C0
E000C0
E000C0
E0C0E0
E1E0E0
E0E0E0
E0C0E0
E000C0
E000C0
6001C0
700180
300380
180700
0E1E00
03F800
ENDCHAR
STARTCHAR uni0299
ENCODING 665
SWIDTH 485 0
DWIDTH 14 0
BBX 12 14 1 0
BITMAP
FF80
31C0
30E0
30E0
30E0
30C0
3F00
31C0
3060
3070
3070
3060
30E0
FF80
ENDCHAR
STARTCHAR uni029A
ENCODING 666
SWIDTH 500 0
DWIDTH 14 0
BBX 12 14 1 0
BITMAP
3F00
71C0
E0E0
E060
E070
6030
1E30
7030
E030
C070
C060
E0E0
71C0
3F00
ENDCHAR
STARTCHAR uni029B
ENCODING 667
SWIDTH 536 0
DWIDTH 15 0
BBX 17 19 1 0
BITMAP
000F00
001B80
001180
001000
001000
0FF000
387000
703000
601000
E01000
E00000
E00000
E0F800
E03000
E03000
603000
703000
387000
0FC000
ENDCHAR
STARTCHAR uni029C
ENCODING 668
SWIDTH 599 0
DWIDTH 17 0
BBX 15 14 1 0
BITMAP
FC7E
3038
3018
3018
3018
3018
3FF8
3018
3018
3018
3018
3018
3038
FC7E
ENDCHAR
STARTCHAR uni029D
ENCODING 669
SWIDTH 263 0
DWIDTH 7 0
BBX 10 25 -2 -6
BITMAP
0600
0F00
0600
0000
0000
0E00
1E00
0600
0600
0600
0600
0600
0600
0600
0600
0600
0600
0600
0600
3E00
C700
86C0
8600
CC00
7800
ENDCHAR
STARTCHAR uni029E
ENCODING 670
SWIDTH 542 0
DWIDTH 15 0
BBX 15 20 0 -6
BITMAP
FCFC
3838
1C30
0E30
0730
0730
03B0
01F0
00B0
0130
0230
0C30
1C30
7E30
0030
0030
0030
0030
0038
003E
ENDCHAR
STARTCHAR uni029F
ENCODING 671
SWIDTH 440 0
DWIDTH 12 0
BBX 11 14 1 0
BITMAP
FC00
7000
3000
3000
3000
3000
3000
3000
3000
3000
3020
3060
7060
FFC0
ENDCHAR
STARTCHAR uni02A0
ENCODING 672
SWIDTH 541 0
DWIDTH 15 0
BBX 18 27 1 -6
BITMAP
000F00
0013C0
0031C0
006080
006000
006000
006000
0FE000
38E000
606000
606000
E06000
C06000
C06000
C06000
C06000
E06000
E06000
70E000
7F6000
1E6000
006000
006000
006000
006000
00F000
03F800
ENDCHAR
STARTCHAR uni02A1
ENCODING 673
SWIDTH 393 0
DWIDTH 11 0
BBX 10 21 1 0
BITMAP
3E00
6380
C180
C1C0
C1C0
01C0
01C0
01C0
0180
0380
0300
0E00
3000
3000
3000
FF00
3000
3000
3000
3800
FE00
ENDCHAR
STARTCHAR uni02A2
ENCODING 674
SWIDTH 393 0
DWIDTH 11 0
BBX 10 21 0 0
BITMAP
1F00
3180
60C0
60C0
E0C0
E000
E000
E000
6000
7000
3000
1C00
0300
0300
0300
1FC0
0300
0300
0300
0700
1FC0
ENDCHAR
STARTCHAR uni02A3
ENCODING 675
SWIDTH 830 0
DWIDTH 23 0
BBX 21 20 1 0
BITMAP
006000
01E000
006000
006000
006000
006000
0FFFF8
38E038
606070
606070
E060E0
C061C0
C061C0
C06380
E06700
E06708
E06E08
70FC08
7F7C38
1E7FF8
ENDCHAR
STARTCHAR uni02A4
ENCODING 676
SWIDTH 838 0
DWIDTH 23 0
BBX 22 26 1 -6
BITMAP
006000
01E000
006000
006000
006000
006000
0FFFFC
38E038
606038
606070
E060E0
C060E0
C061C0
C06380
C06300
E063E0
E06078
70E038
7F781C
1E781C
00001C
00001C
001018
001818
001C70
000FC0
ENDCHAR
STARTCHAR uni02A5
ENCODING 677
SWIDTH 829 0
DWIDTH 23 0
BBX 22 24 1 -4
BITMAP
006000
01E000
006000
006000
006000
006000
0FFFF8
38E038
606070
606070
E060E0
C061C0
C061C0
C06380
E06700
E06738
E06E4C
70FC84
7F7C8C
1E7FF0
000300
000200
000600
000400
ENDCHAR
STARTCHAR uni02A6
ENCODING 678
SWIDTH 614 0
DWIDTH 17 0
BBX 15 18 1 0
BITMAP
1000
1000
3000
7000
FFFA
318E
3306
3306
3382
31E0
30F8
303C
301E
3006
3006
3806
1C1C
0FF0
ENDCHAR
STARTCHAR uni02A7
ENCODING 679
SWIDTH 513 0
DWIDTH 14 0
BBX 16 27 1 -6
BITMAP
001E
0027
0063
1060
1060
3060
7060
FFE0
3060
3060
3060
3060
3060
3060
3060
3060
3060
3060
3060
3360
1C60
0060
0060
0060
1840
1CC0
0F80
ENDCHAR
STARTCHAR uni02A8
ENCODING 680
SWIDTH 687 0
DWIDTH 19 0
BBX 17 18 1 0
BITMAP
100000
100000
300000
700000
FE3F00
306380
30C380
318180
318000
318000
318000
318000
318000
318700
31D880
30E080
39F180
1E3F00
ENDCHAR
STARTCHAR uni02A9
ENCODING 681
SWIDTH 866 0
DWIDTH 24 0
BBX 22 27 0 -6
BITMAP
078000
0DC000
08E000
180000
180000
180000
180000
7FFCF0
181DF8
181E1C
181C1C
181C0C
181C0C
181C0C
181C0C
181C0C
181C0C
181C0C
181C0C
3C1C0C
FF7F0C
00000C
00000C
00000C
000388
0003D8
0001F0
ENDCHAR
STARTCHAR uni02AA
ENCODING 682
SWIDTH 595 0
DWIDTH 17 0
BBX 16 20 0 0
BITMAP
3800
F800
3800
3800
3800
3800
387A
39C6
3982
3982
39C2
39E0
38F8
383E
380E
3807
3803
3807
1C0E
07F8
ENDCHAR
STARTCHAR uni02AB
ENCODING 683
SWIDTH 580 0
DWIDTH 16 0
BBX 14 20 1 0
BITMAP
7000
F000
3000
3000
3000
3000
3FFC
301C
3038
3030
3070
30E0
30C0
31C0
3180
3384
3704
360C
3E1C
FFFC
ENDCHAR
STARTCHAR uni02AC
ENCODING 684
SWIDTH 599 0
DWIDTH 17 0
BBX 16 20 0 0
BITMAP
FBE7
71C2
30C2
38C4
1964
1964
0E38
0E38
0630
0000
FBE7
71C3
30C2
30C6
1964
1964
1D68
0E38
0E38
0430
ENDCHAR
STARTCHAR uni02AD
ENCODING 685
SWIDTH 479 0
DWIDTH 13 0
BBX 9 19 2 0
BITMAP
FF80
FF80
C080
C080
C080
C080
C080
C080
0000
0000
FF80
FF80
C080
C080
C080
C080
C080
C080
C080
ENDCHAR
STARTCHAR uni02AE
ENCODING 686
SWIDTH 595 0
DWIDTH 17 0
BBX 18 20 -1 -6
BITMAP
780600
EC1E00
C60600
060600
060600
060600
060600
060600
060600
060600
070600
070E00
03F600
01E600
000600
000600
000600
000600
000700
0007C0
ENDCHAR
STARTCHAR uni02AF
ENCODING 687
SWIDTH 600 0
DWIDTH 17 0
BBX 21 20 -1 -6
BITMAP
780600
EC1E00
C60600
060600
060600
060600
060600
060600
060600
060600
070600
070E00
03F600
01E600
000600
000600
000600
000338
000378
0001F0
ENDCHAR
STARTCHAR uni02B0
ENCODING 688
SWIDTH 488 0
DWIDTH 14 0
BBX 12 15 1 7
BITMAP
E000
6000
6000
6000
6780
6FC0
70C0
60C0
60C0
60C0
60C0
60C0
60C0
70E0
F9F0
ENDCHAR
STARTCHAR uni02B1
ENCODING 689
SWIDTH 488 0
DWIDTH 14 0
BBX 12 16 1 7
BITMAP
0F00
3380
2080
6000
6000
6780
6FC0
70C0
60C0
60C0
60C0
60C0
60C0
60C0
70E0
F9F0
ENDCHAR
STARTCHAR uni02B2
ENCODING 690
SWIDTH 222 0
DWIDTH 6 0
BBX 7 20 -2 2
BITMAP
0C
0E
04
00
1C
0C
0C
0C
0C
0C
0C
0C
0C
0C
0C
0C
0C
4C
CC
F8
ENDCHAR
STARTCHAR uni02B3
ENCODING 691
SWIDTH 325 0
DWIDTH 9 0
BBX 8 11 1 7
BITMAP
E7
6F
72
70
60
60
60
60
60
70
F8
ENDCHAR
STARTCHAR uni02B4
ENCODING 692
SWIDTH 325 0
DWIDTH 9 0
BBX 8 11 1 7
BITMAP
3F
0C
0C
0C
0C
0C
0C
0C
DC
EE
CF
ENDCHAR
STARTCHAR uni02B5
ENCODING 693
SWIDTH 325 0
DWIDTH 9 0
BBX 10 14 1 4
BITMAP
3F00
0C00
0C00
0C00
0C00
0C00
0C00
0C00
DC00
EC00
CC00
0C00
0440
03C0
ENDCHAR
STARTCHAR uni02B6
ENCODING 694
SWIDTH 443 0
DWIDTH 12 0
BBX 11 11 1 7
BITMAP
F8E0
71C0
6380
6300
6600
7C00
6380
6180
6180
6180
FF00
ENDCHAR
STARTCHAR uni02B7
ENCODING 695
SWIDTH 653 0
DWIDTH 18 0
BBX 18 11 0 7
BITMAP
F9E3C0
70C180
30E100
30E100
18E300
18B200
1D3200
0D3C00
0D1C00
061C00
060800
ENDCHAR
STARTCHAR uni02B8
ENCODING 696
SWIDTH 427 0
DWIDTH 12 0
BBX 12 16 0 2
BITMAP
F8F0
7060
3040
3840
1880
1880
0C80
0D00
0500
0600
0600
0600
0400
0C00
7800
7000
ENDCHAR
STARTCHAR uni02B9
ENCODING 697
SWIDTH 296 0
DWIDTH 8 0
BBX 4 9 2 11
BITMAP
30
30
30
60
60
40
C0
80
80
ENDCHAR
STARTCHAR uni02BA
ENCODING 698
SWIDTH 456 0
DWIDTH 13 0
BBX 9 9 2 11
BITMAP
3180
3380
3300
6300
6600
4600
C400
8400
8C00
ENDCHAR
STARTCHAR uni02BB
ENCODING 699
SWIDTH 245 0
DWIDTH 7 0
BBX 4 7 2 13
BITMAP
20
40
80
80
E0
F0
E0
ENDCHAR
STARTCHAR uni02BC
ENCODING 700
SWIDTH 244 0
DWIDTH 7 0
BBX 4 7 1 13
BITMAP
70
F0
70
10
30
20
C0
ENDCHAR
STARTCHAR uni02BD
ENCODING 701
SWIDTH 244 0
DWIDTH 7 0
BBX 3 7 2 13
BITMAP
E0
E0
E0
80
80
40
20
ENDCHAR
STARTCHAR uni02BE
ENCODING 702
SWIDTH 203 0
DWIDTH 6 0
BBX 4 6 1 14
BITMAP
E0
30
30
30
30
E0
ENDCHAR
STARTCHAR uni02BF
ENCODING 703
SWIDTH 203 0
DWIDTH 6 0
BBX 4 6 1 14
BITMAP
70
C0
80
80
C0
70
ENDCHAR
STARTCHAR uni02C0
ENCODING 704
SWIDTH 364 0
DWIDTH 10 0
BBX 8 10 1 10
BITMAP
3C
E6
C3
03
03
03
06
38
30
30
ENDCHAR
STARTCHAR uni02C1
ENCODING 705
SWIDTH 364 0
DWIDTH 10 0
BBX 8 10 1 10
BITMAP
3E
67
C3
C0
C0
E0
70
1C
0C
0C
ENDCHAR
STARTCHAR uni02C2
ENCODING 706
SWIDTH 324 0
DWIDTH 9 0
BBX 7 9 1 12
BITMAP
06
0E
38
60
E0
30
1C
06
02
ENDCHAR
STARTCHAR uni02C3
ENCODING 707
SWIDTH 324 0
DWIDTH 9 0
BBX 7 9 1 12
BITMAP
C0
E0
38
0E
0E
1C
70
C0
80
ENDCHAR
STARTCHAR uni02C4
ENCODING 708
SWIDTH 324 0
DWIDTH 9 0
BBX 9 7 0 14
BITMAP
0800
1C00
1400
3600
6300
6100
C180
ENDCHAR
STARTCHAR uni02C5
ENCODING 709
SWIDTH 324 0
DWIDTH 9 0
BBX 9 7 0 14
BITMAP
C180
6100
6300
3600
1400
1C00
0800
ENDCHAR
STARTCHAR circumflex
ENCODING 710
SWIDTH 342 0
DWIDTH 10 0
BBX 8 5 1 15
BITMAP
18
38
6C
46
83
ENDCHAR
STARTCHAR caron
ENCODING 711
SWIDTH 342 0
DWIDTH 10 0
BBX 8 5 1 15
BITMAP
81
42
64
3C
18
ENDCHAR
STARTCHAR uni02C8
ENCODING 712
SWIDTH 284 0
DWIDTH 8 0
BBX 2 8 3 13
BITMAP
C0
C0
C0
C0
C0
C0
C0
C0
ENDCHAR
STARTCHAR uni02C9
ENCODING 713
SWIDTH 350 0
DWIDTH 10 0
BBX 8 1 1 16
BITMAP
FF
ENDCHAR
STARTCHAR uni02CA
ENCODING 714
SWIDTH 222 0
DWIDTH 6 0
BBX 4 5 1 15
BITMAP
30
70
60
C0
80
ENDCHAR
STARTCHAR uni02CB
ENCODING 715
SWIDTH 222 0
DWIDTH 6 0
BBX 4 5 1 15
BITMAP
C0
E0
60
30
10
ENDCHAR
STARTCHAR uni02CC
ENCODING 716
SWIDTH 284 0
DWIDTH 8 0
BBX 2 8 3 -6
BITMAP
C0
C0
C0
C0
C0
C0
C0
C0
ENDCHAR
STARTCHAR uni02CD
ENCODING 717
SWIDTH 342 0
DWIDTH 10 0
BBX 9 1 0 -4
BITMAP
FF80
ENDCHAR
STARTCHAR uni02CE
ENCODING 718
SWIDTH 222 0
DWIDTH 6 0
BBX 4 5 1 -5
BITMAP
C0
E0
60
30
10
ENDCHAR
STARTCHAR uni02CF
ENCODING 719
SWIDTH 223 0
DWIDTH 6 0
BBX 4 5 1 -5
BITMAP
30
70
60
C0
80
ENDCHAR
STARTCHAR uni02D0
ENCODING 720
SWIDTH 341 0
DWIDTH 10 0
BBX 4 13 3 1
BITMAP
F0
F0
E0
60
60
00
00
00
60
60
E0
F0
F0
ENDCHAR
STARTCHAR uni02D1
ENCODING 721
SWIDTH 341 0
DWIDTH 10 0
BBX 4 5 3 9
BITMAP
F0
F0
E0
60
60
ENDCHAR
STARTCHAR uni02D2
ENCODING 722
SWIDTH 341 0
DWIDTH 10 0
BBX 6 8 2 3
BITMAP
E0
18
08
0C
0C
08
18
F0
ENDCHAR
STARTCHAR uni02D3
ENCODING 723
SWIDTH 341 0
DWIDTH 10 0
BBX 6 8 2 3
BITMAP
3C
60
C0
C0
C0
C0
60
3C
ENDCHAR
STARTCHAR uni02D4
ENCODING 724
SWIDTH 341 0
DWIDTH 10 0
BBX 7 5 1 5
BITMAP
10
10
10
10
FE
ENDCHAR
STARTCHAR uni02D5
ENCODING 725
SWIDTH 341 0
DWIDTH 10 0
BBX 7 6 1 4
BITMAP
FE
10
10
10
10
10
ENDCHAR
STARTCHAR uni02D6
ENCODING 726
SWIDTH 341 0
DWIDTH 10 0
BBX 6 6 2 5
BITMAP
20
20
20
FC
20
20
ENDCHAR
STARTCHAR uni02D7
ENCODING 727
SWIDTH 341 0
DWIDTH 10 0
BBX 6 1 2 7
BITMAP
FC
ENDCHAR
STARTCHAR breve
ENCODING 728
SWIDTH 353 0
DWIDTH 10 0
BBX 8 5 1 15
BITMAP
81
81
C3
7E
3C
ENDCHAR
STARTCHAR dotaccent
ENCODING 729
SWIDTH 194 0
DWIDTH 5 0
BBX 3 3 1 16
BITMAP
E0
E0
60
ENDCHAR
STARTCHAR ring
ENCODING 730
SWIDTH 265 0
DWIDTH 7 0
BBX 6 6 1 15
BITMAP
70
C8
8C
8C
88
78
ENDCHAR
STARTCHAR ogonek
ENCODING 731
SWIDTH 277 0
DWIDTH 8 0
BBX 6 6 1 -6
BITMAP
30
40
C0
C0
C4
F8
ENDCHAR
STARTCHAR tilde
ENCODING 732
SWIDTH 381 0
DWIDTH 11 0
BBX 9 3 1 16
BITMAP
7080
FD00
8F00
ENDCHAR
STARTCHAR hungarumlaut
ENCODING 733
SWIDTH 350 0
DWIDTH 10 0
BBX 8 4 1 15
BITMAP
77
66
4C
88
ENDCHAR
STARTCHAR uni02DE
ENCODING 734
SWIDTH 205 0
DWIDTH 6 0
BBX 6 4 -1 7
BITMAP
20
64
A4
3C
ENDCHAR
STARTCHAR uni02DF
ENCODING 735
SWIDTH 302 0
DWIDTH 8 0
BBX 7 7 1 14
BITMAP
84
CE
68
30
38
4C
C6
ENDCHAR
STARTCHAR uni02E0
ENCODING 736
SWIDTH 413 0
DWIDTH 12 0
BBX 12 16 0 2
BITMAP
F8F0
7040
3040
3080
1880
1880
1D00
0D00
0E00
0600
0600
0B00
0B00
0B00
0B00
0E00
ENDCHAR
STARTCHAR uni02E1
ENCODING 737
SWIDTH 244 0
DWIDTH 7 0
BBX 5 15 1 7
BITMAP
E0
60
60
60
60
60
60
60
60
60
60
60
60
70
F8
ENDCHAR
STARTCHAR uni02E2
ENCODING 738
SWIDTH 337 0
DWIDTH 9 0
BBX 8 11 1 7
BITMAP
7E
C6
C2
E2
F0
7C
1E
87
83
C6
FC
ENDCHAR
STARTCHAR uni02E3
ENCODING 739
SWIDTH 445 0
DWIDTH 12 0
BBX 11 11 1 7
BITMAP
F9C0
7080
3100
1A00
1E00
0C00
0E00
1300
2380
61C0
F3E0
ENDCHAR
STARTCHAR uni02E4
ENCODING 740
SWIDTH 364 0
DWIDTH 10 0
BBX 9 15 1 7
BITMAP
1F00
6380
6180
C000
C000
C000
6000
7000
1E00
0600
0600
0600
0600
0600
1F80
ENDCHAR
STARTCHAR uni02E5
ENCODING 741
SWIDTH 423 0
DWIDTH 12 0
BBX 10 19 1 0
BITMAP
FFC0
00C0
00C0
00C0
00C0
00C0
00C0
00C0
00C0
00C0
00C0
00C0
00C0
00C0
00C0
00C0
00C0
00C0
00C0
ENDCHAR
STARTCHAR uni02E6
ENCODING 742
SWIDTH 414 0
DWIDTH 12 0
BBX 9 20 1 0
BITMAP
0080
0080
0080
0080
0080
0080
FF80
0080
0080
0080
0080
0080
0080
0080
0080
0080
0080
0080
0080
0080
ENDCHAR
STARTCHAR uni02E7
ENCODING 743
SWIDTH 414 0
DWIDTH 12 0
BBX 9 19 1 0
BITMAP
0080
0080
0080
0080
0080
0080
0080
0080
0080
FF80
0080
0080
0080
0080
0080
0080
0080
0080
0080
ENDCHAR
STARTCHAR uni02E8
ENCODING 744
SWIDTH 414 0
DWIDTH 12 0
BBX 9 20 1 0
BITMAP
0080
0080
0080
0080
0080
0080
0080
0080
0080
0080
0080
0080
0080
FF80
0080
0080
0080
0080
0080
0080
ENDCHAR
STARTCHAR uni02E9
ENCODING 745
SWIDTH 414 0
DWIDTH 12 0
BBX 9 19 1 0
BITMAP
0080
0080
0080
0080
0080
0080
0080
0080
0080
0080
0080
0080
0080
0080
0080
0080
0080
0080
FF80
ENDCHAR
STARTCHAR uni02EC
ENCODING 748
SWIDTH 341 0
DWIDTH 10 0
BBX 8 7 1 -4
BITMAP
C3
C6
66
6C
3C
38
10
ENDCHAR
STARTCHAR uni02ED
ENCODING 749
SWIDTH 380 0
DWIDTH 11 0
BBX 9 5 1 16
BITMAP
FF80
0000
0000
0000
FF80
ENDCHAR
STARTCHAR uni02F7
ENCODING 759
SWIDTH 381 0
DWIDTH 11 0
BBX 9 3 1 -4
BITMAP
7080
FD00
8F00
ENDCHAR
STARTCHAR uni0300
ENCODING 768
SWIDTH 0 0
DWIDTH 0 0
BBX 4 5 -9 15
BITMAP
C0
E0
60
20
10
ENDCHAR
STARTCHAR uni0301
ENCODING 769
SWIDTH 0 0
DWIDTH 0 0
BBX 5 5 -8 15
BITMAP
38
30
60
40
C0
ENDCHAR
STARTCHAR uni0302
ENCODING 770
SWIDTH 0 0
DWIDTH 0 0
BBX 8 5 -10 15
BITMAP
10
38
6C
46
83
ENDCHAR
STARTCHAR uni0303
ENCODING 771
SWIDTH 0 0
DWIDTH 0 0
BBX 9 3 -11 16
BITMAP
3880
7C80
8F00
ENDCHAR
STARTCHAR uni0304
ENCODING 772
SWIDTH 0 0
DWIDTH 0 0
BBX 9 1 -11 16
BITMAP
FF80
ENDCHAR
STARTCHAR uni0305
ENCODING 773
SWIDTH 0 0
DWIDTH 0 0
BBX 11 1 -11 16
BITMAP
FFE0
ENDCHAR
STARTCHAR uni0306
ENCODING 774
SWIDTH 0 0
DWIDTH 0 0
BBX 9 5 -11 15
BITMAP
8080
4180
4100
7F00
3E00
ENDCHAR
STARTCHAR uni0307
ENCODING 775
SWIDTH 0 0
DWIDTH 0 0
BBX 3 3 -8 16
BITMAP
E0
E0
E0
ENDCHAR
STARTCHAR uni0308
ENCODING 776
SWIDTH 0 0
DWIDTH 0 0
BBX 9 3 -11 16
BITMAP
E380
E380
E380
ENDCHAR
STARTCHAR uni0309
ENCODING 777
SWIDTH 0 0
DWIDTH 0 0
BBX 6 6 -9 15
BITMAP
78
C8
4C
08
18
20
ENDCHAR
STARTCHAR uni030A
ENCODING 778
SWIDTH 0 0
DWIDTH 0 0
BBX 5 6 -9 15
BITMAP
70
C8
88
88
88
70
ENDCHAR
STARTCHAR uni030B
ENCODING 779
SWIDTH 0 0
DWIDTH 0 0
BBX 8 4 -9 15
BITMAP
77
66
4C
88
ENDCHAR
STARTCHAR uni030C
ENCODING 780
SWIDTH 0 0
DWIDTH 0 0
BBX 8 5 -10 15
BITMAP
83
C6
6C
3C
38
ENDCHAR
STARTCHAR uni030D
ENCODING 781
SWIDTH 0 0
DWIDTH 0 0
BBX 1 6 -7 15
BITMAP
80
80
80
80
80
80
ENDCHAR
STARTCHAR uni030E
ENCODING 782
SWIDTH 0 0
DWIDTH 0 0
BBX 5 6 -9 15
BITMAP
88
88
88
88
88
88
ENDCHAR
STARTCHAR uni030F
ENCODING 783
SWIDTH 0 0
DWIDTH 0 0
BBX 8 4 -12 15
BITMAP
EE
66
33
11
ENDCHAR
STARTCHAR uni0310
ENCODING 784
SWIDTH 0 0
DWIDTH 0 0
BBX 9 6 -11 15
BITMAP
1C00
1C00
DC80
4100
7F00
3E00
ENDCHAR
STARTCHAR uni0311
ENCODING 785
SWIDTH 0 0
DWIDTH 0 0
BBX 8 5 -10 15
BITMAP
38
FC
C6
82
81
ENDCHAR
STARTCHAR uni0312
ENCODING 786
SWIDTH 0 0
DWIDTH 0 0
BBX 3 6 -8 15
BITMAP
60
C0
80
E0
E0
E0
ENDCHAR
STARTCHAR uni0313
ENCODING 787
SWIDTH 0 0
DWIDTH 0 0
BBX 3 6 -8 15
BITMAP
E0
E0
E0
20
60
C0
ENDCHAR
STARTCHAR uni0314
ENCODING 788
SWIDTH 0 0
DWIDTH 0 0
BBX 3 6 -8 15
BITMAP
E0
E0
E0
80
C0
60
ENDCHAR
STARTCHAR uni0315
ENCODING 789
SWIDTH 0 0
DWIDTH 0 0
BBX 3 6 -7 14
BITMAP
E0
E0
C0
C0
C0
80
ENDCHAR
STARTCHAR uni0316
ENCODING 790
SWIDTH 0 0
DWIDTH 0 0
BBX 4 5 -9 -6
BITMAP
C0
E0
60
20
10
ENDCHAR
STARTCHAR uni0317
ENCODING 791
SWIDTH 0 0
DWIDTH 0 0
BBX 5 5 -8 -6
BITMAP
38
38
70
60
C0
ENDCHAR
STARTCHAR uni0318
ENCODING 792
SWIDTH 0 0
DWIDTH 0 0
BBX 4 6 -8 -7
BITMAP
30
30
30
F0
30
30
ENDCHAR
STARTCHAR uni0319
ENCODING 793
SWIDTH 0 0
DWIDTH 0 0
BBX 4 6 -8 -7
BITMAP
80
80
80
F0
80
80
ENDCHAR
STARTCHAR uni031A
ENCODING 794
SWIDTH 0 0
DWIDTH 0 0
BBX 6 5 -9 15
BITMAP
FC
0C
0C
0C
0C
ENDCHAR
STARTCHAR uni031B
ENCODING 795
SWIDTH 0 0
DWIDTH 0 0
BBX 5 5 -5 13
BITMAP
30
38
18
10
F0
ENDCHAR
STARTCHAR uni031C
ENCODING 796
SWIDTH 0 0
DWIDTH 0 0
BBX 4 6 -9 -7
BITMAP
30
40
C0
C0
40
70
ENDCHAR
STARTCHAR uni031D
ENCODING 797
SWIDTH 0 0
DWIDTH 0 0
BBX 5 4 -9 -6
BITMAP
20
20
20
F8
ENDCHAR
STARTCHAR uni031E
ENCODING 798
SWIDTH 0 0
DWIDTH 0 0
BBX 5 4 -9 -6
BITMAP
F8
20
20
20
ENDCHAR
STARTCHAR uni031F
ENCODING 799
SWIDTH 0 0
DWIDTH 0 0
BBX 5 6 -9 -7
BITMAP
20
20
20
F8
20
20
ENDCHAR
STARTCHAR uni0320
ENCODING 800
SWIDTH 0 0
DWIDTH 0 0
BBX 5 1 -9 -5
BITMAP
F8
ENDCHAR
STARTCHAR uni0321
ENCODING 801
SWIDTH 0 0
DWIDTH 0 0
BBX 8 8 -12 -7
BITMAP
07
07
07
07
06
C6
E6
7C
ENDCHAR
STARTCHAR uni0322
ENCODING 802
SWIDTH 0 0
DWIDTH 0 0
BBX 8 8 -7 -7
BITMAP
E0
E0
E0
60
60
63
27
1F
ENDCHAR
STARTCHAR uni0323
ENCODING 803
SWIDTH 0 0
DWIDTH 0 0
BBX 3 3 -8 -5
BITMAP
E0
E0
E0
ENDCHAR
STARTCHAR uni0324
ENCODING 804
SWIDTH 0 0
DWIDTH 0 0
BBX 9 3 -11 -5
BITMAP
E380
E380
E380
ENDCHAR
STARTCHAR uni0325
ENCODING 805
SWIDTH 0 0
DWIDTH 0 0
BBX 5 6 -9 -7
BITMAP
70
C8
88
88
88
70
ENDCHAR
STARTCHAR uni0326
ENCODING 806
SWIDTH 0 0
DWIDTH 0 0
BBX 3 6 -8 -8
BITMAP
E0
E0
E0
20
20
C0
ENDCHAR
STARTCHAR uni0327
ENCODING 807
SWIDTH 0 0
DWIDTH 0 0
BBX 5 6 -9 -6
BITMAP
20
40
78
08
08
F8
ENDCHAR
STARTCHAR uni0328
ENCODING 808
SWIDTH 0 0
DWIDTH 0 0
BBX 6 6 -9 -6
BITMAP
30
40
C0
C0
C4
F8
ENDCHAR
STARTCHAR uni0329
ENCODING 809
SWIDTH 0 0
DWIDTH 0 0
BBX 1 5 -7 -7
BITMAP
80
80
80
80
80
ENDCHAR
STARTCHAR uni032A
ENCODING 810
SWIDTH 0 0
DWIDTH 0 0
BBX 7 4 -10 -6
BITMAP
FE
82
82
82
ENDCHAR
STARTCHAR uni032B
ENCODING 811
SWIDTH 0 0
DWIDTH 0 0
BBX 9 3 -11 -5
BITMAP
8880
C880
7700
ENDCHAR
STARTCHAR uni032C
ENCODING 812
SWIDTH 0 0
DWIDTH 0 0
BBX 8 5 -10 -6
BITMAP
83
C6
6C
3C
38
ENDCHAR
STARTCHAR uni032D
ENCODING 813
SWIDTH 0 0
DWIDTH 0 0
BBX 8 5 -10 -6
BITMAP
10
38
6C
46
83
ENDCHAR
STARTCHAR uni032E
ENCODING 814
SWIDTH 0 0
DWIDTH 0 0
BBX 9 5 -11 -6
BITMAP
8080
4180
4100
7F00
3E00
ENDCHAR
STARTCHAR uni032F
ENCODING 815
SWIDTH 0 0
DWIDTH 0 0
BBX 9 4 -11 -5
BITMAP
1C00
7F00
4100
C180
ENDCHAR
STARTCHAR uni0330
ENCODING 816
SWIDTH 0 0
DWIDTH 0 0
BBX 9 3 -11 -4
BITMAP
7080
FD00
8F00
ENDCHAR
STARTCHAR uni0331
ENCODING 817
SWIDTH 0 0
DWIDTH 0 0
BBX 9 1 -11 -4
BITMAP
FF80
ENDCHAR
STARTCHAR uni0332
ENCODING 818
SWIDTH 0 0
DWIDTH 0 0
BBX 15 1 -14 -4
BITMAP
FFFE
ENDCHAR
STARTCHAR uni0333
ENCODING 819
SWIDTH 0 0
DWIDTH 0 0
BBX 15 4 -14 -7
BITMAP
FFFE
0000
0000
FFFE
ENDCHAR
STARTCHAR uni0334
ENCODING 820
SWIDTH 0 0
DWIDTH 0 0
BBX 9 3 -11 6
BITMAP
7080
FC80
8F00
ENDCHAR
STARTCHAR uni0335
ENCODING 821
SWIDTH 0 0
DWIDTH 0 0
BBX 9 1 -11 7
BITMAP
FF80
ENDCHAR
STARTCHAR uni0336
ENCODING 822
SWIDTH 0 0
DWIDTH 0 0
BBX 15 1 -14 7
BITMAP
FFFE
ENDCHAR
STARTCHAR uni0337
ENCODING 823
SWIDTH 0 0
DWIDTH 0 0
BBX 7 6 -10 7
BITMAP
06
0C
18
60
C0
80
ENDCHAR
STARTCHAR uni0338
ENCODING 824
SWIDTH 0 0
DWIDTH 0 0
BBX 12 24 -12 -5
BITMAP
0030
0020
0060
0040
00C0
0080
0180
0180
0100
0300
0200
0600
0400
0C00
0C00
0800
1800
1000
3000
2000
6000
6000
4000
C000
ENDCHAR
STARTCHAR uni0339
ENCODING 825
SWIDTH 0 0
DWIDTH 0 0
BBX 4 6 -8 -7
BITMAP
C0
20
30
30
20
E0
ENDCHAR
STARTCHAR uni033A
ENCODING 826
SWIDTH 0 0
DWIDTH 0 0
BBX 7 3 -10 -5
BITMAP
82
82
FE
ENDCHAR
STARTCHAR uni033B
ENCODING 827
SWIDTH 0 0
DWIDTH 0 0
BBX 5 5 -9 -7
BITMAP
F8
88
88
88
F8
ENDCHAR
STARTCHAR uni033C
ENCODING 828
SWIDTH 0 0
DWIDTH 0 0
BBX 9 3 -11 -5
BITMAP
F780
9C80
0800
ENDCHAR
STARTCHAR uni033D
ENCODING 829
SWIDTH 0 0
DWIDTH 0 0
BBX 5 6 -9 15
BITMAP
88
D8
70
70
58
88
ENDCHAR
STARTCHAR uni033E
ENCODING 830
SWIDTH 0 0
DWIDTH 0 0
BBX 3 10 -8 14
BITMAP
20
40
C0
C0
C0
60
60
60
40
80
ENDCHAR
STARTCHAR uni033F
ENCODING 831
SWIDTH 0 0
DWIDTH 0 0
BBX 11 4 -12 15
BITMAP
FFE0
0000
0000
FFE0
ENDCHAR
STARTCHAR uni0346
ENCODING 838
SWIDTH 0 0
DWIDTH 0 0
BBX 9 4 -11 15
BITMAP
FF80
C180
C180
C180
ENDCHAR
STARTCHAR uni0347
ENCODING 839
SWIDTH 0 0
DWIDTH 0 0
BBX 9 4 -11 -6
BITMAP
FF80
0000
0000
FF80
ENDCHAR
STARTCHAR uni034C
ENCODING 844
SWIDTH 0 0
DWIDTH 0 0
BBX 9 7 -11 16
BITMAP
3080
7C80
8F00
0000
3880
7C80
8F00
ENDCHAR
STARTCHAR uni034D
ENCODING 845
SWIDTH 0 0
DWIDTH 0 0
BBX 13 5 -13 -7
BITMAP
3060
6030
FFF8
6030
3060
ENDCHAR
STARTCHAR uni0359
ENCODING 857
SWIDTH 0 0
DWIDTH 0 0
BBX 9 9 -11 -11
BITMAP
0800
4900
EB80
1C00
1C00
EB80
4900
0800
0800
ENDCHAR
STARTCHAR uni035C
ENCODING 860
SWIDTH 0 0
DWIDTH 0 0
BBX 20 5 -10 -7
BITMAP
800010
400020
7000E0
3FFFC0
0FFE00
ENDCHAR
STARTCHAR uni0360
ENCODING 864
SWIDTH 0 0
DWIDTH 0 0
BBX 14 3 -7 16
BITMAP
3C04
C704
81F8
ENDCHAR
STARTCHAR uni0361
ENCODING 865
SWIDTH 0 0
DWIDTH 0 0
BBX 14 4 -7 16
BITMAP
0FC0
7FF0
6018
C00C
ENDCHAR
STARTCHAR uni0362
ENCODING 866
SWIDTH 0 0
DWIDTH 0 0
BBX 21 5 -10 -7
BITMAP
000040
000020
FFFFF8
000030
000060
ENDCHAR
STARTCHAR uni037E
ENCODING 894
SWIDTH 261 0
DWIDTH 7 0
BBX 4 18 2 -4
BITMAP
E0
E0
E0
00
00
00
00
00
00
00
00
E0
F0
F0
30
20
60
80
ENDCHAR
STARTCHAR tonos
ENCODING 900
SWIDTH 165 0
DWIDTH 5 0
BBX 3 5 1 15
BITMAP
E0
C0
C0
C0
80
ENDCHAR
STARTCHAR dieresistonos
ENCODING 901
SWIDTH 426 0
DWIDTH 12 0
BBX 10 5 1 15
BITMAP
0E00
0C00
EDC0
EDC0
0800
ENDCHAR
STARTCHAR Alphatonos
ENCODING 902
SWIDTH 718 0
DWIDTH 20 0
BBX 20 19 0 0
BITMAP
306000
306000
30F000
60F000
61B000
01B800
013800
031C00
021C00
061E00
060E00
040E00
0FFF00
080700
180780
180380
3003C0
3003E0
FC0FF0
ENDCHAR
STARTCHAR anoteleia
ENCODING 903
SWIDTH 261 0
DWIDTH 7 0
BBX 3 3 2 11
BITMAP
E0
E0
E0
ENDCHAR
STARTCHAR Epsilontonos
ENCODING 904
SWIDTH 745 0
DWIDTH 21 0
BBX 20 19 0 0
BITMAP
EFFFE0
C1C0E0
C1C020
81C020
81C000
01C080
01C080
01C080
01C180
01FF80
01C180
01C080
01C000
01C010
01C010
01C030
01C030
01C0F0
0FFFE0
ENDCHAR
STARTCHAR Etatonos
ENCODING 905
SWIDTH 896 0
DWIDTH 25 0
BBX 24 19 0 0
BITMAP
EFF0FF
C3C03C
C1C018
81C018
81C018
01C018
01C018
01C018
01C018
01FFF8
01C018
01C018
01C018
01C018
01C018
01C018
01C018
01C03C
0FF0FF
ENDCHAR
STARTCHAR Iotatonos
ENCODING 906
SWIDTH 478 0
DWIDTH 13 0
BBX 12 19 0 0
BITMAP
EFF0
C3C0
C1C0
81C0
81C0
01C0
01C0
01C0
01C0
01C0
01C0
01C0
01C0
01C0
01C0
01C0
01C0
03C0
0FF0
ENDCHAR
STARTCHAR Omicrontonos
ENCODING 908
SWIDTH 806 0
DWIDTH 23 0
BBX 21 19 0 0
BITMAP
E07F00
C1C3C0
C380E0
870070
8E0070
0E0038
0E0038
1C0038
1C0038
1C0038
1C0038
1C0038
0E0038
0E0030
0E0070
070060
0380E0
01C180
007F00
ENDCHAR
STARTCHAR Upsilontonos
ENCODING 910
SWIDTH 787 0
DWIDTH 22 0
BBX 23 19 -1 0
BITMAP
E7F07E
E3E018
C1E010
C0E030
807020
007060
0038C0
001C80
001D80
000F00
000F00
000600
000600
000600
000600
000600
000600
000F00
003FC0
ENDCHAR
STARTCHAR Omegatonos
ENCODING 911
SWIDTH 830 0
DWIDTH 23 0
BBX 22 19 0 0
BITMAP
E07F00
C1C1C0
C380E0
870070
8E0070
0E0038
0E0038
0E0038
0E0038
0E0038
0E0038
0E0070
070070
070060
1380C4
118184
18431C
1FE3FC
1FE3F8
ENDCHAR
STARTCHAR iotadieresistonos
ENCODING 912
SWIDTH 259 0
DWIDTH 7 0
BBX 11 21 -2 0
BITMAP
0600
0600
6EC0
ECE0
0C00
0000
0000
0E00
0C00
0C00
0C00
0C00
0C00
0C00
0C00
0C00
0C00
0C00
0C80
0F80
0700
ENDCHAR
STARTCHAR Alpha
ENCODING 913
SWIDTH 718 0
DWIDTH 20 0
BBX 20 19 0 0
BITMAP
006000
006000
00F000
00F000
01B000
01B800
013800
031C00
021C00
061E00
060E00
040E00
0FFF00
080700
180780
180380
3003C0
3003E0
FC0FF0
ENDCHAR
STARTCHAR Beta
ENCODING 914
SWIDTH 618 0
DWIDTH 17 0
BBX 15 19 1 0
BITMAP
FFE0
3878
181C
181C
180C
180C
181C
1818
1820
1FF0
183C
181E
180E
180E
180E
180E
180E
383C
FFF0
ENDCHAR
STARTCHAR Gamma
ENCODING 915
SWIDTH 569 0
DWIDTH 16 0
BBX 14 19 1 0
BITMAP
FFFC
381C
1804
1804
1804
1800
1800
1800
1800
1800
1800
1800
1800
1800
1800
1800
1800
3C00
FF00
ENDCHAR
STARTCHAR Delta
ENCODING 916
SWIDTH 667 0
DWIDTH 19 0
BBX 17 19 1 0
BITMAP
008000
01C000
01C000
03C000
02E000
066000
047000
047000
0C3800
083800
183800
101C00
301C00
200E00
600E00
600E00
400700
FFFF00
FFFF80
ENDCHAR
STARTCHAR Epsilon
ENCODING 917
SWIDTH 626 0
DWIDTH 18 0
BBX 16 19 1 0
BITMAP
FFFE
380E
1806
1802
1800
1808
1808
1818
1818
1FF8
1818
1808
1800
1801
1803
1802
1806
380E
FFFE
ENDCHAR
STARTCHAR Zeta
ENCODING 918
SWIDTH 594 0
DWIDTH 17 0
BBX 15 19 1 0
BITMAP
7FFE
701C
4038
4038
4070
00F0
00E0
01C0
03C0
0380
0700
0F00
0E00
1C00
3C02
3806
7004
F00C
FFFC
ENDCHAR
STARTCHAR Eta
ENCODING 919
SWIDTH 777 0
DWIDTH 22 0
BBX 20 19 1 0
BITMAP
FF0FF0
3C03C0
180380
180380
180380
180380
180380
180380
180380
1FFF80
180380
180380
180380
180380
180380
180380
180380
3C03C0
FF0FF0
ENDCHAR
STARTCHAR Theta
ENCODING 920
SWIDTH 738 0
DWIDTH 21 0
BBX 18 19 1 0
BITMAP
03F800
0E0E00
1C0700
380380
700380
7001C0
7001C0
7209C0
E3F9C0
E3F9C0
E319C0
7209C0
7001C0
7001C0
700380
380380
1C0700
0E0E00
03F800
ENDCHAR
STARTCHAR Iota
ENCODING 921
SWIDTH 357 0
DWIDTH 10 0
BBX 8 19 1 0
BITMAP
FF
3C
18
18
18
18
18
18
18
18
18
18
18
18
18
18
18
3C
FF
ENDCHAR
STARTCHAR Kappa
ENCODING 922
SWIDTH 702 0
DWIDTH 20 0
BBX 18 19 1 0
BITMAP
FF3F80
3C0F00
180C00
181800
183000
186000
18C000
198000
1B0000
1F0000
1B8000
19C000
18E000
187000
183800
181C00
180E00
3C0F80
FF3FC0
ENDCHAR
STARTCHAR Lambda
ENCODING 923
SWIDTH 710 0
DWIDTH 20 0
BBX 20 19 0 0
BITMAP
006000
006000
00E000
00F000
01F000
013800
013800
031800
021C00
061C00
040E00
040E00
0C0700
080700
180700
180380
300380
3003C0
FC0FF0
ENDCHAR
STARTCHAR Mu
ENCODING 924
SWIDTH 895 0
DWIDTH 25 0
BBX 23 19 1 0
BITMAP
FC007E
3C0078
3E00F0
3E00F0
3E00B0
3701B0
370130
338330
338330
318230
31C630
31C430
30EC30
30EC30
307830
307830
307030
303078
FC21FE
ENDCHAR
STARTCHAR Nu
ENCODING 925
SWIDTH 742 0
DWIDTH 21 0
BBX 19 19 1 0
BITMAP
F80FE0
7C0380
3C0180
3E0180
3F0180
378100
338100
31C100
31E100
30F100
307100
303900
301D00
301F00
300F00
300700
300300
380300
FC0100
ENDCHAR
STARTCHAR Xi
ENCODING 926
SWIDTH 648 0
DWIDTH 18 0
BBX 16 19 1 0
BITMAP
7FFE
7FFE
7006
4002
4002
0000
1008
1818
1FF8
1FF8
1C38
1008
1008
0000
8001
C001
FFFF
7FFF
7FFF
ENDCHAR
STARTCHAR Omicron
ENCODING 927
SWIDTH 738 0
DWIDTH 21 0
BBX 18 19 1 0
BITMAP
03F800
0E1E00
1C0700
380380
700380
7001C0
7001C0
6001C0
E001C0
E001C0
E001C0
6001C0
7001C0
7001C0
700380
380380
1C0700
0E0E00
03F800
ENDCHAR
STARTCHAR Pi
ENCODING 928
SWIDTH 759 0
DWIDTH 21 0
BBX 19 19 1 0
BITMAP
FFFFE0
380380
180380
180380
180380
180380
180380
180380
180380
180380
180380
180380
180380
180380
180380
180380
180380
3C0380
FF1FE0
ENDCHAR
STARTCHAR Rho
ENCODING 929
SWIDTH 569 0
DWIDTH 16 0
BBX 14 19 1 0
BITMAP
FFE0
3878
181C
181C
181C
181C
181C
181C
1818
1830
1FE0
1800
1800
1800
1800
1800
1800
3C00
FF00
ENDCHAR
STARTCHAR Sigma
ENCODING 931
SWIDTH 604 0
DWIDTH 17 0
BBX 15 19 1 0
BITMAP
FFFC
700C
7804
3C04
1C04
0E00
0700
0780
0380
0100
0300
0600
0C00
0802
1802
3006
601E
FFFC
FFFC
ENDCHAR
STARTCHAR Tau
ENCODING 932
SWIDTH 603 0
DWIDTH 17 0
BBX 16 19 0 0
BITMAP
7FFF
61C3
41C1
41C1
81C1
01C0
01C0
01C0
01C0
01C0
01C0
01C0
01C0
01C0
01C0
01C0
01C0
03C0
0FF8
ENDCHAR
STARTCHAR Upsilon
ENCODING 933
SWIDTH 647 0
DWIDTH 18 0
BBX 18 19 0 0
BITMAP
FE0FC0
7C0380
3C0200
1C0600
0E0400
0F0C00
070800
039000
03B000
01E000
00E000
00C000
00C000
00C000
00C000
00C000
00E000
01E000
07F800
ENDCHAR
STARTCHAR Phi
ENCODING 934
SWIDTH 718 0
DWIDTH 20 0
BBX 18 19 1 0
BITMAP
07F800
01E000
00C000
0FFC00
3CCF00
70C380
E0C1C0
E0C1C0
E0C1C0
E0C1C0
E0C1C0
E0C1C0
70C380
38C700
1FFC00
00C000
00C000
01E000
07F800
ENDCHAR
STARTCHAR Chi
ENCODING 935
SWIDTH 664 0
DWIDTH 19 0
BBX 18 19 0 0
BITMAP
FF0FC0
3E0700
1E0600
0E0400
070C00
071800
039000
01E000
01E000
00E000
01F000
017000
023800
061C00
0C1C00
080E00
180F00
380F80
FC1FC0
ENDCHAR
STARTCHAR Psi
ENCODING 936
SWIDTH 720 0
DWIDTH 20 0
BBX 20 19 0 0
BITMAP
E3FC70
30F0E0
3060C0
3860C0
3860C0
3060C0
3060C0
3060C0
3860C0
3861C0
186180
0E6300
03FC00
006000
006000
006000
006000
00F000
03FC00
ENDCHAR
STARTCHAR Omega
ENCODING 937
SWIDTH 777 0
DWIDTH 22 0
BBX 19 19 1 0
BITMAP
01F800
060E00
1C0380
380180
3801C0
3001C0
7001C0
7000E0
7000E0
7001C0
3801C0
3801C0
380180
1C0380
8C0320
C60620
630C60
7F0FE0
7F0FE0
ENDCHAR
STARTCHAR Iotadieresis
ENCODING 938
SWIDTH 357 0
DWIDTH 10 0
BBX 10 23 0 0
BITMAP
6180
F1C0
6180
0000
7F80
1E00
0C00
0C00
0C00
0C00
0C00
0C00
0C00
0C00
0C00
0C00
0C00
0C00
0C00
0C00
0C00
1E00
7F80
ENDCHAR
STARTCHAR Upsilondieresis
ENCODING 939
SWIDTH 647 0
DWIDTH 18 0
BBX 18 23 0 0
BITMAP
071C00
071C00
071C00
000000
FE0FC0
7C0380
3C0200
1C0600
0E0400
0F0C00
070800
039000
03B000
01E000
00E000
00C000
00C000
00C000
00C000
00C000
00E000
01E000
07F800
ENDCHAR
STARTCHAR alphatonos
ENCODING 940
SWIDTH 561 0
DWIDTH 16 0
BBX 15 20 1 0
BITMAP
0380
0300
0300
0200
0200
0000
1F1C
3F98
7BB8
60B0
C070
8060
8040
8040
80C0
C0E0
C160
7776
7E7C
3C38
ENDCHAR
STARTCHAR epsilontonos
ENCODING 941
SWIDTH 381 0
DWIDTH 11 0
BBX 9 20 1 0
BITMAP
0700
0700
0600
0600
0400
0000
1F00
7F80
7B80
C000
4000
4000
3C00
6C00
4000
C000
C080
F780
7F80
3E00
ENDCHAR
STARTCHAR etatonos
ENCODING 942
SWIDTH 510 0
DWIDTH 14 0
BBX 12 26 0 -6
BITMAP
00C0
00C0
00C0
0180
0180
0000
70E0
F9F0
FBF0
9A30
1C10
1C10
1C10
1810
1810
1810
1810
1810
3810
3830
0030
0030
0030
0030
0030
0070
ENDCHAR
STARTCHAR iotatonos
ENCODING 943
SWIDTH 259 0
DWIDTH 7 0
BBX 5 20 2 0
BITMAP
70
60
60
40
40
00
E0
C0
C0
C0
C0
C0
C0
C0
C0
C0
C0
C8
F8
70
ENDCHAR
STARTCHAR upsilondieresistonos
ENCODING 944
SWIDTH 491 0
DWIDTH 14 0
BBX 12 21 0 0
BITMAP
0700
0700
7660
76E0
0400
0000
0000
70C0
F860
F830
9830
1830
1010
1010
3030
3030
3030
3070
1DE0
1FC0
0F80
ENDCHAR
STARTCHAR alpha
ENCODING 945
SWIDTH 561 0
DWIDTH 16 0
BBX 15 14 1 0
BITMAP
1F1C
3F98
7BB8
60B0
C070
8060
8040
8040
80C0
C0E0
C160
7776
7E7C
3C38
ENDCHAR
STARTCHAR beta
ENCODING 946
SWIDTH 530 0
DWIDTH 15 0
BBX 13 27 1 -6
BITMAP
03C0
0FE0
0EF0
1830
1010
3010
2030
2060
20C0
6780
6640
6020
6030
6010
6018
6018
6018
7038
7CF0
6FE0
67C0
6000
E000
E000
E000
E000
C000
ENDCHAR
STARTCHAR gamma
ENCODING 947
SWIDTH 466 0
DWIDTH 13 0
BBX 13 20 0 -6
BITMAP
7038
7870
F870
8C60
0CE0
0CC0
04C0
0580
0580
0500
0700
0600
0600
0600
0600
0E00
0E00
0C00
0C00
0C00
ENDCHAR
STARTCHAR delta
ENCODING 948
SWIDTH 479 0
DWIDTH 13 0
BBX 11 21 1 0
BITMAP
1F00
3FC0
31E0
3040
1800
0C00
0700
0380
1FC0
3EC0
60E0
4060
8060
8060
8060
8060
C060
C0E0
77C0
7F80
3F00
ENDCHAR
STARTCHAR epsilon
ENCODING 949
SWIDTH 381 0
DWIDTH 11 0
BBX 9 14 1 0
BITMAP
1F00
7F80
7B80
C000
4000
4000
3C00
6C00
4000
C000
C080
F780
7F80
3E00
ENDCHAR
STARTCHAR zeta
ENCODING 950
SWIDTH 386 0
DWIDTH 11 0
BBX 11 29 1 -8
BITMAP
0C00
1800
1840
19E0
1FE0
0780
0E00
1C00
3800
3000
6000
4000
C000
8000
8000
8000
8000
C000
E000
7E00
3F80
0FC0
00C0
0040
00C0
0080
1F00
1E00
1000
ENDCHAR
STARTCHAR eta
ENCODING 951
SWIDTH 510 0
DWIDTH 14 0
BBX 12 20 0 -6
BITMAP
70E0
F9F0
FBF0
9A30
1C10
1C10
1C10
1810
1810
1810
1810
1810
3810
3830
0030
0030
0030
0030
0030
0070
ENDCHAR
STARTCHAR theta
ENCODING 952
SWIDTH 514 0
DWIDTH 14 0
BBX 12 21 1 0
BITMAP
0F00
1FC0
3DC0
3060
6020
4030
4030
4030
C010
FFF0
FFF0
C010
C010
4030
4030
6030
6020
3060
3DC0
1FC0
0F00
ENDCHAR
STARTCHAR iota
ENCODING 953
SWIDTH 259 0
DWIDTH 7 0
BBX 5 14 2 0
BITMAP
E0
C0
C0
C0
C0
C0
C0
C0
C0
C0
C0
C8
F8
70
ENDCHAR
STARTCHAR kappa
ENCODING 954
SWIDTH 495 0
DWIDTH 14 0
BBX 14 14 0 0
BITMAP
7018
F878
F8F8
99E0
1980
1B00
1E00
1F00
1D00
1980
1980
18EC
18F8
1870
ENDCHAR
STARTCHAR lambda
ENCODING 955
SWIDTH 506 0
DWIDTH 14 0
BBX 15 21 0 0
BITMAP
0E00
1E00
1700
2300
0100
0100
0180
0180
0180
0380
0680
0680
0E80
0CC0
1CC0
18C0
38C0
3862
707C
707C
E038
ENDCHAR
STARTCHAR mu
ENCODING 956
SWIDTH 552 0
DWIDTH 15 0
BBX 15 20 1 -6
BITMAP
7070
7070
6060
6060
6060
6060
6060
6060
60E0
60E0
61E0
7366
5F3C
4E38
C000
C000
E000
E000
E000
C000
ENDCHAR
STARTCHAR nu
ENCODING 957
SWIDTH 453 0
DWIDTH 13 0
BBX 13 15 -1 -1
BITMAP
3830
7C38
7C18
8C18
0418
0438
0438
0430
0470
0460
04C0
05C0
0780
0700
0200
ENDCHAR
STARTCHAR xi
ENCODING 958
SWIDTH 390 0
DWIDTH 11 0
BBX 10 27 1 -6
BITMAP
3000
2000
61C0
37C0
0F00
3800
6000
6000
6000
2000
1F80
3F00
4000
C000
8000
8000
C000
F000
7F00
3F80
0FC0
00C0
0040
0040
1380
0F00
0E00
ENDCHAR
STARTCHAR omicron
ENCODING 959
SWIDTH 475 0
DWIDTH 13 0
BBX 11 14 1 0
BITMAP
0F00
3FC0
7BC0
6060
C060
8020
8020
8020
8020
C060
E060
7BC0
3F80
1F00
ENDCHAR
STARTCHAR pi
ENCODING 960
SWIDTH 591 0
DWIDTH 17 0
BBX 16 14 0 0
BITMAP
1FFF
3FFF
7210
8210
0210
0630
0430
0430
0C30
0C30
1C30
183B
383E
381C
ENDCHAR
STARTCHAR rho
ENCODING 961
SWIDTH 515 0
DWIDTH 14 0
BBX 11 20 2 -6
BITMAP
0F80
3FC0
7DE0
6060
4020
C020
C020
C020
C020
C060
E060
FBC0
DF80
CF00
C000
C000
C000
C000
C000
C000
ENDCHAR
STARTCHAR uni03C2
ENCODING 962
SWIDTH 377 0
DWIDTH 11 0
BBX 10 20 1 -6
BITMAP
1F80
3F80
7B80
4000
8000
8000
8000
8000
C000
E000
7800
3E00
1F80
0780
00C0
00C0
0080
0780
1F00
0C00
ENDCHAR
STARTCHAR sigma
ENCODING 963
SWIDTH 545 0
DWIDTH 15 0
BBX 14 14 1 0
BITMAP
0FFC
3FFC
7CC0
6040
C060
C020
8030
8030
8030
C070
E060
7BE0
7FC0
1F00
ENDCHAR
STARTCHAR tau
ENCODING 964
SWIDTH 392 0
DWIDTH 11 0
BBX 11 14 0 0
BITMAP
3FE0
7FE0
E600
8400
0400
0400
0400
0C00
0C00
0C00
0C00
0EC0
0F80
0700
ENDCHAR
STARTCHAR upsilon
ENCODING 965
SWIDTH 491 0
DWIDTH 14 0
BBX 12 14 0 0
BITMAP
70C0
F860
F830
9830
1830
1010
1010
3030
3030
3030
3070
1DE0
1FC0
0F80
ENDCHAR
STARTCHAR phi
ENCODING 966
SWIDTH 603 0
DWIDTH 17 0
BBX 15 21 1 -6
BITMAP
0200
1C78
3CFC
71FC
6186
C106
8302
8302
8306
8306
C30C
631C
7FF8
3FF0
0FC0
0300
0300
0300
0300
0300
0300
ENDCHAR
STARTCHAR chi
ENCODING 967
SWIDTH 462 0
DWIDTH 13 0
BBX 15 20 -1 -6
BITMAP
380E
7C1C
7C38
8638
0670
0260
02E0
03C0
0180
0300
0300
0780
0E80
0C80
1880
38C0
30C0
7064
E07C
E038
ENDCHAR
STARTCHAR psi
ENCODING 968
SWIDTH 620 0
DWIDTH 17 0
BBX 16 27 0 -6
BITMAP
00E0
00C0
00C0
00C0
00C0
00C0
00C0
70CC
78C6
F8C2
98C3
18C3
10C3
10C3
30C3
30C3
30C7
18CE
1EFC
0FF8
07E0
00C0
00C0
00C0
01C0
01C0
0180
ENDCHAR
STARTCHAR omega
ENCODING 969
SWIDTH 660 0
DWIDTH 18 0
BBX 17 14 1 0
BITMAP
0C0800
3C0400
780600
610300
C1C300
C1C300
818100
818180
818300
C18300
C18300
77FF00
7E7E00
3C3C00
ENDCHAR
STARTCHAR iotadieresis
ENCODING 970
SWIDTH 259 0
DWIDTH 7 0
BBX 9 19 -1 0
BITMAP
E380
E380
E380
0000
0000
1C00
1800
1800
1800
1800
1800
1800
1800
1800
1800
1800
1900
1F00
0E00
ENDCHAR
STARTCHAR upsilondieresis
ENCODING 971
SWIDTH 491 0
DWIDTH 14 0
BBX 12 19 0 0
BITMAP
30E0
38E0
30E0
0000
0000
70C0
F860
F830
9830
1830
1010
1010
3030
3030
3030
3070
1DE0
1FC0
0F80
ENDCHAR
STARTCHAR omicrontonos
ENCODING 972
SWIDTH 475 0
DWIDTH 13 0
BBX 11 20 1 0
BITMAP
0380
0300
0300
0200
0200
0000
0F00
3FC0
7BC0
6060
C060
8020
8020
8020
8020
C060
E060
7BC0
3F80
1F00
ENDCHAR
STARTCHAR upsilontonos
ENCODING 973
SWIDTH 491 0
DWIDTH 14 0
BBX 12 20 0 0
BITMAP
0380
0380
0300
0300
0200
0000
70C0
F860
F830
9830
1830
1010
1010
3030
3030
3030
3070
1DE0
1FC0
0F80
ENDCHAR
STARTCHAR omegatonos
ENCODING 974
SWIDTH 660 0
DWIDTH 18 0
BBX 17 20 1 0
BITMAP
00E000
00C000
00C000
008000
008000
000000
0C0800
3C0400
780600
610300
C1C300
C1C300
818100
818180
818300
C18300
C18300
77FF00
7E7E00
3C3C00
ENDCHAR
STARTCHAR uni03D0
ENCODING 976
SWIDTH 438 0
DWIDTH 12 0
BBX 11 21 1 0
BITMAP
0380
0FC0
1EC0
1820
3020
3020
7840
6FC0
6780
4000
4000
DF80
FFC0
70C0
6040
6040
6040
7040
3DC0
1F80
0F00
ENDCHAR
STARTCHAR uni03D1
ENCODING 977
SWIDTH 541 0
DWIDTH 15 0
BBX 14 21 0 0
BITMAP
0380
0FE0
0EE0
1830
1030
1010
1010
0818
0808
060C
07FC
01FC
3808
7C08
DC08
0C18
0818
0C30
0EF0
07E0
03C0
ENDCHAR
STARTCHAR uni03D2
ENCODING 978
SWIDTH 616 0
DWIDTH 17 0
BBX 17 19 0 0
BITMAP
3C0700
FE0980
071380
033380
032100
01A000
01E000
01C000
01C000
01C000
01C000
01C000
01C000
01C000
01C000
01C000
01C000
01C000
0FF800
ENDCHAR
STARTCHAR uni03D5
ENCODING 981
SWIDTH 575 0
DWIDTH 16 0
BBX 14 27 1 -6
BITMAP
0180
0180
0180
0180
0180
0380
0380
0FE0
3FF0
7B78
631C
C30C
C304
8304
8304
8304
C30C
6318
7BF8
3FE0
0FC0
0300
0300
0700
0700
0700
0700
ENDCHAR
STARTCHAR uni03D6
ENCODING 982
SWIDTH 821 0
DWIDTH 23 0
BBX 23 14 0 0
BITMAP
1FFFFE
7FFFFE
F70060
860020
0C1830
081C30
081830
081830
081830
081030
0C1870
076DE0
07E7E0
03C3C0
ENDCHAR
STARTCHAR uni03D8
ENCODING 984
SWIDTH 627 0
DWIDTH 18 0
BBX 16 19 1 0
BITMAP
07E0
1838
701C
600E
E00E
E006
E007
E007
E006
E00E
700E
701C
1C38
07E0
0380
0380
0380
0380
0FF0
ENDCHAR
STARTCHAR uni03D9
ENCODING 985
SWIDTH 475 0
DWIDTH 13 0
BBX 11 20 1 -6
BITMAP
0F00
3FC0
7BC0
6060
C060
C020
8020
8020
8020
C060
E060
7FC0
3F80
1E00
0C00
0C00
0C00
0C00
0E00
0C00
ENDCHAR
STARTCHAR uni03DA
ENCODING 986
SWIDTH 578 0
DWIDTH 16 0
BBX 14 19 1 0
BITMAP
07E4
1C3C
301C
700C
E00C
E004
E004
E000
E000
E000
7000
7000
3C00
0FC0
00C0
00C0
00C0
01E0
07F8
ENDCHAR
STARTCHAR uni03DB
ENCODING 987
SWIDTH 490 0
DWIDTH 14 0
BBX 13 20 1 -6
BITMAP
07F8
1FF8
3E10
4000
C000
8000
8000
8000
C000
E000
7800
3E00
1F00
0780
0180
0080
0080
0700
1E00
1C00
ENDCHAR
STARTCHAR uni03DC
ENCODING 988
SWIDTH 588 0
DWIDTH 16 0
BBX 15 19 1 0
BITMAP
FFFE
380E
1802
1802
1800
1808
1818
1818
1818
1FF8
1818
1808
1800
1800
1800
1800
1800
3C00
FF00
ENDCHAR
STARTCHAR uni03DD
ENCODING 989
SWIDTH 386 0
DWIDTH 11 0
BBX 14 21 -3 -7
BITMAP
07FC
07F8
0600
0600
0600
0600
0600
0600
06F0
07F0
0600
0600
0600
0600
0400
0400
0400
0C00
F800
F800
7000
ENDCHAR
STARTCHAR uni03DE
ENCODING 990
SWIDTH 525 0
DWIDTH 15 0
BBX 13 19 1 0
BITMAP
3F80
0E00
0C00
1800
1000
3000
2000
4000
FFF8
FFF8
0010
0020
0060
0040
00C0
0080
0180
0380
0FC0
ENDCHAR
STARTCHAR uni03DF
ENCODING 991
SWIDTH 434 0
DWIDTH 12 0
BBX 13 19 -1 0
BITMAP
3800
7800
D800
0800
0800
0800
0800
1820
11E0
1FE0
1F40
3840
0040
00C0
00C0
00C0
00F8
00F0
00E0
ENDCHAR
STARTCHAR uni03E0
ENCODING 992
SWIDTH 697 0
DWIDTH 20 0
BBX 19 19 1 0
BITMAP
030000
038000
038000
01C000
01C000
01E000
03E000
027000
067000
043800
0C7800
085C00
18DC00
108E00
318E00
630700
630700
C60780
CC1FE0
ENDCHAR
STARTCHAR uni03E1
ENCODING 993
SWIDTH 458 0
DWIDTH 13 0
BBX 13 27 -1 -7
BITMAP
6000
F800
7C00
1E00
0F00
0780
0380
01C0
00C0
03E0
1F60
3C30
3830
0030
0070
03D0
0798
0618
0018
0018
0018
0018
0010
0010
0010
0020
0020
ENDCHAR
STARTCHAR uni03F0
ENCODING 1008
SWIDTH 504 0
DWIDTH 14 0
BBX 15 14 0 0
BITMAP
301C
7838
F838
0870
08E0
08C0
09C0
0B80
0F80
0E80
1CC0
1C66
387C
7038
ENDCHAR
STARTCHAR uni03F1
ENCODING 1009
SWIDTH 467 0
DWIDTH 13 0
BBX 11 21 1 -7
BITMAP
0F80
1FC0
3DC0
6060
4060
4020
4020
C060
E060
FBC0
5FC0
4F80
6000
7000
3C00
1F00
0700
0100
0300
1E00
1800
ENDCHAR
STARTCHAR uni03F4
ENCODING 1012
SWIDTH 737 0
DWIDTH 21 0
BBX 18 19 1 0
BITMAP
03F800
0E0E00
180700
380380
700380
7001C0
7001C0
6001C0
FFFFC0
E001C0
E001C0
7001C0
7001C0
7001C0
700380
380380
1C0700
0E0E00
03F000
ENDCHAR
STARTCHAR uni03F5
ENCODING 1013
SWIDTH 380 0
DWIDTH 11 0
BBX 9 14 1 0
BITMAP
1F00
3F80
7B80
4000
C000
8000
FE00
8000
C000
C000
E080
7F80
3F80
1E00
ENDCHAR
STARTCHAR uni03F6
ENCODING 1014
SWIDTH 382 0
DWIDTH 11 0
BBX 9 14 1 0
BITMAP
F800
FE00
EF00
0100
0100
0180
7F80
0180
0180
0100
8300
EF00
FE00
7C00
ENDCHAR
STARTCHAR uni0400
ENCODING 1024
SWIDTH 626 0
DWIDTH 18 0
BBX 16 24 1 0
BITMAP
0700
0380
0180
0060
0000
FFFE
380E
1806
1802
1800
1808
1808
1818
1818
1FF8
1818
1808
1800
1801
1803
1802
1806
380E
FFFE
ENDCHAR
STARTCHAR uni0401
ENCODING 1025
SWIDTH 626 0
DWIDTH 18 0
BBX 16 23 1 0
BITMAP
0C30
1C78
0C30
0000
FFFE
380E
1806
1802
1800
1808
1808
1818
1818
1FF8
1818
1808
1800
1801
1803
1802
1806
380E
FFFE
ENDCHAR
STARTCHAR uni0402
ENCODING 1026
SWIDTH 731 0
DWIDTH 20 0
BBX 19 19 1 0
BITMAP
FFFF00
C38700
838300
838100
838100
038000
038000
038000
03BF00
03C380
0381C0
0380C0
0380E0
0380E0
0380E0
0380C0
03B8C0
07B980
1F9F00
ENDCHAR
STARTCHAR uni0403
ENCODING 1027
SWIDTH 548 0
DWIDTH 15 0
BBX 14 24 1 0
BITMAP
00E0
01C0
0380
0600
0000
FFFC
383C
180C
180C
1804
1804
1800
1800
1800
1800
1800
1800
1800
1800
1800
1800
1800
3C00
FF00
ENDCHAR
STARTCHAR uni0404
ENCODING 1028
SWIDTH 668 0
DWIDTH 19 0
BBX 17 19 1 0
BITMAP
03F900
0E0F00
180700
380300
700300
700100
600100
E00000
FFF000
E00000
E00000
E00000
700000
700000
700180
380100
1E0600
0FFC00
03F000
ENDCHAR
STARTCHAR uni0405
ENCODING 1029
SWIDTH 504 0
DWIDTH 14 0
BBX 12 19 1 0
BITMAP
1F20
30E0
6060
E020
E020
E020
7000
7C00
3F00
0F80
07E0
01F0
00F0
8070
8030
C070
C070
F0E0
9F80
ENDCHAR
STARTCHAR uni0406
ENCODING 1030
SWIDTH 357 0
DWIDTH 10 0
BBX 8 19 1 0
BITMAP
FF
3C
18
18
18
18
18
18
18
18
18
18
18
18
18
18
18
3C
FF
ENDCHAR
STARTCHAR uni0407
ENCODING 1031
SWIDTH 357 0
DWIDTH 10 0
BBX 10 23 0 0
BITMAP
6180
F1C0
6180
0000
7F80
1E00
0C00
0C00
0C00
0C00
0C00
0C00
0C00
0C00
0C00
0C00
0C00
0C00
0C00
0C00
0C00
1E00
7F80
ENDCHAR
STARTCHAR uni0408
ENCODING 1032
SWIDTH 396 0
DWIDTH 11 0
BBX 11 19 0 0
BITMAP
1FE0
0780
0700
0700
0700
0700
0700
0700
0700
0700
0700
0700
0700
0700
0700
4700
E700
E600
7C00
ENDCHAR
STARTCHAR uni0409
ENCODING 1033
SWIDTH 924 0
DWIDTH 26 0
BBX 26 19 -1 0
BITMAP
07FFE000
01838000
00830000
00830000
00830000
01830000
01830000
01830000
0103FE00
01030F00
01030380
010301C0
030301C0
020301C0
020301C0
060301C0
7C030380
FC070700
781FFC00
ENDCHAR
STARTCHAR uni040A
ENCODING 1034
SWIDTH 1013 0
DWIDTH 28 0
BBX 27 19 1 0
BITMAP
FF1FE000
3C078000
18038000
18038000
18038000
18038000
18038000
18038000
18038000
1FFFFE00
18038780
180381C0
180381C0
180380E0
180380E0
180381C0
180381C0
3C038780
FF0FFE00
ENDCHAR
STARTCHAR uni040B
ENCODING 1035
SWIDTH 761 0
DWIDTH 21 0
BBX 20 19 1 0
BITMAP
FFFF00
C38700
838300
838100
838100
038000
038000
038000
03BF00
03C380
038180
0381C0
0381C0
0381C0
0381C0
0381C0
0381C0
0781C0
1FE7F0
ENDCHAR
STARTCHAR uni040C
ENCODING 1036
SWIDTH 658 0
DWIDTH 18 0
BBX 18 24 1 0
BITMAP
007000
007000
00C000
018000
000000
FF0780
3C0F80
180980
181800
181000
181000
183000
182000
186000
1FC000
18E000
187000
187000
183800
181C00
181C00
180E00
3C0F00
FF07C0
ENDCHAR
STARTCHAR uni040D
ENCODING 1037
SWIDTH 780 0
DWIDTH 22 0
BBX 20 24 1 0
BITMAP
070000
038000
01C000
006000
000000
FF0FF0
3C03C0
180380
180380
180780
180580
180980
181180
183180
186180
18C180
188180
190180
1A0180
1E0180
1C0180
180380
3C03C0
FF0FF0
ENDCHAR
STARTCHAR uni040E
ENCODING 1038
SWIDTH 625 0
DWIDTH 18 0
BBX 18 26 0 0
BITMAP
020800
071C00
060C00
061C00
03F800
000000
000000
FE0FC0
380780
380300
1C0600
0C0600
0E0400
060C00
070800
031800
039000
01B000
01E000
00E000
00C000
00C000
008000
3F8000
3F0000
1E0000
ENDCHAR
STARTCHAR uni040F
ENCODING 1039
SWIDTH 759 0
DWIDTH 21 0
BBX 19 25 1 -6
BITMAP
FF1FE0
3C0780
180380
180380
180380
180380
180380
180380
180380
180380
180380
180380
180380
180380
180380
180380
180380
380380
FFFFE0
004000
004000
006000
00E000
00E000
00E000
ENDCHAR
STARTCHAR uni0410
ENCODING 1040
SWIDTH 718 0
DWIDTH 20 0
BBX 20 19 0 0
BITMAP
006000
006000
00F000
00F000
01B000
01B800
013800
031C00
021C00
061E00
060E00
040E00
0FFF00
080700
180780
180380
3003C0
3003E0
FC0FF0
ENDCHAR
STARTCHAR uni0411
ENCODING 1041
SWIDTH 617 0
DWIDTH 17 0
BBX 15 19 1 0
BITMAP
FFFC
383C
180C
1804
1804
1800
1800
1800
1FF0
1878
181C
180E
180E
180E
180E
180E
181C
3838
FFE0
ENDCHAR
STARTCHAR uni0412
ENCODING 1042
SWIDTH 618 0
DWIDTH 17 0
BBX 15 19 1 0
BITMAP
FFE0
3878
181C
181C
180C
180C
181C
1818
1820
1FF0
183C
181E
180E
180E
180E
180E
180E
383C
FFF0
ENDCHAR
STARTCHAR uni0413
ENCODING 1043
SWIDTH 548 0
DWIDTH 15 0
BBX 14 19 1 0
BITMAP
FFFC
383C
180C
180C
1804
1804
1800
1800
1800
1800
1800
1800
1800
1800
1800
1800
1800
3C00
FF00
ENDCHAR
STARTCHAR uni0414
ENCODING 1044
SWIDTH 663 0
DWIDTH 19 0
BBX 18 25 0 -6
BITMAP
1FFFC0
060E00
020E00
020E00
020E00
060E00
060E00
060E00
040E00
040E00
040E00
0C0E00
0C0E00
080E00
180E00
180E00
300E00
700E00
FFFF80
E00180
C00180
C00080
800080
800080
800080
ENDCHAR
STARTCHAR uni0415
ENCODING 1045
SWIDTH 626 0
DWIDTH 18 0
BBX 16 19 1 0
BITMAP
FFFE
380E
1806
1802
1800
1808
1808
1818
1818
1FF8
1818
1808
1800
1801
1803
1802
1806
380E
FFFE
ENDCHAR
STARTCHAR uni0416
ENCODING 1046
SWIDTH 937 0
DWIDTH 26 0
BBX 26 19 0 0
BITMAP
707F8380
F81E07C0
6C0C0D80
040C0800
060C0800
020C1800
020C1000
020C1000
010C2000
01FFE000
018C7000
038C3000
070C3800
060C1C00
0E0C1C00
1C0C0E00
1C0C0E00
381E0700
F87F87C0
ENDCHAR
STARTCHAR uni0417
ENCODING 1047
SWIDTH 545 0
DWIDTH 15 0
BBX 13 19 1 0
BITMAP
5FC0
70E0
6070
4030
4038
4030
0070
00E0
0F80
00C0
0070
0038
0038
0038
8038
C038
6070
3FF0
0FC0
ENDCHAR
STARTCHAR uni0418
ENCODING 1048
SWIDTH 780 0
DWIDTH 22 0
BBX 20 19 1 0
BITMAP
FF0FF0
3C03C0
180380
180380
180780
180580
180980
181180
183180
186180
18C180
188180
190180
1A0180
1E0180
1C0180
180380
3C03C0
FF0FF0
ENDCHAR
STARTCHAR uni0419
ENCODING 1049
SWIDTH 780 0
DWIDTH 22 0
BBX 20 25 1 0
BITMAP
030C00
070E00
070E00
030C00
01F800
000000
FF0FF0
3C03C0
180380
180380
180780
180580
180980
181180
183180
186180
18C180
188180
190180
1A0180
1E0180
1C0180
180380
3C03C0
FF0FF0
ENDCHAR
STARTCHAR uni041A
ENCODING 1050
SWIDTH 658 0
DWIDTH 18 0
BBX 18 19 1 0
BITMAP
FF0780
3C0F80
180980
181800
181000
181000
183000
182000
186000
1FC000
18E000
187000
187000
183800
181C00
181C00
180E00
3C0F00
FF07C0
ENDCHAR
STARTCHAR uni041B
ENCODING 1051
SWIDTH 684 0
DWIDTH 19 0
BBX 19 19 -1 0
BITMAP
07FFE0
018380
008300
008300
008300
018300
018300
018300
010300
010300
010300
010300
030300
020300
020300
060300
7C0300
FC0780
781FE0
ENDCHAR
STARTCHAR uni041C
ENCODING 1052
SWIDTH 895 0
DWIDTH 25 0
BBX 23 19 1 0
BITMAP
FC007E
3C0078
3E00F0
3E00F0
3E00B0
3701B0
370130
338330
338330
318230
31C630
31C430
30EC30
30EC30
307830
307830
307030
303078
FC21FE
ENDCHAR
STARTCHAR uni041D
ENCODING 1053
SWIDTH 777 0
DWIDTH 22 0
BBX 20 19 1 0
BITMAP
FF0FF0
3C03C0
180380
180380
180380
180380
180380
180380
180380
1FFF80
180380
180380
180380
180380
180380
180380
180380
3C03C0
FF0FF0
ENDCHAR
STARTCHAR uni041E
ENCODING 1054
SWIDTH 738 0
DWIDTH 21 0
BBX 18 19 1 0
BITMAP
03F800
0E1E00
1C0700
380380
700380
7001C0
7001C0
6001C0
E001C0
E001C0
E001C0
6001C0
7001C0
7001C0
700380
380380
1C0700
0E0E00
03F800
ENDCHAR
STARTCHAR uni041F
ENCODING 1055
SWIDTH 759 0
DWIDTH 21 0
BBX 19 19 1 0
BITMAP
FFFFE0
380380
180380
180380
180380
180380
180380
180380
180380
180380
180380
180380
180380
180380
180380
180380
180380
3C0380
FF1FE0
ENDCHAR
STARTCHAR uni0420
ENCODING 1056
SWIDTH 569 0
DWIDTH 16 0
BBX 14 19 1 0
BITMAP
FFE0
3878
181C
181C
181C
181C
181C
181C
1818
1830
1FE0
1800
1800
1800
1800
1800
1800
3C00
FF00
ENDCHAR
STARTCHAR uni0421
ENCODING 1057
SWIDTH 670 0
DWIDTH 19 0
BBX 17 19 1 0
BITMAP
03F900
0E0F00
1C0700
380300
700300
700100
700100
600000
E00000
E00000
E00000
700000
700000
700000
780000
380180
1E0700
0FFC00
03F000
ENDCHAR
STARTCHAR uni0422
ENCODING 1058
SWIDTH 603 0
DWIDTH 17 0
BBX 16 19 0 0
BITMAP
7FFF
61C3
41C1
41C1
81C1
01C0
01C0
01C0
01C0
01C0
01C0
01C0
01C0
01C0
01C0
01C0
01C0
03C0
0FF8
ENDCHAR
STARTCHAR uni0423
ENCODING 1059
SWIDTH 625 0
DWIDTH 18 0
BBX 18 19 0 0
BITMAP
FE0FC0
380780
380300
1C0600
0C0600
0E0400
060C00
070800
031800
039000
01B000
01E000
00E000
00C000
00C000
008000
3F8000
3F0000
1E0000
ENDCHAR
STARTCHAR uni0424
ENCODING 1060
SWIDTH 725 0
DWIDTH 20 0
BBX 18 19 1 0
BITMAP
07F800
01E000
00C000
0FFC00
3CC700
70C380
60C1C0
E0C1C0
E0C0C0
E0C0C0
E0C0C0
E0C1C0
70C180
70C380
1CCF00
03F800
00C000
01E000
07F800
ENDCHAR
STARTCHAR uni0425
ENCODING 1061
SWIDTH 664 0
DWIDTH 19 0
BBX 18 19 0 0
BITMAP
FF0FC0
3E0700
1E0600
0E0400
070C00
071800
039000
01E000
01E000
00E000
01F000
017000
023800
061C00
0C1C00
080E00
180F00
380F80
FC1FC0
ENDCHAR
STARTCHAR uni0426
ENCODING 1062
SWIDTH 756 0
DWIDTH 21 0
BBX 19 25 1 -6
BITMAP
FF1FE0
3C0780
180300
180300
180300
180300
180300
180300
180300
180300
180300
180300
180300
180300
180300
180300
180300
380380
FFFFE0
0000E0
000060
000060
000020
000020
000020
ENDCHAR
STARTCHAR uni0427
ENCODING 1063
SWIDTH 650 0
DWIDTH 18 0
BBX 17 19 0 0
BITMAP
FE7F80
3C1E00
380E00
380C00
380C00
380C00
380C00
380C00
180C00
1C1C00
0FEC00
000C00
000C00
000C00
000C00
000C00
000E00
001E00
007F80
ENDCHAR
STARTCHAR uni0428
ENCODING 1064
SWIDTH 1053 0
DWIDTH 29 0
BBX 27 19 1 0
BITMAP
FF3F8FE0
3C0F0380
180E0380
180E0380
180E0380
180E0380
180E0380
180E0380
180E0380
180E0380
180E0380
180E0380
180E0380
180E0380
180E0380
180E0380
180E0380
380E0380
FFFFFFE0
ENDCHAR
STARTCHAR uni0429
ENCODING 1065
SWIDTH 1044 0
DWIDTH 29 0
BBX 27 25 1 -6
BITMAP
FF3F9FE0
3C0E0780
180E0380
180E0300
180E0300
180E0300
180E0300
180E0300
180E0300
180E0300
180E0300
180E0300
180E0300
180E0300
180E0300
180E0300
180E0300
380E0380
FFFFFFE0
000000E0
00000060
00000060
00000020
00000020
00000020
ENDCHAR
STARTCHAR uni042A
ENCODING 1066
SWIDTH 723 0
DWIDTH 20 0
BBX 19 19 0 0
BITMAP
7FF800
71C000
41C000
C1C000
81C000
01C000
01C000
01C000
01FF00
01C3C0
01C1E0
01C0E0
01C0E0
01C0E0
01C0E0
01C0E0
01C0E0
01C3C0
07FF00
ENDCHAR
STARTCHAR uni042B
ENCODING 1067
SWIDTH 887 0
DWIDTH 25 0
BBX 23 19 1 0
BITMAP
FF01FE
3C0078
180070
180030
180030
180030
180030
180030
1FE030
187830
181C30
181C30
180E30
180E30
180C30
181C30
181C70
383878
FFE1FE
ENDCHAR
STARTCHAR uni042C
ENCODING 1068
SWIDTH 606 0
DWIDTH 17 0
BBX 15 19 1 0
BITMAP
FF00
3C00
1800
1800
1800
1800
1800
1800
1FF0
1878
181C
180E
180E
180E
180E
180E
181C
3838
FFE0
ENDCHAR
STARTCHAR uni042D
ENCODING 1069
SWIDTH 667 0
DWIDTH 19 0
BBX 16 19 1 0
BITMAP
4FE0
7838
701C
600E
4006
4007
4007
0007
0FFF
0007
0007
0007
0007
0007
800E
400C
703C
3FF8
0FC0
ENDCHAR
STARTCHAR uni042E
ENCODING 1070
SWIDTH 1042 0
DWIDTH 29 0
BBX 27 19 1 0
BITMAP
FF01F800
3C070E00
180E0300
181C0380
183801C0
183801C0
183800C0
183000E0
1FF000E0
183000E0
183000E0
183000E0
183800C0
183801C0
181801C0
181C0180
180E0300
3C070E00
FF01F800
ENDCHAR
STARTCHAR uni042F
ENCODING 1071
SWIDTH 654 0
DWIDTH 18 0
BBX 17 19 0 0
BITMAP
03FF80
0F0E00
1C0E00
1C0E00
1C0E00
1C0E00
1C0E00
1E0E00
0F0E00
03FE00
038E00
070E00
070E00
0E0E00
0E0E00
1C0E00
1C0E00
381E00
F87F80
ENDCHAR
STARTCHAR uni0430
ENCODING 1072
SWIDTH 480 0
DWIDTH 13 0
BBX 12 14 1 0
BITMAP
1F00
7380
61C0
61C0
41C0
01C0
07C0
39C0
61C0
E1C0
E1C0
E1D0
E2F0
7CE0
ENDCHAR
STARTCHAR uni0431
ENCODING 1073
SWIDTH 520 0
DWIDTH 15 0
BBX 13 21 1 0
BITMAP
0010
0070
07E0
1FC0
3C00
7000
6000
4780
D8E0
F070
A030
E030
E038
E038
E038
E030
6030
6030
3060
38C0
0F80
ENDCHAR
STARTCHAR uni0432
ENCODING 1074
SWIDTH 505 0
DWIDTH 14 0
BBX 12 14 1 0
BITMAP
FFC0
30E0
3070
3070
3060
30E0
3F80
30E0
3070
3070
3070
3070
30E0
FFC0
ENDCHAR
STARTCHAR uni0433
ENCODING 1075
SWIDTH 429 0
DWIDTH 12 0
BBX 10 14 1 0
BITMAP
FFC0
30C0
3040
3040
3040
3000
3000
3000
3000
3000
3000
3000
3800
FE00
ENDCHAR
STARTCHAR uni0434
ENCODING 1076
SWIDTH 530 0
DWIDTH 15 0
BBX 14 19 0 -5
BITMAP
3FFC
0C70
0470
0470
0C70
0C70
0870
0870
0870
1870
1070
3070
6070
FFFC
C00C
C00C
C004
8004
8004
ENDCHAR
STARTCHAR uni0435
ENCODING 1077
SWIDTH 464 0
DWIDTH 13 0
BBX 11 14 1 0
BITMAP
1F00
3180
60C0
40E0
C0E0
FFE0
C000
C000
E000
E000
7020
7840
3FC0
1F00
ENDCHAR
STARTCHAR uni0436
ENCODING 1078
SWIDTH 754 0
DWIDTH 21 0
BBX 21 14 0 0
BITMAP
70FC70
F870F8
687090
0C7080
047100
067100
03FE00
067300
0E7380
0C7180
1C71C0
3870E0
3870E0
F0FC78
ENDCHAR
STARTCHAR uni0437
ENCODING 1079
SWIDTH 435 0
DWIDTH 12 0
BBX 10 14 1 0
BITMAP
BF00
E380
C180
81C0
8180
0380
1E00
0380
01C0
01C0
01C0
81C0
C380
3E00
ENDCHAR
STARTCHAR uni0438
ENCODING 1080
SWIDTH 609 0
DWIDTH 17 0
BBX 15 14 1 0
BITMAP
FC7E
301C
3018
3038
3078
30D8
3198
3318
3218
3418
3818
3018
381C
FC7E
ENDCHAR
STARTCHAR uni0439
ENCODING 1081
SWIDTH 609 0
DWIDTH 17 0
BBX 15 20 1 0
BITMAP
1C70
1C70
1830
1830
07C0
0000
FC7E
301C
3018
3038
3078
30D8
3198
3318
3218
3418
3818
3018
381C
FC7E
ENDCHAR
STARTCHAR uni043A
ENCODING 1082
SWIDTH 521 0
DWIDTH 15 0
BBX 14 14 1 0
BITMAP
FC38
3878
30D8
3080
3080
3100
3F00
3380
3180
31C0
30E0
30E0
3070
FC7C
ENDCHAR
STARTCHAR uni043B
ENCODING 1083
SWIDTH 553 0
DWIDTH 15 0
BBX 15 14 0 0
BITMAP
1FFE
0638
0638
0638
0638
0438
0438
0438
0438
0C38
0838
D838
F038
E0FE
ENDCHAR
STARTCHAR uni043C
ENCODING 1084
SWIDTH 697 0
DWIDTH 20 0
BBX 19 14 0 0
BITMAP
7C03E0
3C0780
1C0780
1E0780
160F80
170B80
131B80
139380
13B380
11A380
11E380
10E380
30C380
FC4FE0
ENDCHAR
STARTCHAR uni043D
ENCODING 1085
SWIDTH 605 0
DWIDTH 17 0
BBX 15 14 1 0
BITMAP
FC7E
3838
3018
3018
3018
3018
3FF8
3018
3018
3018
3018
3018
3038
FC7E
ENDCHAR
STARTCHAR uni043E
ENCODING 1086
SWIDTH 514 0
DWIDTH 14 0
BBX 12 14 1 0
BITMAP
0F80
38C0
7060
6070
E030
E030
E030
E030
E030
E030
6070
7060
38C0
1F80
ENDCHAR
STARTCHAR uni043F
ENCODING 1087
SWIDTH 591 0
DWIDTH 17 0
BBX 15 14 1 0
BITMAP
FFFE
3038
3038
3038
3038
3038
3038
3038
3038
3038
3038
3038
3038
FCFE
ENDCHAR
STARTCHAR uni0440
ENCODING 1088
SWIDTH 537 0
DWIDTH 15 0
BBX 13 20 1 -6
BITMAP
73C0
F7F0
3870
3038
3038
3038
3038
3038
3038
3038
3030
3030
3CE0
3780
3000
3000
3000
3000
7800
FE00
ENDCHAR
STARTCHAR uni0441
ENCODING 1089
SWIDTH 446 0
DWIDTH 12 0
BBX 11 14 1 0
BITMAP
0F80
31C0
60E0
40C0
C000
C000
C000
C000
C000
E000
E020
78C0
3F80
1F00
ENDCHAR
STARTCHAR uni0442
ENCODING 1090
SWIDTH 456 0
DWIDTH 13 0
BBX 13 14 0 0
BITMAP
FFF0
C730
C710
8710
8708
0700
0700
0700
0700
0700
0700
0700
0700
1FC0
ENDCHAR
STARTCHAR uni0443
ENCODING 1091
SWIDTH 483 0
DWIDTH 14 0
BBX 14 20 0 -6
BITMAP
FC7C
7018
3030
3830
3820
1C60
1C40
0C40
0EC0
0680
0780
0300
0300
0300
0200
0600
0400
EC00
F800
7000
ENDCHAR
STARTCHAR uni0444
ENCODING 1092
SWIDTH 710 0
DWIDTH 20 0
BBX 18 27 1 -6
BITMAP
004000
03C000
00C000
00C000
00C000
00C000
00C000
1EDE00
31E300
61C180
60C180
E0C1C0
E0C1C0
E0C1C0
E0C1C0
E0C1C0
E0C1C0
60C180
61C180
33E300
1EDE00
00C000
00C000
00C000
00C000
01C000
03F000
ENDCHAR
STARTCHAR uni0445
ENCODING 1093
SWIDTH 479 0
DWIDTH 13 0
BBX 14 14 0 0
BITMAP
FCF8
3870
1860
1C40
0E80
0700
0700
0780
0580
09C0
18E0
3060
6070
F8FC
ENDCHAR
STARTCHAR uni0446
ENCODING 1094
SWIDTH 590 0
DWIDTH 17 0
BBX 15 19 1 -5
BITMAP
FCFC
7838
3038
3038
3038
3038
3038
3038
3038
3038
3038
3038
3038
FFFE
000E
0006
0006
0002
0002
ENDCHAR
STARTCHAR uni0447
ENCODING 1095
SWIDTH 535 0
DWIDTH 15 0
BBX 14 14 0 0
BITMAP
FCFC
3070
3030
3030
3030
3030
3030
3870
1FB0
0030
0030
0030
0030
00FC
ENDCHAR
STARTCHAR uni0448
ENCODING 1096
SWIDTH 812 0
DWIDTH 23 0
BBX 21 14 1 0
BITMAP
FCF9F8
7070E0
307060
306060
306060
306060
306060
306060
306060
306060
306060
306060
7070E0
FFFFF8
ENDCHAR
STARTCHAR uni0449
ENCODING 1097
SWIDTH 814 0
DWIDTH 23 0
BBX 21 19 1 -5
BITMAP
FCF9F8
7070E0
306060
306060
306060
306060
306060
306060
306060
306060
306060
306060
3070E0
FFFFF8
000018
000018
000008
000008
000008
ENDCHAR
STARTCHAR uni044A
ENCODING 1098
SWIDTH 568 0
DWIDTH 16 0
BBX 15 14 0 0
BITMAP
FFC0
C700
C700
8700
8700
0700
07F8
071C
070E
0706
0706
070E
071C
1FF8
ENDCHAR
STARTCHAR uni044B
ENCODING 1099
SWIDTH 728 0
DWIDTH 20 0
BBX 18 14 1 0
BITMAP
FC0FC0
300380
300380
300380
300380
300380
3F8380
30E380
306380
307380
307380
306380
30E380
FF8FC0
ENDCHAR
STARTCHAR uni044C
ENCODING 1100
SWIDTH 489 0
DWIDTH 14 0
BBX 12 14 1 0
BITMAP
FC00
3000
3000
3000
3000
3000
3FC0
30E0
3070
3070
3070
3070
30E0
FF80
ENDCHAR
STARTCHAR uni044D
ENCODING 1101
SWIDTH 467 0
DWIDTH 13 0
BBX 11 14 1 0
BITMAP
9F00
E180
C0C0
80E0
80E0
00E0
1FE0
00E0
00E0
00E0
00C0
80C0
6380
3F00
ENDCHAR
STARTCHAR uni044E
ENCODING 1102
SWIDTH 774 0
DWIDTH 22 0
BBX 20 14 1 0
BITMAP
FC1F00
3831C0
3060E0
30C060
30C060
30C070
3FC070
30C070
30C070
30C060
30E060
3060C0
3031C0
FC1F00
ENDCHAR
STARTCHAR uni044F
ENCODING 1103
SWIDTH 518 0
DWIDTH 15 0
BBX 14 14 0 0
BITMAP
0FFC
3C70
3870
3070
3070
3870
1C70
0FF0
0670
0E70
1C70
1870
3870
F1FC
ENDCHAR
STARTCHAR uni0450
ENCODING 1104
SWIDTH 464 0
DWIDTH 13 0
BBX 11 20 1 0
BITMAP
1800
1C00
0C00
0600
0200
0000
1F00
3180
60C0
40E0
C0E0
FFE0
C000
C000
E000
E000
7020
7840
3FC0
1F00
ENDCHAR
STARTCHAR uni0451
ENCODING 1105
SWIDTH 464 0
DWIDTH 13 0
BBX 11 19 1 0
BITMAP
30C0
71C0
30C0
0000
0000
1F00
3180
60C0
40E0
C0E0
FFE0
C000
C000
E000
E000
7020
7840
3FC0
1F00
ENDCHAR
STARTCHAR uni0452
ENCODING 1106
SWIDTH 563 0
DWIDTH 16 0
BBX 13 27 1 -6
BITMAP
3000
F000
3000
3000
FF80
3000
3000
31E0
37F0
3C70
3030
3038
3038
3038
3038
3038
3038
3038
3038
7838
FC30
0030
0030
0030
0C20
0E40
0780
ENDCHAR
STARTCHAR uni0453
ENCODING 1107
SWIDTH 429 0
DWIDTH 12 0
BBX 10 20 1 0
BITMAP
0700
0700
0600
0C00
0800
1000
FFC0
30C0
3040
3040
3040
3000
3000
3000
3000
3000
3000
3000
3800
FE00
ENDCHAR
STARTCHAR uni0454
ENCODING 1108
SWIDTH 460 0
DWIDTH 13 0
BBX 11 14 1 0
BITMAP
0F80
31C0
60E0
6060
E000
E000
FF00
E000
E000
E000
6020
7060
3FC0
1F00
ENDCHAR
STARTCHAR uni0455
ENCODING 1109
SWIDTH 394 0
DWIDTH 11 0
BBX 9 14 1 0
BITMAP
3F00
6300
C100
C100
E080
7800
3C00
1F00
0780
8380
8180
C180
E380
BE00
ENDCHAR
STARTCHAR uni0456
ENCODING 1110
SWIDTH 285 0
DWIDTH 8 0
BBX 6 19 1 0
BITMAP
30
78
30
00
00
70
F0
30
30
30
30
30
30
30
30
30
30
38
FC
ENDCHAR
STARTCHAR uni0457
ENCODING 1111
SWIDTH 285 0
DWIDTH 8 0
BBX 9 19 -1 0
BITMAP
6300
E380
6300
0000
0000
1C00
3C00
0C00
0C00
0C00
0C00
0C00
0C00
0C00
0C00
0C00
0C00
0E00
3F00
ENDCHAR
STARTCHAR uni0458
ENCODING 1112
SWIDTH 263 0
DWIDTH 7 0
BBX 9 25 -3 -6
BITMAP
0300
0780
0300
0000
0000
0700
0F00
0300
0300
0300
0300
0300
0300
0300
0300
0300
0300
0300
0300
0300
0300
0300
E200
F600
7C00
ENDCHAR
STARTCHAR uni0459
ENCODING 1113
SWIDTH 742 0
DWIDTH 21 0
BBX 20 14 0 0
BITMAP
1FFC00
063800
063000
063000
063000
043000
043FC0
0430E0
043070
0C3070
083070
D83070
F030E0
E0FF80
ENDCHAR
STARTCHAR uni045A
ENCODING 1114
SWIDTH 790 0
DWIDTH 22 0
BBX 21 14 1 0
BITMAP
FC7E00
383800
301800
301800
301800
301800
3FFFC0
3018F0
301830
301838
301838
301830
303870
FC7FC0
ENDCHAR
STARTCHAR uni045B
ENCODING 1115
SWIDTH 579 0
DWIDTH 16 0
BBX 15 20 1 0
BITMAP
7000
F000
3000
FF80
3000
3000
31E0
37F0
3C70
3030
3030
3038
3038
3038
3038
3038
3038
3038
7838
FCFE
ENDCHAR
STARTCHAR uni045C
ENCODING 1116
SWIDTH 521 0
DWIDTH 15 0
BBX 14 20 1 0
BITMAP
0180
0380
0300
0600
0400
0000
FC38
3878
30D8
3080
3080
3100
3F00
3380
3180
31C0
30E0
30E0
3070
FC7C
ENDCHAR
STARTCHAR uni045D
ENCODING 1117
SWIDTH 609 0
DWIDTH 17 0
BBX 15 20 1 0
BITMAP
0E00
0E00
0600
0300
0180
0000
FC7E
301C
3018
3038
3078
30D8
3198
3318
3218
3418
3818
3018
381C
FC7E
ENDCHAR
STARTCHAR uni045E
ENCODING 1118
SWIDTH 483 0
DWIDTH 14 0
BBX 14 27 0 -6
BITMAP
0820
1870
1830
1870
0FC0
0000
0000
FC7C
7018
3030
3830
3820
1820
1C40
0C40
0E40
0680
0680
0380
0300
0300
0200
0200
0600
4C00
F800
7000
ENDCHAR
STARTCHAR uni045F
ENCODING 1119
SWIDTH 587 0
DWIDTH 16 0
BBX 15 19 1 -5
BITMAP
FCFE
7838
3038
3038
3038
3038
3038
3038
3038
3038
3038
3038
3038
FFFE
0100
0300
0300
0380
0380
ENDCHAR
STARTCHAR uni0462
ENCODING 1122
SWIDTH 727 0
DWIDTH 20 0
BBX 19 21 0 0
BITMAP
0FF000
03C000
01C000
018000
7FFFC0
6181C0
4180C0
C18040
818040
018000
018000
01FF00
0183C0
0181E0
0180E0
0180E0
0180E0
0180E0
0180C0
0383C0
0FFE00
ENDCHAR
STARTCHAR uni0463
ENCODING 1123
SWIDTH 561 0
DWIDTH 16 0
BBX 15 21 0 0
BITMAP
0200
1E00
1E00
0600
0600
0600
0600
FFF0
C630
C610
8608
8608
0600
07F8
061C
060E
060E
060E
060E
061C
1FF0
ENDCHAR
STARTCHAR uni046A
ENCODING 1130
SWIDTH 881 0
DWIDTH 25 0
BBX 25 19 0 0
BITMAP
0FFFF000
07002000
03806000
03C0C000
01C08000
00E18000
00730000
00720000
003C0000
00FF8000
039DE000
071CE000
071C7000
0E1C3000
0E1C3800
1C1C1C00
3C1C1C00
381C1E00
F87F0F80
ENDCHAR
STARTCHAR uni046B
ENCODING 1131
SWIDTH 667 0
DWIDTH 19 0
BBX 19 14 0 0
BITMAP
1FFE00
0C0600
0E0C00
070800
039800
01B000
01E000
07FC00
0ECE00
1CC600
18C700
38C300
30E380
F1F1E0
ENDCHAR
STARTCHAR uni0472
ENCODING 1138
SWIDTH 737 0
DWIDTH 21 0
BBX 18 19 1 0
BITMAP
03F800
0E1E00
1C0700
380380
700380
7001C0
7001C0
6781C0
EFE1C0
F1FFC0
E079C0
6001C0
7001C0
7001C0
700380
380300
1C0700
0E0E00
03F000
ENDCHAR
STARTCHAR uni0473
ENCODING 1139
SWIDTH 514 0
DWIDTH 14 0
BBX 12 14 1 0
BITMAP
0F80
38C0
7060
6070
E030
FC30
E670
E3B0
E030
E030
6070
7060
38C0
1F80
ENDCHAR
STARTCHAR uni0474
ENCODING 1140
SWIDTH 705 0
DWIDTH 20 0
BBX 20 19 0 0
BITMAP
FE00F0
7C01F0
3801F0
1C0330
1C0300
1C0200
0E0600
0E0600
070400
070C00
030800
038800
039800
01D000
01F000
00F000
00E000
00E000
004000
ENDCHAR
STARTCHAR uni0475
ENCODING 1141
SWIDTH 520 0
DWIDTH 15 0
BBX 15 14 0 0
BITMAP
FC0E
701E
3036
3820
3860
1840
1C40
0CC0
0C80
0E80
0680
0700
0700
0300
ENDCHAR
STARTCHAR uni0490
ENCODING 1168
SWIDTH 525 0
DWIDTH 15 0
BBX 14 24 1 0
BITMAP
0004
000C
000C
0008
0018
FFF8
3800
1800
1800
1800
1800
1800
1800
1800
1800
1800
1800
1800
1800
1800
1800
1800
3C00
FF00
ENDCHAR
STARTCHAR uni0491
ENCODING 1169
SWIDTH 404 0
DWIDTH 11 0
BBX 10 18 1 0
BITMAP
0040
0040
0040
00C0
FFC0
3000
3000
3000
3000
3000
3000
3000
3000
3000
3000
3000
3800
FE00
ENDCHAR
STARTCHAR uni1D00
ENCODING 7424
SWIDTH 511 0
DWIDTH 14 0
BBX 16 14 -1 0
BITMAP
0180
0180
03C0
02C0
06E0
04E0
0470
0C70
0870
1FF8
1038
301C
301C
F83F
ENDCHAR
STARTCHAR uni1D07
ENCODING 7431
SWIDTH 495 0
DWIDTH 14 0
BBX 12 14 1 0
BITMAP
FFE0
3020
3020
3000
3040
30C0
3FC0
30C0
3040
3000
3010
3030
3070
FFE0
ENDCHAR
STARTCHAR uni1D1C
ENCODING 7452
SWIDTH 584 0
DWIDTH 16 0
BBX 16 14 0 0
BITMAP
FE1F
380C
1804
1804
1804
1804
1804
1804
1804
1804
180C
1808
0E18
07E0
ENDCHAR
STARTCHAR uni1D81
ENCODING 7553
SWIDTH 539 0
DWIDTH 15 0
BBX 13 26 1 -6
BITMAP
0060
01E0
0060
0060
0060
0060
0FE0
38E0
6060
6060
E060
C060
C060
C060
C060
E060
E060
70E0
7F78
1E78
0008
0008
0008
0088
01D8
00F0
ENDCHAR
STARTCHAR uni1D84
ENCODING 7556
SWIDTH 542 0
DWIDTH 15 0
BBX 14 26 1 -6
BITMAP
7000
F000
3000
3000
3000
3000
31F8
30E0
30C0
3180
3300
3400
3E00
3700
3380
31C0
31C0
30E0
7070
FCFC
0004
0004
0004
00C4
00E8
0070
ENDCHAR
STARTCHAR uni1D85
ENCODING 7557
SWIDTH 283 0
DWIDTH 8 0
BBX 6 26 1 -6
BITMAP
30
F0
30
30
30
30
30
30
30
30
30
30
30
30
30
30
30
30
70
FC
04
04
04
44
EC
78
ENDCHAR
STARTCHAR uni1D8A
ENCODING 7562
SWIDTH 395 0
DWIDTH 11 0
BBX 9 20 1 -6
BITMAP
3F00
6300
C100
C100
E080
7800
3C00
1F00
0780
8380
8180
C180
E380
BF80
0180
0180
0100
1100
1900
1E00
ENDCHAR
STARTCHAR uni1D8D
ENCODING 7565
SWIDTH 479 0
DWIDTH 13 0
BBX 14 20 0 -6
BITMAP
FCF8
3870
1860
1C40
0E80
0700
0700
0780
0580
09C0
18E0
3060
6070
F8FC
000C
000C
0008
0088
00D8
00F0
ENDCHAR
STARTCHAR uni1D8E
ENCODING 7566
SWIDTH 458 0
DWIDTH 13 0
BBX 11 20 1 -6
BITMAP
FFE0
C1C0
C1C0
8380
0300
0700
0E00
0C00
1C00
3820
3020
7060
E0E0
FFE0
0060
0060
0060
0440
0640
0780
ENDCHAR
STARTCHAR uni1D98
ENCODING 7576
SWIDTH 368 0
DWIDTH 10 0
BBX 13 27 0 -6
BITMAP
00F0
0138
0318
0300
0300
0300
0300
0300
0300
0300
0300
0300
0300
0300
0300
0300
0300
0300
C300
E600
FC00
C000
C000
C000
4C00
4C00
3C00
ENDCHAR
STARTCHAR uni1D9B
ENCODING 7579
SWIDTH 462 0
DWIDTH 13 0
BBX 12 11 0 7
BITMAP
F3C0
3FE0
3060
3070
3030
3030
3030
3030
3060
38C0
2F80
ENDCHAR
STARTCHAR uni1DA3
ENCODING 7587
SWIDTH 488 0
DWIDTH 14 0
BBX 12 16 1 2
BITMAP
F9F0
60C0
60C0
60C0
60C0
60C0
60C0
60C0
71C0
3FC0
1CC0
00C0
00C0
00C0
00E0
00F0
ENDCHAR
STARTCHAR uni1E00
ENCODING 7680
SWIDTH 718 0
DWIDTH 20 0
BBX 20 26 0 -7
BITMAP
006000
006000
00F000
00F000
01B000
01B800
013800
031C00
021C00
061E00
060E00
040E00
0FFF00
080700
180780
180380
3003C0
3003E0
FC0FF0
000000
00E000
013000
011000
011000
011000
00E000
ENDCHAR
STARTCHAR uni1E01
ENCODING 7681
SWIDTH 480 0
DWIDTH 13 0
BBX 12 21 1 -7
BITMAP
1F00
7380
61C0
61C0
41C0
01C0
07C0
39C0
61C0
E1C0
E1C0
E1D0
E2F0
7CE0
0000
0E00
1300
1100
1100
1100
0E00
ENDCHAR
STARTCHAR uni1E02
ENCODING 7682
SWIDTH 618 0
DWIDTH 17 0
BBX 15 23 1 0
BITMAP
0300
0380
0300
0000
FFE0
3878
181C
181C
180C
180C
181C
1818
1820
1FF0
183C
181E
180E
180E
180E
180E
180E
383C
FFF0
ENDCHAR
STARTCHAR uni1E03
ENCODING 7683
SWIDTH 522 0
DWIDTH 15 0
BBX 14 24 0 0
BITMAP
0300
0380
0300
0000
3800
F800
3800
3800
3800
3800
39E0
3BF0
3C38
3838
3818
381C
381C
381C
3818
3818
3818
3830
3C60
0FC0
ENDCHAR
STARTCHAR uni1E04
ENCODING 7684
SWIDTH 618 0
DWIDTH 17 0
BBX 15 24 1 -5
BITMAP
FFE0
3878
181C
181C
180C
180C
181C
1818
1820
1FF0
183C
181E
180E
180E
180E
180E
180E
383C
FFF0
0000
0000
0300
0380
0300
ENDCHAR
STARTCHAR uni1E05
ENCODING 7685
SWIDTH 522 0
DWIDTH 15 0
BBX 14 25 0 -5
BITMAP
3800
F800
3800
3800
3800
3800
39E0
3BF0
3C38
3838
3818
381C
381C
381C
3818
3818
3818
3830
3C60
0FC0
0000
0000
0300
0780
0300
ENDCHAR
STARTCHAR uni1E06
ENCODING 7686
SWIDTH 618 0
DWIDTH 17 0
BBX 15 23 1 -4
BITMAP
FFE0
3878
181C
181C
180C
180C
181C
1818
1820
1FF0
183C
181E
180E
180E
180E
180E
180E
383C
FFF0
0000
0000
0000
1FE0
ENDCHAR
STARTCHAR uni1E07
ENCODING 7687
SWIDTH 522 0
DWIDTH 15 0
BBX 14 24 0 -4
BITMAP
3800
F800
3800
3800
3800
3800
39E0
3BF0
3C38
3838
3818
381C
381C
381C
3818
3818
3818
3830
3C60
0FC0
0000
0000
0000
1FE0
ENDCHAR
STARTCHAR uni1E08
ENCODING 7688
SWIDTH 670 0
DWIDTH 19 0
BBX 17 30 1 -6
BITMAP
003800
007000
00C000
018000
000000
03F900
0E0F00
1C0700
380300
700300
700100
700100
600000
E00000
E00000
E00000
700000
700000
700000
780000
380180
1E0700
0FFC00
03F000
008000
008000
00E000
003000
003000
03E000
ENDCHAR
STARTCHAR uni1E09
ENCODING 7689
SWIDTH 446 0
DWIDTH 12 0
BBX 11 26 1 -6
BITMAP
0380
0300
0700
0600
0C00
0000
0F80
31C0
60C0
60E0
C000
C000
C000
C000
C000
E000
E020
78C0
3F80
1F00
0400
0700
0180
0180
1100
0F00
ENDCHAR
STARTCHAR uni1E0A
ENCODING 7690
SWIDTH 730 0
DWIDTH 20 0
BBX 18 23 1 0
BITMAP
01C000
01C000
01C000
000000
FFF000
387C00
180F00
180700
180380
180380
1801C0
1801C0
1801C0
1801C0
1801C0
1801C0
1801C0
180180
180380
180300
180700
383C00
FFF000
ENDCHAR
STARTCHAR uni1E0B
ENCODING 7691
SWIDTH 539 0
DWIDTH 15 0
BBX 13 24 1 0
BITMAP
0700
0700
0700
0000
0060
01E0
0060
0060
0060
0060
0FE0
38E0
6060
6060
E060
C060
C060
C060
C060
E060
E060
70E0
7F78
1E78
ENDCHAR
STARTCHAR uni1E0C
ENCODING 7692
SWIDTH 730 0
DWIDTH 20 0
BBX 18 24 1 -5
BITMAP
FFF000
387C00
180F00
180700
180380
180380
1801C0
1801C0
1801C0
1801C0
1801C0
1801C0
1801C0
180180
180380
180300
180700
383C00
FFF000
000000
000000
018000
03C000
018000
ENDCHAR
STARTCHAR uni1E0D
ENCODING 7693
SWIDTH 539 0
DWIDTH 15 0
BBX 13 25 1 -5
BITMAP
0060
01E0
0060
0060
0060
0060
0FE0
38E0
6060
6060
E060
C060
C060
C060
C060
E060
E060
70E0
7F78
1E78
0000
0000
0700
0700
0700
ENDCHAR
STARTCHAR uni1E0E
ENCODING 7694
SWIDTH 730 0
DWIDTH 20 0
BBX 18 23 1 -4
BITMAP
FFF000
387C00
180F00
180700
180380
180380
1801C0
1801C0
1801C0
1801C0
1801C0
1801C0
1801C0
180180
180380
180300
180700
383C00
FFF000
000000
000000
000000
0FF000
ENDCHAR
STARTCHAR uni1E0F
ENCODING 7695
SWIDTH 539 0
DWIDTH 15 0
BBX 13 24 1 -4
BITMAP
0060
01E0
0060
0060
0060
0060
0FE0
38E0
6060
6060
E060
C060
C060
C060
C060
E060
E060
70E0
7F78
1E78
0000
0000
0000
3FE0
ENDCHAR
STARTCHAR uni1E10
ENCODING 7696
SWIDTH 730 0
DWIDTH 20 0
BBX 18 27 1 -8
BITMAP
FFF000
387C00
180F00
180700
180380
180380
1801C0
1801C0
1801C0
1801C0
1801C0
1801C0
1801C0
180180
180380
180300
180700
383C00
FFF000
000000
000000
018000
03C000
01C000
00C000
008000
030000
ENDCHAR
STARTCHAR uni1E11
ENCODING 7697
SWIDTH 539 0
DWIDTH 15 0
BBX 13 28 1 -8
BITMAP
0060
01E0
0060
0060
0060
0060
0FE0
38E0
6060
6060
E060
C060
C060
C060
C060
E060
E060
70E0
7F78
1E78
0000
0000
0700
0700
0700
0100
0100
0600
ENDCHAR
STARTCHAR uni1E12
ENCODING 7698
SWIDTH 730 0
DWIDTH 20 0
BBX 18 25 1 -6
BITMAP
FFF000
387C00
180F00
180700
180380
180380
1801C0
1801C0
1801C0
1801C0
1801C0
1801C0
1801C0
180180
180380
180300
180700
383C00
FFF000
000000
018000
03C000
03C000
066000
0C3000
ENDCHAR
STARTCHAR uni1E13
ENCODING 7699
SWIDTH 539 0
DWIDTH 15 0
BBX 13 26 1 -6
BITMAP
0060
01E0
0060
0060
0060
0060
0FE0
38E0
6060
6060
E060
C060
C060
C060
C060
E060
E060
70E0
7F78
1E78
0000
0200
0700
0D80
0880
1040
ENDCHAR
STARTCHAR uni1E14
ENCODING 7700
SWIDTH 626 0
DWIDTH 18 0
BBX 16 27 1 0
BITMAP
0700
0380
0180
0060
0000
0FF0
0000
0000
FFFE
380E
1806
1802
1800
1808
1808
1818
1818
1FF8
1818
1808
1800
1801
1803
1802
1806
380E
FFFE
ENDCHAR
STARTCHAR uni1E15
ENCODING 7701
SWIDTH 464 0
DWIDTH 13 0
BBX 11 24 1 0
BITMAP
1800
1C00
0C00
0600
0200
0000
0000
3FC0
0000
0000
1F00
3180
60C0
40E0
C0E0
FFE0
C000
C000
E000
E000
7020
7840
3FC0
1F00
ENDCHAR
STARTCHAR uni1E16
ENCODING 7702
SWIDTH 626 0
DWIDTH 18 0
BBX 16 27 1 0
BITMAP
00E0
01C0
0180
0600
0000
0FF0
0000
0000
FFFE
380E
1806
1802
1800
1808
1808
1818
1818
1FF8
1818
1808
1800
1801
1803
1802
1806
380E
FFFE
ENDCHAR
STARTCHAR uni1E17
ENCODING 7703
SWIDTH 464 0
DWIDTH 13 0
BBX 11 24 1 0
BITMAP
0380
0300
0700
0600
0C00
0000
0000
3FC0
0000
0000
1F00
3180
60C0
40E0
C0E0
FFE0
C000
C000
E000
E000
7020
7840
3FC0
1F00
ENDCHAR
STARTCHAR uni1E18
ENCODING 7704
SWIDTH 626 0
DWIDTH 18 0
BBX 16 25 1 -6
BITMAP
FFFE
380E
1806
1802
1800
1808
1808
1818
1818
1FF8
1818
1808
1800
1801
1803
1802
1806
380E
FFFE
0000
0180
03C0
03C0
0660
0C30
ENDCHAR
STARTCHAR uni1E19
ENCODING 7705
SWIDTH 464 0
DWIDTH 13 0
BBX 11 20 1 -6
BITMAP
1F00
3180
60C0
40E0
C0E0
FFE0
C000
C000
E000
E000
7020
7840
3FC0
1F00
0000
0600
0E00
0B00
1180
20C0
ENDCHAR
STARTCHAR uni1E1A
ENCODING 7706
SWIDTH 626 0
DWIDTH 18 0
BBX 16 23 1 -4
BITMAP
FFFE
380E
1806
1802
1800
1808
1808
1818
1818
1FF8
1818
1808
1800
1801
1803
1802
1806
380E
FFFE
0000
0710
0F90
11E0
ENDCHAR
STARTCHAR uni1E1B
ENCODING 7707
SWIDTH 464 0
DWIDTH 13 0
BBX 11 18 1 -4
BITMAP
1F00
3180
60C0
40E0
C0E0
FFE0
C000
C000
E000
E000
7020
7840
3FC0
1F00
0000
1840
3E40
4780
ENDCHAR
STARTCHAR uni1E1C
ENCODING 7708
SWIDTH 626 0
DWIDTH 18 0
BBX 16 32 1 -6
BITMAP
0810
0810
0C30
07E0
03C0
0000
0000
FFFE
380E
1806
1802
1800
1808
1808
1818
1818
1FF8
1818
1808
1800
1801
1803
1802
1806
380E
FFFE
0100
0100
01C0
0060
0060
03C0
ENDCHAR
STARTCHAR uni1E1D
ENCODING 7709
SWIDTH 464 0
DWIDTH 13 0
BBX 11 26 1 -6
BITMAP
2040
2040
2080
3F80
0F00
0000
1F00
3180
60C0
40E0
C0E0
FFE0
C000
C000
E000
E000
7020
7840
3FC0
1F00
0400
0400
0F00
0100
0100
1F00
ENDCHAR
STARTCHAR uni1E1E
ENCODING 7710
SWIDTH 588 0
DWIDTH 16 0
BBX 15 23 1 0
BITMAP
0180
01C0
0180
0000
FFFE
380E
1802
1802
1800
1808
1818
1818
1818
1FF8
1818
1808
1800
1800
1800
1800
1800
3C00
FF00
ENDCHAR
STARTCHAR uni1E1F
ENCODING 7711
SWIDTH 307 0
DWIDTH 9 0
BBX 11 24 0 0
BITMAP
1800
1C00
1800
07C0
0DE0
08E0
1800
1800
1800
1800
7F80
1800
1800
1800
1800
1800
1800
1800
1800
1800
1800
1800
3C00
FF00
ENDCHAR
STARTCHAR uni1E20
ENCODING 7712
SWIDTH 720 0
DWIDTH 20 0
BBX 18 22 1 0
BITMAP
07FC00
000000
000000
03F900
0E0F00
1C0700
380300
700300
700100
700100
600000
E00000
E00000
E01FC0
600780
700300
700300
700300
380300
1C0300
0F0F00
03F800
ENDCHAR
STARTCHAR uni1E21
ENCODING 7713
SWIDTH 484 0
DWIDTH 14 0
BBX 12 23 1 -6
BITMAP
3FC0
0000
0000
1FF0
31C0
60C0
60E0
E0E0
E0E0
60C0
71C0
1F00
6000
6000
E000
7FE0
7FF0
4030
C010
C010
C020
E0C0
7F00
ENDCHAR
STARTCHAR uni1E22
ENCODING 7714
SWIDTH 777 0
DWIDTH 22 0
BBX 20 23 1 0
BITMAP
006000
00F000
006000
000000
FF0FF0
3C03C0
180380
180380
180380
180380
180380
180380
180380
1FFF80
180380
180380
180380
180380
180380
180380
180380
3C03C0
FF0FF0
ENDCHAR
STARTCHAR uni1E23
ENCODING 7715
SWIDTH 577 0
DWIDTH 16 0
BBX 15 24 1 0
BITMAP
0300
0380
0300
0000
7000
F000
3000
3000
3000
3000
31E0
37F0
3C70
3030
3030
3038
3038
3038
3038
3038
3038
3038
7038
FCFE
ENDCHAR
STARTCHAR uni1E24
ENCODING 7716
SWIDTH 777 0
DWIDTH 22 0
BBX 20 24 1 -5
BITMAP
FF0FF0
3C03C0
180380
180380
180380
180380
180380
180380
180380
1FFF80
180380
180380
180380
180380
180380
180380
180380
3C03C0
FF0FF0
000000
000000
006000
00F000
006000
ENDCHAR
STARTCHAR uni1E25
ENCODING 7717
SWIDTH 577 0
DWIDTH 16 0
BBX 15 25 1 -5
BITMAP
7000
F000
3000
3000
3000
3000
31E0
37F0
3C70
3030
3030
3038
3038
3038
3038
3038
3038
3038
7038
FCFE
0000
0000
0300
0380
0300
ENDCHAR
STARTCHAR uni1E26
ENCODING 7718
SWIDTH 777 0
DWIDTH 22 0
BBX 20 23 1 0
BITMAP
030C00
071E00
030C00
000000
FF0FF0
3C03C0
180380
180380
180380
180380
180380
180380
180380
1FFF80
180380
180380
180380
180380
180380
180380
180380
3C03C0
FF0FF0
ENDCHAR
STARTCHAR uni1E27
ENCODING 7719
SWIDTH 577 0
DWIDTH 16 0
BBX 15 24 1 0
BITMAP
1860
1C70
1860
0000
7000
F000
3000
3000
3000
3000
31E0
37F0
3C70
3030
3030
3038
3038
3038
3038
3038
3038
3038
7038
FCFE
ENDCHAR
STARTCHAR uni1E28
ENCODING 7720
SWIDTH 777 0
DWIDTH 22 0
BBX 20 25 1 -6
BITMAP
FF0FF0
3C03C0
180380
180380
180380
180380
180380
180380
180380
1FFF80
180380
180380
180380
180380
180380
180380
180380
3C03C0
FF0FF0
100000
100000
1C0000
060000
060000
7C0000
ENDCHAR
STARTCHAR uni1E29
ENCODING 7721
SWIDTH 577 0
DWIDTH 16 0
BBX 15 26 1 -6
BITMAP
7000
F000
3000
3000
3000
3000
31E0
37F0
3C70
3030
3030
3038
3038
3038
3038
3038
3038
3038
7038
FCFE
2000
2000
7800
0C00
0800
F800
ENDCHAR
STARTCHAR uni1E2A
ENCODING 7722
SWIDTH 777 0
DWIDTH 22 0
BBX 20 25 1 -6
BITMAP
FF0FF0
3C03C0
180380
180380
180380
180380
180380
180380
180380
1FFF80
180380
180380
180380
180380
180380
180380
180380
3C03C0
FF0FF0
000000
020400
020400
030C00
01F800
00F000
ENDCHAR
STARTCHAR uni1E2B
ENCODING 7723
SWIDTH 577 0
DWIDTH 16 0
BBX 15 26 1 -6
BITMAP
7000
F000
3000
3000
3000
3000
31E0
37F0
3C70
3030
3030
3038
3038
3038
3038
3038
3038
3038
7038
FCFE
0000
1020
1020
1860
0FC0
0780
ENDCHAR
STARTCHAR uni1E2C
ENCODING 7724
SWIDTH 357 0
DWIDTH 10 0
BBX 9 23 0 -4
BITMAP
7F80
1E00
0C00
0C00
0C00
0C00
0C00
0C00
0C00
0C00
0C00
0C00
0C00
0C00
0C00
0C00
0C00
1E00
7F80
0000
3880
7C80
8F00
ENDCHAR
STARTCHAR uni1E2D
ENCODING 7725
SWIDTH 285 0
DWIDTH 8 0
BBX 9 23 -1 -4
BITMAP
0C00
1E00
0C00
0000
0000
1C00
3C00
0C00
0C00
0C00
0C00
0C00
0C00
0C00
0C00
0C00
0C00
0E00
3F00
0000
3880
7C80
8F00
ENDCHAR
STARTCHAR uni1E2E
ENCODING 7726
SWIDTH 357 0
DWIDTH 10 0
BBX 10 28 0 0
BITMAP
0700
0E00
0C00
3000
0000
6180
F1C0
6180
0000
7F80
1E00
0C00
0C00
0C00
0C00
0C00
0C00
0C00
0C00
0C00
0C00
0C00
0C00
0C00
0C00
0C00
1E00
7F80
ENDCHAR
STARTCHAR uni1E2F
ENCODING 7727
SWIDTH 285 0
DWIDTH 8 0
BBX 9 24 -1 0
BITMAP
0700
0600
0C00
0800
1800
6300
E380
6300
0000
0000
1C00
3C00
0C00
0C00
0C00
0C00
0C00
0C00
0C00
0C00
0C00
0C00
0E00
3F00
ENDCHAR
STARTCHAR uni1E30
ENCODING 7728
SWIDTH 702 0
DWIDTH 20 0
BBX 18 24 1 0
BITMAP
007000
00E000
01C000
030000
000000
FF3F80
3C0F00
180C00
181800
183000
186000
18C000
198000
1B0000
1F0000
1B8000
19C000
18E000
187000
183800
181C00
180E00
3C0F80
FF3FC0
ENDCHAR
STARTCHAR uni1E31
ENCODING 7729
SWIDTH 542 0
DWIDTH 15 0
BBX 14 25 1 0
BITMAP
01C0
0380
0700
0C00
0000
7000
F000
3000
3000
3000
3000
31F8
30E0
30C0
3180
3300
3400
3E00
3700
3380
31C0
31C0
30E0
7070
FCFC
ENDCHAR
STARTCHAR uni1E32
ENCODING 7730
SWIDTH 702 0
DWIDTH 20 0
BBX 18 24 1 -5
BITMAP
FF3F80
3C0F00
180C00
181800
183000
186000
18C000
198000
1B0000
1F0000
1B8000
19C000
18E000
187000
183800
181C00
180E00
3C0F80
FF3FC0
000000
000000
00C000
01C000
00C000
ENDCHAR
STARTCHAR uni1E33
ENCODING 7731
SWIDTH 542 0
DWIDTH 15 0
BBX 14 25 1 -5
BITMAP
7000
F000
3000
3000
3000
3000
31F8
30E0
30C0
3180
3300
3400
3E00
3700
3380
31C0
31C0
30E0
7070
FCFC
0000
0000
0700
0700
0700
ENDCHAR
STARTCHAR uni1E34
ENCODING 7732
SWIDTH 702 0
DWIDTH 20 0
BBX 18 23 1 -4
BITMAP
FF3F80
3C0F00
180C00
181800
183000
186000
18C000
198000
1B0000
1F0000
1B8000
19C000
18E000
187000
183800
181C00
180E00
3C0F80
FF3FC0
000000
000000
000000
07F800
ENDCHAR
STARTCHAR uni1E35
ENCODING 7733
SWIDTH 542 0
DWIDTH 15 0
BBX 14 24 1 -4
BITMAP
7000
F000
3000
3000
3000
3000
31F8
30E0
30C0
3180
3300
3400
3E00
3700
3380
31C0
31C0
30E0
7070
FCFC
0000
0000
0000
1FE0
ENDCHAR
STARTCHAR uni1E36
ENCODING 7734
SWIDTH 585 0
DWIDTH 16 0
BBX 15 24 1 -5
BITMAP
FF00
3C00
1800
1800
1800
1800
1800
1800
1800
1800
1800
1800
1800
1800
1802
1806
1804
3C1C
FFFC
0000
0000
0300
0380
0300
ENDCHAR
STARTCHAR uni1E37
ENCODING 7735
SWIDTH 283 0
DWIDTH 8 0
BBX 6 25 1 -5
BITMAP
30
F0
30
30
30
30
30
30
30
30
30
30
30
30
30
30
30
30
70
FC
00
00
30
78
30
ENDCHAR
STARTCHAR uni1E38
ENCODING 7736
SWIDTH 585 0
DWIDTH 16 0
BBX 15 27 1 -5
BITMAP
FF00
0000
0000
FF00
3C00
1800
1800
1800
1800
1800
1800
1800
1800
1800
1800
1800
1800
1802
1806
1804
3C1C
FFFC
0000
0000
0300
0380
0300
ENDCHAR
STARTCHAR uni1E39
ENCODING 7737
SWIDTH 283 0
DWIDTH 8 0
BBX 8 28 0 -5
BITMAP
FF
00
00
18
78
18
18
18
18
18
18
18
18
18
18
18
18
18
18
18
18
38
7E
00
00
18
3C
18
ENDCHAR
STARTCHAR uni1E3A
ENCODING 7738
SWIDTH 585 0
DWIDTH 16 0
BBX 15 23 1 -4
BITMAP
FF00
3C00
1800
1800
1800
1800
1800
1800
1800
1800
1800
1800
1800
1800
1802
1806
1804
3C1C
FFFC
0000
0000
0000
1FE0
ENDCHAR
STARTCHAR uni1E3B
ENCODING 7739
SWIDTH 283 0
DWIDTH 8 0
BBX 8 24 0 -4
BITMAP
18
78
18
18
18
18
18
18
18
18
18
18
18
18
18
18
18
18
38
7E
00
00
00
FF
ENDCHAR
STARTCHAR uni1E3C
ENCODING 7740
SWIDTH 585 0
DWIDTH 16 0
BBX 15 25 1 -6
BITMAP
FF00
3C00
1800
1800
1800
1800
1800
1800
1800
1800
1800
1800
1800
1800
1802
1806
1804
3C1C
FFFC
0000
0300
0380
0680
0C40
1820
ENDCHAR
STARTCHAR uni1E3D
ENCODING 7741
SWIDTH 283 0
DWIDTH 8 0
BBX 8 26 0 -6
BITMAP
18
78
18
18
18
18
18
18
18
18
18
18
18
18
18
18
18
18
38
7E
00
18
3C
3C
66
C3
ENDCHAR
STARTCHAR uni1E3E
ENCODING 7742
SWIDTH 895 0
DWIDTH 25 0
BBX 23 24 1 0
BITMAP
001C00
001C00
003000
006000
000000
FC007E
3C0078
3E00F0
3E00F0
3E00B0
3701B0
370130
338330
338330
318230
31C630
31C430
30EC30
30EC30
307830
307830
307030
303078
FC21FE
ENDCHAR
STARTCHAR uni1E3F
ENCODING 7743
SWIDTH 852 0
DWIDTH 24 0
BBX 22 20 1 0
BITMAP
000C00
001C00
001800
003000
002000
000000
F3E3E0
347470
383830
303030
303030
303030
303030
303030
303030
303030
303030
303030
387878
FCFCFC
ENDCHAR
STARTCHAR uni1E40
ENCODING 7744
SWIDTH 895 0
DWIDTH 25 0
BBX 23 23 1 0
BITMAP
003000
003800
003000
000000
FC007E
3C0078
3E00F0
3E00F0
3E00B0
3701B0
370130
338330
338330
318230
31C630
31C430
30EC30
30EC30
307830
307830
307030
303078
FC21FE
ENDCHAR
STARTCHAR uni1E41
ENCODING 7745
SWIDTH 852 0
DWIDTH 24 0
BBX 22 19 1 0
BITMAP
003000
007800
003000
000000
000000
F3E3E0
347470
383830
303030
303030
303030
303030
303030
303030
303030
303030
303030
387878
FCFCFC
ENDCHAR
STARTCHAR uni1E42
ENCODING 7746
SWIDTH 895 0
DWIDTH 25 0
BBX 23 24 1 -5
BITMAP
FC007E
3C0078
3E00F0
3E00F0
3E00B0
3701B0
370130
338330
338330
318230
31C630
31C430
30EC30
30EC30
307830
307830
307030
303078
FC21FE
000000
000000
003000
007000
003000
ENDCHAR
STARTCHAR uni1E43
ENCODING 7747
SWIDTH 852 0
DWIDTH 24 0
BBX 22 19 1 -5
BITMAP
F3E3E0
347470
383830
303030
303030
303030
303030
303030
303030
303030
303030
303030
387878
FCFCFC
000000
000000
003000
007800
003000
ENDCHAR
STARTCHAR uni1E44
ENCODING 7748
SWIDTH 742 0
DWIDTH 21 0
BBX 19 23 1 0
BITMAP
00E000
00E000
00E000
000000
F80FE0
7C0380
3C0180
3E0180
3F0180
378100
338100
31C100
31E100
30F100
307100
303900
301D00
301F00
300F00
300700
300300
380300
FC0100
ENDCHAR
STARTCHAR uni1E45
ENCODING 7749
SWIDTH 576 0
DWIDTH 16 0
BBX 15 19 1 0
BITMAP
0380
0380
0380
0000
0000
71E0
F7F0
3C70
3030
3030
3030
3030
3030
3030
3030
3030
3030
3838
FCFE
ENDCHAR
STARTCHAR uni1E46
ENCODING 7750
SWIDTH 742 0
DWIDTH 21 0
BBX 19 24 1 -5
BITMAP
F80FE0
7C0380
3C0180
3E0180
3F0180
378100
338100
31C100
31E100
30F100
307100
303900
301D00
301F00
300F00
300700
300300
380300
FC0100
000000
000000
00C000
01E000
00C000
ENDCHAR
STARTCHAR uni1E47
ENCODING 7751
SWIDTH 576 0
DWIDTH 16 0
BBX 15 19 1 -5
BITMAP
71E0
F7F0
3C70
3030
3030
3030
3030
3030
3030
3030
3030
3030
3838
FCFE
0000
0000
0300
0380
0300
ENDCHAR
STARTCHAR uni1E48
ENCODING 7752
SWIDTH 742 0
DWIDTH 21 0
BBX 19 23 1 -4
BITMAP
F80FE0
7C0380
3C0180
3E0180
3F0180
378100
338100
31C100
31E100
30F100
307100
303900
301D00
301F00
300F00
300700
300300
380300
FC0100
000000
000000
000000
07F800
ENDCHAR
STARTCHAR uni1E49
ENCODING 7753
SWIDTH 576 0
DWIDTH 16 0
BBX 15 18 1 -4
BITMAP
71E0
F7F0
3C70
3030
3030
3030
3030
3030
3030
3030
3030
3030
3838
FCFE
0000
0000
0000
1FE0
ENDCHAR
STARTCHAR uni1E4A
ENCODING 7754
SWIDTH 742 0
DWIDTH 21 0
BBX 19 25 1 -6
BITMAP
F80FE0
7C0380
3C0180
3E0180
3F0180
378100
338100
31C100
31E100
30F100
307100
303900
301D00
301F00
300F00
300700
300300
380300
FC0100
000000
00C000
01E000
01E000
033000
061800
ENDCHAR
STARTCHAR uni1E4B
ENCODING 7755
SWIDTH 576 0
DWIDTH 16 0
BBX 15 20 1 -6
BITMAP
71E0
F7F0
3C70
3030
3030
3030
3030
3030
3030
3030
3030
3030
3838
FCFE
0000
0300
0380
0680
0C40
1820
ENDCHAR
STARTCHAR uni1E4C
ENCODING 7756
SWIDTH 738 0
DWIDTH 21 0
BBX 18 28 1 0
BITMAP
003000
007000
00C000
018000
03C400
07FC00
047800
000000
000000
03F800
0E1E00
1C0700
380380
700380
7001C0
7001C0
6001C0
E001C0
E001C0
E001C0
6001C0
7001C0
7001C0
700380
380380
1C0700
0E0E00
03F800
ENDCHAR
STARTCHAR uni1E4D
ENCODING 7757
SWIDTH 514 0
DWIDTH 14 0
BBX 12 24 1 0
BITMAP
0180
0380
0300
0600
0400
1C20
3F60
23C0
0000
0000
0F80
38C0
7060
6070
E030
E030
E030
E030
E030
E030
6070
7060
38C0
1F80
ENDCHAR
STARTCHAR uni1E4E
ENCODING 7758
SWIDTH 738 0
DWIDTH 21 0
BBX 18 26 1 0
BITMAP
061C00
071C00
07DC00
07FC00
047800
000000
000000
03F800
0E1E00
1C0700
380380
700380
7001C0
7001C0
6001C0
E001C0
E001C0
E001C0
6001C0
7001C0
7001C0
700380
380380
1C0700
0E0E00
03F800
ENDCHAR
STARTCHAR uni1E4F
ENCODING 7759
SWIDTH 514 0
DWIDTH 14 0
BBX 12 23 1 0
BITMAP
30E0
38E0
30E0
0000
1C20
3F60
23C0
0000
0000
0F80
38C0
7060
6070
E030
E030
E030
E030
E030
E030
6070
7060
38C0
1F80
ENDCHAR
STARTCHAR uni1E50
ENCODING 7760
SWIDTH 738 0
DWIDTH 21 0
BBX 18 27 1 0
BITMAP
038000
01C000
00E000
003000
000000
07F800
000000
000000
03F800
0E1E00
1C0700
380380
700380
7001C0
7001C0
6001C0
E001C0
E001C0
E001C0
6001C0
7001C0
7001C0
700380
380380
1C0700
0E0E00
03F800
ENDCHAR
STARTCHAR uni1E51
ENCODING 7761
SWIDTH 514 0
DWIDTH 14 0
BBX 12 24 1 0
BITMAP
1C00
0C00
0600
0600
0300
0000
0000
3FC0
0000
0000
0F80
38C0
7060
6070
E030
E030
E030
E030
E030
E030
6070
7060
38C0
1F80
ENDCHAR
STARTCHAR uni1E52
ENCODING 7762
SWIDTH 738 0
DWIDTH 21 0
BBX 18 27 1 0
BITMAP
003000
007000
00C000
018000
000000
07F800
000000
000000
03F800
0E1E00
1C0700
380380
700380
7001C0
7001C0
6001C0
E001C0
E001C0
E001C0
6001C0
7001C0
7001C0
700380
380380
1C0700
0E0E00
03F800
ENDCHAR
STARTCHAR uni1E53
ENCODING 7763
SWIDTH 514 0
DWIDTH 14 0
BBX 12 24 1 0
BITMAP
0180
0380
0300
0600
0400
0000
0000
3FC0
0000
0000
0F80
38C0
7060
6070
E030
E030
E030
E030
E030
E030
6070
7060
38C0
1F80
ENDCHAR
STARTCHAR uni1E54
ENCODING 7764
SWIDTH 569 0
DWIDTH 16 0
BBX 14 24 1 0
BITMAP
01C0
01C0
0300
0E00
0000
FFE0
3878
181C
181C
181C
181C
181C
181C
1818
1830
1FE0
1800
1800
1800
1800
1800
1800
3C00
FF00
ENDCHAR
STARTCHAR uni1E55
ENCODING 7765
SWIDTH 537 0
DWIDTH 15 0
BBX 13 26 1 -6
BITMAP
01C0
0180
0300
0200
0600
0000
73C0
F7F0
3870
3038
3038
3038
3038
3038
3038
3038
3030
3030
3CE0
3780
3000
3000
3000
3000
7800
FE00
ENDCHAR
STARTCHAR uni1E56
ENCODING 7766
SWIDTH 569 0
DWIDTH 16 0
BBX 14 23 1 0
BITMAP
0300
0380
0300
0000
FFE0
3878
181C
181C
181C
181C
181C
181C
1818
1830
1FE0
1800
1800
1800
1800
1800
1800
3C00
FF00
ENDCHAR
STARTCHAR uni1E57
ENCODING 7767
SWIDTH 537 0
DWIDTH 15 0
BBX 13 25 1 -6
BITMAP
0700
0700
0700
0000
0000
73C0
F7F0
3870
3038
3038
3038
3038
3038
3038
3038
3030
3030
3CE0
3780
3000
3000
3000
3000
7800
FE00
ENDCHAR
STARTCHAR uni1E58
ENCODING 7768
SWIDTH 659 0
DWIDTH 18 0
BBX 18 23 1 0
BITMAP
018000
038000
018000
000000
FFE000
387800
181C00
181C00
181C00
181C00
181C00
181800
187000
1FC000
19C000
18E000
187000
187800
183800
181C00
181E00
3C0F00
FF07C0
ENDCHAR
STARTCHAR uni1E59
ENCODING 7769
SWIDTH 380 0
DWIDTH 11 0
BBX 9 19 1 0
BITMAP
1C00
1C00
1C00
0000
0000
3380
F780
3580
3800
3000
3000
3000
3000
3000
3000
3000
3000
3800
FE00
ENDCHAR
STARTCHAR uni1E5A
ENCODING 7770
SWIDTH 659 0
DWIDTH 18 0
BBX 18 24 1 -5
BITMAP
FFE000
387800
181C00
181C00
181C00
181C00
181C00
181800
187000
1FC000
19C000
18E000
187000
187800
183800
181C00
181E00
3C0F00
FF07C0
000000
000000
018000
01C000
01C000
ENDCHAR
STARTCHAR uni1E5B
ENCODING 7771
SWIDTH 380 0
DWIDTH 11 0
BBX 9 19 1 -5
BITMAP
3380
F780
3580
3800
3000
3000
3000
3000
3000
3000
3000
3000
3800
FE00
0000
0000
3000
3800
3000
ENDCHAR
STARTCHAR uni1E5C
ENCODING 7772
SWIDTH 659 0
DWIDTH 18 0
BBX 18 27 1 -5
BITMAP
0FF000
000000
000000
FFE000
387800
181C00
181C00
181C00
181C00
181C00
181800
187000
1FC000
19C000
18E000
187000
187800
183800
181C00
181E00
3C0F00
FF07C0
000000
000000
018000
01C000
01C000
ENDCHAR
STARTCHAR uni1E5D
ENCODING 7773
SWIDTH 380 0
DWIDTH 11 0
BBX 9 22 1 -5
BITMAP
FF00
0000
0000
3380
F780
3580
3800
3000
3000
3000
3000
3000
3000
3000
3000
3800
FE00
0000
0000
3000
3800
3000
ENDCHAR
STARTCHAR uni1E5E
ENCODING 7774
SWIDTH 659 0
DWIDTH 18 0
BBX 18 23 1 -4
BITMAP
FFE000
387800
181C00
181C00
181C00
181C00
181C00
181800
187000
1FC000
19C000
18E000
187000
187800
183800
181C00
181E00
3C0F00
FF07C0
000000
000000
000000
0FF000
ENDCHAR
STARTCHAR uni1E5F
ENCODING 7775
SWIDTH 380 0
DWIDTH 11 0
BBX 10 18 0 -4
BITMAP
19C0
7BC0
1AC0
1C00
1800
1800
1800
1800
1800
1800
1800
1800
1C00
7F00
0000
0000
0000
FF00
ENDCHAR
STARTCHAR uni1E60
ENCODING 7776
SWIDTH 504 0
DWIDTH 14 0
BBX 12 23 1 0
BITMAP
0600
0700
0600
0000
1F20
30E0
6060
E020
E020
E020
7000
7C00
3F00
0F80
07E0
01F0
00F0
8070
8030
C070
C070
F0E0
9F80
ENDCHAR
STARTCHAR uni1E61
ENCODING 7777
SWIDTH 394 0
DWIDTH 11 0
BBX 9 19 1 0
BITMAP
1C00
1C00
1C00
0000
0000
3F00
6300
C100
C100
E080
7800
3C00
1F00
0780
8380
8180
C180
E380
BE00
ENDCHAR
STARTCHAR uni1E62
ENCODING 7778
SWIDTH 504 0
DWIDTH 14 0
BBX 12 24 1 -5
BITMAP
1F20
30E0
6060
E020
E020
E020
7000
7C00
3F00
0F80
07E0
01F0
00F0
8070
8030
C070
C070
F0E0
9F80
0000
0000
0600
0E00
0600
ENDCHAR
STARTCHAR uni1E63
ENCODING 7779
SWIDTH 394 0
DWIDTH 11 0
BBX 9 19 1 -5
BITMAP
3F00
6300
C100
C100
E080
7800
3C00
1F00
0780
8380
8180
C180
E380
BE00
0000
0000
1C00
1C00
1C00
ENDCHAR
STARTCHAR uni1E64
ENCODING 7780
SWIDTH 504 0
DWIDTH 14 0
BBX 12 25 1 0
BITMAP
1000
18E0
19C0
0300
0600
0000
1F20
30E0
6060
E020
E020
E020
7000
7C00
3F00
0F80
07E0
01F0
00F0
8070
8030
C070
C070
F0E0
9F80
ENDCHAR
STARTCHAR uni1E65
ENCODING 7781
SWIDTH 394 0
DWIDTH 11 0
BBX 9 21 1 0
BITMAP
3000
7700
2700
0600
0C00
0800
1000
3F00
6300
C100
C100
E080
7800
3C00
1F00
0780
8380
8180
C180
E380
BE00
ENDCHAR
STARTCHAR uni1E66
ENCODING 7782
SWIDTH 504 0
DWIDTH 14 0
BBX 12 26 1 0
BITMAP
0700
0700
30C0
1980
0F00
0700
0000
1F20
30E0
6060
E020
E020
E020
7000
7C00
3F00
0F80
07E0
01F0
00F0
8070
8030
C070
C070
F0E0
9F80
ENDCHAR
STARTCHAR uni1E67
ENCODING 7783
SWIDTH 394 0
DWIDTH 11 0
BBX 9 22 1 0
BITMAP
1C00
1C00
4980
6300
3600
1E00
1C00
0000
3F00
6300
C100
C100
E080
7800
3C00
1F00
0780
8380
8180
C180
E380
BE00
ENDCHAR
STARTCHAR uni1E68
ENCODING 7784
SWIDTH 504 0
DWIDTH 14 0
BBX 12 28 1 -5
BITMAP
0600
0700
0600
0000
1F20
30E0
6060
E020
E020
E020
7000
7C00
3F00
0F80
07E0
01F0
00F0
8070
8030
C070
C070
F0E0
9F80
0000
0000
0600
0E00
0600
ENDCHAR
STARTCHAR uni1E69
ENCODING 7785
SWIDTH 394 0
DWIDTH 11 0
BBX 9 24 1 -5
BITMAP
1C00
1C00
1C00
0000
0000
3F00
6300
C100
C100
E080
7800
3C00
1F00
0780
8380
8180
C180
E380
BE00
0000
0000
1C00
1C00
1C00
ENDCHAR
STARTCHAR uni1E6A
ENCODING 7786
SWIDTH 603 0
DWIDTH 17 0
BBX 16 23 0 0
BITMAP
01C0
01C0
01C0
0000
7FFF
61C3
41C1
41C1
81C1
01C0
01C0
01C0
01C0
01C0
01C0
01C0
01C0
01C0
01C0
01C0
01C0
03C0
0FF8
ENDCHAR
STARTCHAR uni1E6B
ENCODING 7787
SWIDTH 315 0
DWIDTH 9 0
BBX 8 22 1 0
BITMAP
38
38
38
00
10
30
30
70
FE
30
30
30
30
30
30
30
30
30
30
30
33
1C
ENDCHAR
STARTCHAR uni1E6C
ENCODING 7788
SWIDTH 603 0
DWIDTH 17 0
BBX 16 24 0 -5
BITMAP
7FFF
61C3
41C1
41C1
81C1
01C0
01C0
01C0
01C0
01C0
01C0
01C0
01C0
01C0
01C0
01C0
01C0
03C0
0FF8
0000
0000
01C0
01C0
01C0
ENDCHAR
STARTCHAR uni1E6D
ENCODING 7789
SWIDTH 315 0
DWIDTH 9 0
BBX 8 23 1 -5
BITMAP
10
30
30
70
FE
30
30
30
30
30
30
30
30
30
30
30
33
1C
00
00
18
1C
18
ENDCHAR
STARTCHAR uni1E6E
ENCODING 7790
SWIDTH 603 0
DWIDTH 17 0
BBX 16 23 0 -4
BITMAP
7FFF
61C3
41C1
41C1
81C1
01C0
01C0
01C0
01C0
01C0
01C0
01C0
01C0
01C0
01C0
01C0
01C0
03C0
0FF8
0000
0000
0000
0FF8
ENDCHAR
STARTCHAR uni1E6F
ENCODING 7791
SWIDTH 315 0
DWIDTH 9 0
BBX 8 22 1 -4
BITMAP
10
30
30
70
FE
30
30
30
30
30
30
30
30
30
30
30
33
1C
00
00
00
FF
ENDCHAR
STARTCHAR uni1E70
ENCODING 7792
SWIDTH 603 0
DWIDTH 17 0
BBX 16 25 0 -6
BITMAP
7FFF
61C3
41C1
41C1
81C1
01C0
01C0
01C0
01C0
01C0
01C0
01C0
01C0
01C0
01C0
01C0
01C0
03C0
0FF8
0000
0080
01C0
0360
0220
0C10
ENDCHAR
STARTCHAR uni1E71
ENCODING 7793
SWIDTH 315 0
DWIDTH 9 0
BBX 8 24 1 -6
BITMAP
10
30
30
70
FE
30
30
30
30
30
30
30
30
30
30
30
33
1C
00
18
1C
34
62
C1
ENDCHAR
STARTCHAR uni1E72
ENCODING 7794
SWIDTH 752 0
DWIDTH 21 0
BBX 20 24 1 -5
BITMAP
FF07F0
3C01C0
380180
380180
380180
380180
380180
380180
380180
380180
380180
380180
380180
380180
180180
1C0300
1E0700
0FFE00
03F800
000000
000000
071C00
071C00
071C00
ENDCHAR
STARTCHAR uni1E73
ENCODING 7795
SWIDTH 570 0
DWIDTH 16 0
BBX 14 19 1 -5
BITMAP
F0F0
7070
3030
3030
3030
3030
3030
3030
3030
3030
3030
3070
38F0
1F3C
0000
0000
3860
38E0
3860
ENDCHAR
STARTCHAR uni1E74
ENCODING 7796
SWIDTH 752 0
DWIDTH 21 0
BBX 20 23 1 -4
BITMAP
FF07F0
3C01C0
380180
380180
380180
380180
380180
380180
380180
380180
380180
380180
380180
380180
180180
1C0300
1E0700
0FFE00
03F800
000000
038400
07EC00
047800
ENDCHAR
STARTCHAR uni1E75
ENCODING 7797
SWIDTH 570 0
DWIDTH 16 0
BBX 14 18 1 -4
BITMAP
F0F0
7070
3030
3030
3030
3030
3030
3030
3030
3030
3030
3070
38F0
1F3C
0000
1C20
1F20
23C0
ENDCHAR
STARTCHAR uni1E76
ENCODING 7798
SWIDTH 752 0
DWIDTH 21 0
BBX 20 25 1 -6
BITMAP
FF07F0
3C01C0
380180
380180
380180
380180
380180
380180
380180
380180
380180
380180
380180
380180
180180
1C0300
1E0700
0FFE00
03F800
000000
006000
00E000
01B000
011800
020C00
ENDCHAR
STARTCHAR uni1E77
ENCODING 7799
SWIDTH 570 0
DWIDTH 16 0
BBX 14 20 1 -6
BITMAP
F0F0
7070
3030
3030
3030
3030
3030
3030
3030
3030
3030
3070
38F0
1F3C
0000
0300
0700
0D80
08C0
1060
ENDCHAR
STARTCHAR uni1E78
ENCODING 7800
SWIDTH 752 0
DWIDTH 21 0
BBX 20 28 1 0
BITMAP
003800
003800
006000
00C000
01E200
03FC00
023C00
000000
000000
FF07F0
3C01C0
380180
380180
380180
380180
380180
380180
380180
380180
380180
380180
380180
380180
180180
1C0300
1E0700
0FFE00
03F800
ENDCHAR
STARTCHAR uni1E79
ENCODING 7801
SWIDTH 570 0
DWIDTH 16 0
BBX 14 24 1 0
BITMAP
01C0
0180
0300
0300
0600
0E20
1F20
23C0
0000
0000
F0F0
7070
3030
3030
3030
3030
3030
3030
3030
3030
3030
3070
38F0
1F3C
ENDCHAR
STARTCHAR uni1E7A
ENCODING 7802
SWIDTH 752 0
DWIDTH 21 0
BBX 20 26 1 0
BITMAP
030C00
078E00
030C00
000000
03FC00
000000
000000
FF07F0
3C01C0
380180
380180
380180
380180
380180
380180
380180
380180
380180
380180
380180
380180
180180
1C0300
1E0700
0FFE00
03F800
ENDCHAR
STARTCHAR uni1E7B
ENCODING 7803
SWIDTH 570 0
DWIDTH 16 0
BBX 14 22 1 0
BITMAP
3860
38E0
3860
0000
0000
1FE0
0000
0000
F0F0
7070
3030
3030
3030
3030
3030
3030
3030
3030
3030
3070
38F0
1F3C
ENDCHAR
STARTCHAR uni1E7C
ENCODING 7804
SWIDTH 680 0
DWIDTH 19 0
BBX 19 24 0 0
BITMAP
01C400
03FC00
047800
000000
000000
FE07E0
7C01C0
380180
1C0180
1C0300
1C0300
0E0200
0E0600
070400
070400
030C00
038800
039800
01D000
01D000
00F000
00E000
00E000
004000
ENDCHAR
STARTCHAR uni1E7D
ENCODING 7805
SWIDTH 481 0
DWIDTH 13 0
BBX 14 19 0 0
BITMAP
0E10
1F20
11E0
0000
0000
FC7C
7018
3010
3830
3820
1860
1C40
0C40
0CC0
0E80
0680
0700
0700
0300
ENDCHAR
STARTCHAR uni1E7E
ENCODING 7806
SWIDTH 680 0
DWIDTH 19 0
BBX 19 24 0 -5
BITMAP
FE07E0
7C01C0
380180
1C0180
1C0300
1C0300
0E0200
0E0600
070400
070400
030C00
038800
039800
01D000
01D000
00F000
00E000
00E000
004000
000000
000000
00E000
00E000
00E000
ENDCHAR
STARTCHAR uni1E7F
ENCODING 7807
SWIDTH 481 0
DWIDTH 13 0
BBX 14 19 0 -5
BITMAP
FC7C
7018
3010
3830
3820
1860
1C40
0C40
0CC0
0E80
0680
0700
0700
0300
0000
0000
0300
0700
0300
ENDCHAR
STARTCHAR Wgrave
ENCODING 7808
SWIDTH 944 0
DWIDTH 26 0
BBX 26 24 0 0
BITMAP
00380000
003C0000
000C0000
00070000
00000000
FE7F07C0
781E0380
380C0300
180E0300
1C0E0300
1C070200
0E070600
0E0F0600
0E0B8400
070B8C00
07198C00
0391C800
03B1D800
03A0D800
01E0F000
01E07000
00C06000
00C06000
00C02000
ENDCHAR
STARTCHAR wgrave
ENCODING 7809
SWIDTH 749 0
DWIDTH 21 0
BBX 21 20 0 0
BITMAP
01C000
00C000
006000
002000
003000
000000
FDF8F8
707030
307020
383020
383860
183840
1C5840
0C5CC0
0CCC80
0E8E80
068F00
070700
030700
030200
ENDCHAR
STARTCHAR Wacute
ENCODING 7810
SWIDTH 944 0
DWIDTH 26 0
BBX 26 24 0 0
BITMAP
00070000
000E0000
001C0000
00300000
00000000
FE7F07C0
781E0380
380C0300
180E0300
1C0E0300
1C070200
0E070600
0E0F0600
0E0B8400
070B8C00
07198C00
0391C800
03B1D800
03A0D800
01E0F000
01E07000
00C06000
00C06000
00C02000
ENDCHAR
STARTCHAR wacute
ENCODING 7811
SWIDTH 749 0
DWIDTH 21 0
BBX 21 20 0 0
BITMAP
001C00
003800
003000
002000
006000
000000
FDF8F8
707030
307020
383020
383860
183840
1C5840
0C5CC0
0CCC80
0E8E80
068F00
070700
030700
030200
ENDCHAR
STARTCHAR Wdieresis
ENCODING 7812
SWIDTH 944 0
DWIDTH 26 0
BBX 26 23 0 0
BITMAP
00618000
00E3C000
00618000
00000000
FE7F07C0
781E0380
380C0300
180E0300
1C0E0300
1C070200
0E070600
0E0F0600
0E0B8400
070B8C00
07198C00
0391C800
03B1D800
03A0D800
01E0F000
01E07000
00C06000
00C06000
00C02000
ENDCHAR
STARTCHAR wdieresis
ENCODING 7813
SWIDTH 749 0
DWIDTH 21 0
BBX 21 19 0 0
BITMAP
038E00
038E00
038E00
000000
000000
FDF8F8
707030
307020
383020
383860
183840
1C5840
0C5CC0
0CCC80
0E8E80
068F00
070700
030700
030200
ENDCHAR
STARTCHAR uni1E86
ENCODING 7814
SWIDTH 944 0
DWIDTH 26 0
BBX 26 23 0 0
BITMAP
000C0000
001C0000
000C0000
00000000
FE7F07C0
781E0380
380C0300
180E0300
1C0E0300
1C070200
0E070600
0E0F0600
0E0B8400
070B8C00
07198C00
0391C800
03B1D800
03A0D800
01E0F000
01E07000
00C06000
00C06000
00C02000
ENDCHAR
STARTCHAR uni1E87
ENCODING 7815
SWIDTH 749 0
DWIDTH 21 0
BBX 21 19 0 0
BITMAP
007000
007000
007000
000000
000000
FDF8F8
707030
307020
383020
383860
183840
1C5840
0C5CC0
0CCC80
0E8E80
068F00
070700
030700
030200
ENDCHAR
STARTCHAR uni1E88
ENCODING 7816
SWIDTH 944 0
DWIDTH 26 0
BBX 26 24 0 -5
BITMAP
FE7F07C0
781E0380
380C0300
180E0300
1C0E0300
1C070200
0E070600
0E0F0600
0E0B8400
070B8C00
07198C00
0391C800
03B1D800
03A0D800
01E0F000
01E07000
00C06000
00C06000
00C02000
00000000
00000000
000E0000
000E0000
000E0000
ENDCHAR
STARTCHAR uni1E89
ENCODING 7817
SWIDTH 749 0
DWIDTH 21 0
BBX 21 19 0 -5
BITMAP
FDF8F8
707030
307020
383020
383860
183840
1C5840
0C5CC0
0CCC80
0E8E80
068F00
070700
030700
030200
000000
000000
007000
007000
007000
ENDCHAR
STARTCHAR uni1E8A
ENCODING 7818
SWIDTH 664 0
DWIDTH 19 0
BBX 18 23 0 0
BITMAP
00E000
00E000
00E000
000000
FF0FC0
3E0700
1E0600
0E0400
070C00
071800
039000
01E000
01E000
00E000
01F000
017000
023800
061C00
0C1C00
080E00
180F00
380F80
FC1FC0
ENDCHAR
STARTCHAR uni1E8B
ENCODING 7819
SWIDTH 479 0
DWIDTH 13 0
BBX 14 19 0 0
BITMAP
0300
0700
0300
0000
0000
FCF8
3870
1860
1C40
0E80
0700
0700
0780
0580
09C0
18E0
3060
6070
F8FC
ENDCHAR
STARTCHAR uni1E8C
ENCODING 7820
SWIDTH 664 0
DWIDTH 19 0
BBX 18 23 0 0
BITMAP
071C00
071C00
071C00
000000
FF0FC0
3E0700
1E0600
0E0400
070C00
071800
039000
01E000
01E000
00E000
01F000
017000
023800
061C00
0C1C00
080E00
180F00
380F80
FC1FC0
ENDCHAR
STARTCHAR uni1E8D
ENCODING 7821
SWIDTH 479 0
DWIDTH 13 0
BBX 14 19 0 0
BITMAP
1860
38E0
1860
0000
0000
FCF8
3870
1860
1C40
0E80
0700
0700
0780
0580
09C0
18E0
3060
6070
F8FC
ENDCHAR
STARTCHAR uni1E8E
ENCODING 7822
SWIDTH 647 0
DWIDTH 18 0
BBX 18 23 0 0
BITMAP
00E000
00E000
00E000
000000
FE0FC0
7C0380
3C0200
1C0600
0E0400
0F0C00
070800
039000
03B000
01E000
00E000
00C000
00C000
00C000
00C000
00C000
00E000
01E000
07F800
ENDCHAR
STARTCHAR uni1E8F
ENCODING 7823
SWIDTH 483 0
DWIDTH 14 0
BBX 14 25 0 -6
BITMAP
0300
0380
0300
0000
0000
FC7C
7018
3030
3830
3820
1C60
1C40
0C40
0EC0
0680
0780
0300
0300
0300
0200
0600
0400
EC00
F800
7000
ENDCHAR
STARTCHAR uni1E90
ENCODING 7824
SWIDTH 594 0
DWIDTH 17 0
BBX 15 24 1 0
BITMAP
0380
03C0
0660
0830
0000
7FFE
701C
4038
4038
4070
00F0
00E0
01C0
03C0
0380
0700
0F00
0E00
1C00
3C02
3806
7004
F00C
FFFC
ENDCHAR
STARTCHAR uni1E91
ENCODING 7825
SWIDTH 458 0
DWIDTH 13 0
BBX 11 20 1 0
BITMAP
0600
0E00
1B00
1180
20C0
0000
FFE0
C1C0
C1C0
8380
0300
0700
0E00
0C00
1C00
3820
3020
7060
E0E0
FFE0
ENDCHAR
STARTCHAR uni1E92
ENCODING 7826
SWIDTH 594 0
DWIDTH 17 0
BBX 15 24 1 -5
BITMAP
7FFE
701C
4038
4038
4070
00F0
00E0
01C0
03C0
0380
0700
0F00
0E00
1C00
3C02
3806
7004
F00C
FFFC
0000
0000
0300
0780
0300
ENDCHAR
STARTCHAR uni1E93
ENCODING 7827
SWIDTH 458 0
DWIDTH 13 0
BBX 11 19 1 -5
BITMAP
FFE0
C1C0
C1C0
8380
0300
0700
0E00
0C00
1C00
3820
3020
7060
E0E0
FFE0
0000
0000
0E00
0E00
0E00
ENDCHAR
STARTCHAR uni1E94
ENCODING 7828
SWIDTH 594 0
DWIDTH 17 0
BBX 15 23 1 -4
BITMAP
7FFE
701C
4038
4038
4070
00F0
00E0
01C0
03C0
0380
0700
0F00
0E00
1C00
3C02
3806
7004
F00C
FFFC
0000
0000
0000
1FE0
ENDCHAR
STARTCHAR uni1E95
ENCODING 7829
SWIDTH 458 0
DWIDTH 13 0
BBX 11 18 1 -4
BITMAP
FFE0
C1C0
C1C0
8380
0300
0700
0E00
0C00
1C00
3820
3020
7060
E0E0
FFE0
0000
0000
0000
7FC0
ENDCHAR
STARTCHAR uni1E96
ENCODING 7830
SWIDTH 577 0
DWIDTH 16 0
BBX 15 24 1 -4
BITMAP
7000
F000
3000
3000
3000
3000
31E0
37F0
3C70
3030
3030
3038
3038
3038
3038
3038
3038
3038
7038
FCFE
0000
0000
0000
1FE0
ENDCHAR
STARTCHAR uni1E97
ENCODING 7831
SWIDTH 315 0
DWIDTH 9 0
BBX 9 22 0 0
BITMAP
E380
E380
E380
0000
0800
1800
1800
3800
7F00
1800
1800
1800
1800
1800
1800
1800
1800
1800
1800
1800
1980
0E00
ENDCHAR
STARTCHAR uni1E98
ENCODING 7832
SWIDTH 749 0
DWIDTH 21 0
BBX 21 21 0 0
BITMAP
007000
009800
008800
008800
008800
007000
000000
FDF8F8
707030
307020
383020
383860
183840
1C5840
0C5CC0
0CCC80
0E8E80
068F00
070700
030700
030200
ENDCHAR
STARTCHAR uni1E99
ENCODING 7833
SWIDTH 483 0
DWIDTH 14 0
BBX 14 27 0 -6
BITMAP
0380
04C0
0C40
0C40
04C0
0780
0000
FC7C
7018
3030
3830
3820
1C60
1C40
0C40
0EC0
0680
0780
0300
0300
0300
0200
0600
0400
EC00
F800
7000
ENDCHAR
STARTCHAR uni1E9A
ENCODING 7834
SWIDTH 480 0
DWIDTH 13 0
BBX 12 21 1 0
BITMAP
0C00
0200
0300
0200
0E00
0000
0000
1F00
7380
61C0
61C0
41C0
01C0
07C0
39C0
61C0
E1C0
E1C0
E1D0
E2F0
7CE0
ENDCHAR
STARTCHAR uni1E9B
ENCODING 7835
SWIDTH 285 0
DWIDTH 8 0
BBX 11 24 0 0
BITMAP
1800
1C00
1800
07C0
0DE0
08E0
1800
1800
1800
1800
7800
1800
1800
1800
1800
1800
1800
1800
1800
1800
1800
1800
3C00
FF00
ENDCHAR
STARTCHAR uni1E9C
ENCODING 7836
SWIDTH 300 0
DWIDTH 8 0
BBX 11 21 0 0
BITMAP
03C0
0CE0
0CE0
1800
1800
1800
1800
7800
1900
1E00
1C00
1800
3800
D800
1800
1800
1800
1800
1C00
1C00
7F00
ENDCHAR
STARTCHAR uni1E9D
ENCODING 7837
SWIDTH 285 0
DWIDTH 8 0
BBX 11 21 0 0
BITMAP
07C0
0DE0
08E0
1800
7F00
1800
1800
7800
1800
1800
1800
1800
1800
1800
1800
1800
1800
1800
1800
3C00
FF00
ENDCHAR
STARTCHAR uni1E9E
ENCODING 7838
SWIDTH 684 0
DWIDTH 19 0
BBX 17 19 1 0
BITMAP
01FE00
070700
0C0E00
1C0E00
181C00
383800
383800
387000
387800
381E00
380700
380380
380380
380380
380380
390380
3B8300
39C600
F8FC00
ENDCHAR
STARTCHAR uni1E9F
ENCODING 7839
SWIDTH 517 0
DWIDTH 14 0
BBX 13 21 1 0
BITMAP
0FC0
18E0
3060
3020
3800
1C00
0E00
0780
0FC0
39E0
70E0
6070
E070
E030
E038
E030
E030
6030
7060
38C0
1F80
ENDCHAR
STARTCHAR uni1EA0
ENCODING 7840
SWIDTH 718 0
DWIDTH 20 0
BBX 20 24 0 -5
BITMAP
006000
006000
00F000
00F000
01B000
01B800
013800
031C00
021C00
061E00
060E00
040E00
0FFF00
080700
180780
180380
3003C0
3003E0
FC0FF0
000000
000000
00E000
00E000
00E000
ENDCHAR
STARTCHAR uni1EA1
ENCODING 7841
SWIDTH 480 0
DWIDTH 13 0
BBX 12 19 1 -5
BITMAP
1F00
7380
61C0
61C0
41C0
01C0
07C0
39C0
61C0
E1C0
E1C0
E1D0
E2F0
7CE0
0000
0000
0E00
0E00
0E00
ENDCHAR
STARTCHAR uni1EA2
ENCODING 7842
SWIDTH 718 0
DWIDTH 20 0
BBX 20 27 0 0
BITMAP
00F000
009800
009800
001800
001000
006000
000000
000000
006000
006000
00F000
00F000
01B000
01B800
013800
031C00
021C00
061E00
060E00
040E00
0FFF00
080700
180780
180380
3003C0
3003E0
FC0FF0
ENDCHAR
STARTCHAR uni1EA3
ENCODING 7843
SWIDTH 480 0
DWIDTH 13 0
BBX 12 21 1 0
BITMAP
0E00
1B00
0900
0100
0300
0400
0000
1F00
7380
61C0
61C0
41C0
01C0
07C0
39C0
61C0
E1C0
E1C0
E1D0
E2F0
7CE0
ENDCHAR
STARTCHAR uni1EA4
ENCODING 7844
SWIDTH 718 0
DWIDTH 20 0
BBX 20 26 0 0
BITMAP
0001C0
000180
006300
00F600
019800
030C00
000000
006000
006000
00F000
00F000
01B000
01B800
013800
031C00
021C00
061E00
060E00
040E00
0FFF00
080700
180780
180380
3003C0
3003E0
FC0FF0
ENDCHAR
STARTCHAR uni1EA5
ENCODING 7845
SWIDTH 480 0
DWIDTH 13 0
BBX 12 22 1 0
BITMAP
0030
0070
0060
0EC0
1F00
1100
2080
0000
1F00
7380
61C0
61C0
41C0
01C0
07C0
39C0
61C0
E1C0
E1C0
E1D0
E2F0
7CE0
ENDCHAR
STARTCHAR uni1EA6
ENCODING 7846
SWIDTH 718 0
DWIDTH 20 0
BBX 20 25 0 0
BITMAP
001C00
006600
00F300
019800
030C00
000000
006000
006000
00F000
00F000
01B000
01B800
013800
031C00
021C00
061E00
060E00
040E00
0FFF00
080700
180780
180380
3003C0
3003E0
FC0FF0
ENDCHAR
STARTCHAR uni1EA7
ENCODING 7847
SWIDTH 480 0
DWIDTH 13 0
BBX 12 22 1 0
BITMAP
0380
0180
00C0
0E40
1F00
1100
2080
0000
1F00
7380
61C0
61C0
41C0
01C0
07C0
39C0
61C0
E1C0
E1C0
E1D0
E2F0
7CE0
ENDCHAR
STARTCHAR uni1EA8
ENCODING 7848
SWIDTH 718 0
DWIDTH 20 0
BBX 20 28 0 0
BITMAP
000E00
001B00
001900
000100
000300
00F400
019800
030C00
000000
006000
006000
00F000
00F000
01B000
01B800
013800
031C00
021C00
061E00
060E00
040E00
0FFF00
080700
180780
180380
3003C0
3003E0
FC0FF0
ENDCHAR
STARTCHAR uni1EA9
ENCODING 7849
SWIDTH 480 0
DWIDTH 13 0
BBX 12 24 1 0
BITMAP
01E0
0130
0130
0030
0060
0E80
1B00
3180
2080
0000
1F00
7380
61C0
61C0
41C0
01C0
07C0
39C0
61C0
E1C0
E1C0
E1D0
E2F0
7CE0
ENDCHAR
STARTCHAR uni1EAA
ENCODING 7850
SWIDTH 718 0
DWIDTH 20 0
BBX 20 27 0 0
BITMAP
01C400
03FC00
023800
000000
00F000
019800
030C00
000000
006000
006000
00F000
00F000
01B000
01B800
013800
031C00
021C00
061E00
060E00
040E00
0FFF00
080700
180780
180380
3003C0
3003E0
FC0FF0
ENDCHAR
STARTCHAR uni1EAB
ENCODING 7851
SWIDTH 480 0
DWIDTH 13 0
BBX 12 23 1 0
BITMAP
1840
3C40
4780
0000
0E00
1F00
1100
2080
0000
1F00
7380
61C0
61C0
41C0
01C0
07C0
39C0
61C0
E1C0
E1C0
E1D0
E2F0
7CE0
ENDCHAR
STARTCHAR uni1EAC
ENCODING 7852
SWIDTH 718 0
DWIDTH 20 0
BBX 20 29 0 -5
BITMAP
006000
00F000
019800
030C00
000000
006000
006000
00F000
00F000
01B000
01B800
013800
031C00
021C00
061E00
060E00
040E00
0FFF00
080700
180780
180380
3003C0
3003E0
FC0FF0
000000
000000
00E000
00E000
00E000
ENDCHAR
STARTCHAR uni1EAD
ENCODING 7853
SWIDTH 480 0
DWIDTH 13 0
BBX 12 25 1 -5
BITMAP
0400
0E00
1B00
1100
2080
0000
1F00
7380
61C0
61C0
41C0
01C0
07C0
39C0
61C0
E1C0
E1C0
E1D0
E2F0
7CE0
0000
0000
0E00
0E00
0E00
ENDCHAR
STARTCHAR uni1EAE
ENCODING 7854
SWIDTH 718 0
DWIDTH 20 0
BBX 20 26 0 0
BITMAP
003800
027400
02C400
030C00
01F800
00F000
000000
006000
006000
00F000
00F000
01B000
01B800
013800
031C00
021C00
061E00
060E00
040E00
0FFF00
080700
180780
180380
3003C0
3003E0
FC0FF0
ENDCHAR
STARTCHAR uni1EAF
ENCODING 7855
SWIDTH 480 0
DWIDTH 13 0
BBX 12 22 1 0
BITMAP
0300
0300
0600
4440
6880
2180
3F00
0E00
1F00
7380
61C0
61C0
41C0
01C0
07C0
39C0
61C0
E1C0
E1C0
E1D0
E2F0
7CE0
ENDCHAR
STARTCHAR uni1EB0
ENCODING 7856
SWIDTH 718 0
DWIDTH 20 0
BBX 20 26 0 0
BITMAP
01C000
02C400
023400
030C00
01F800
00F000
000000
006000
006000
00F000
00F000
01B000
01B800
013800
031C00
021C00
061E00
060E00
040E00
0FFF00
080700
180780
180380
3003C0
3003E0
FC0FF0
ENDCHAR
STARTCHAR uni1EB1
ENCODING 7857
SWIDTH 480 0
DWIDTH 13 0
BBX 12 22 1 0
BITMAP
1800
1800
0C00
4440
6280
2180
3F00
0E00
1F00
7380
61C0
61C0
41C0
01C0
07C0
39C0
61C0
E1C0
E1C0
E1D0
E2F0
7CE0
ENDCHAR
STARTCHAR uni1EB2
ENCODING 7858
SWIDTH 718 0
DWIDTH 20 0
BBX 20 28 0 0
BITMAP
00F000
009800
001800
001000
026400
030C00
01F800
00F000
000000
006000
006000
00F000
00F000
01B000
01B800
013800
031C00
021C00
061E00
060E00
040E00
0FFF00
080700
180780
180380
3003C0
3003E0
FC0FF0
ENDCHAR
STARTCHAR uni1EB3
ENCODING 7859
SWIDTH 480 0
DWIDTH 13 0
BBX 12 24 1 0
BITMAP
0E00
1B00
1300
0300
0200
44C0
2080
3F80
1F00
0000
1F00
7380
61C0
61C0
41C0
01C0
07C0
39C0
61C0
E1C0
E1C0
E1D0
E2F0
7CE0
ENDCHAR
STARTCHAR uni1EB4
ENCODING 7860
SWIDTH 718 0
DWIDTH 20 0
BBX 20 28 0 0
BITMAP
018400
03E400
023800
000000
020400
030C00
01F800
00F000
000000
006000
006000
00F000
00F000
01B000
01B800
013800
031C00
021C00
061E00
060E00
040E00
0FFF00
080700
180780
180380
3003C0
3003E0
FC0FF0
ENDCHAR
STARTCHAR uni1EB5
ENCODING 7861
SWIDTH 480 0
DWIDTH 13 0
BBX 12 23 1 0
BITMAP
1840
3C40
4780
0000
4040
6080
2180
3F00
0E00
1F00
7380
61C0
61C0
41C0
01C0
07C0
39C0
61C0
E1C0
E1C0
E1D0
E2F0
7CE0
ENDCHAR
STARTCHAR uni1EB6
ENCODING 7862
SWIDTH 718 0
DWIDTH 20 0
BBX 20 31 0 -5
BITMAP
020400
020400
030C00
01F800
00F000
000000
000000
006000
006000
00F000
00F000
01B000
01B800
013800
031C00
021C00
061E00
060E00
040E00
0FFF00
080700
180780
180380
3003C0
3003E0
FC0FF0
000000
000000
00E000
00E000
00E000
ENDCHAR
STARTCHAR uni1EB7
ENCODING 7863
SWIDTH 480 0
DWIDTH 13 0
BBX 12 25 1 -5
BITMAP
4040
4080
2080
3F80
1F00
0000
1F00
7380
61C0
61C0
41C0
01C0
07C0
39C0
61C0
E1C0
E1C0
E1D0
E2F0
7CE0
0000
0000
0E00
0E00
0E00
ENDCHAR
STARTCHAR uni1EB8
ENCODING 7864
SWIDTH 626 0
DWIDTH 18 0
BBX 16 24 1 -5
BITMAP
FFFE
380E
1806
1802
1800
1808
1808
1818
1818
1FF8
1818
1808
1800
1801
1803
1802
1806
380E
FFFE
0000
0000
0180
03C0
0180
ENDCHAR
STARTCHAR uni1EB9
ENCODING 7865
SWIDTH 464 0
DWIDTH 13 0
BBX 11 19 1 -5
BITMAP
1F00
3180
60C0
40E0
C0E0
FFE0
C000
C000
E000
E000
7020
7840
3FC0
1F00
0000
0000
0600
0E00
0600
ENDCHAR
STARTCHAR uni1EBA
ENCODING 7866
SWIDTH 626 0
DWIDTH 18 0
BBX 16 27 1 0
BITMAP
03C0
0360
0260
0060
0040
0180
0000
0000
FFFE
380E
1806
1802
1800
1808
1808
1818
1818
1FF8
1818
1808
1800
1801
1803
1802
1806
380E
FFFE
ENDCHAR
STARTCHAR uni1EBB
ENCODING 7867
SWIDTH 464 0
DWIDTH 13 0
BBX 11 21 1 0
BITMAP
0F00
0900
0980
0180
0300
0400
0000
1F00
3180
60C0
40E0
C0E0
FFE0
C000
C000
E000
E000
7020
7840
3FC0
1F00
ENDCHAR
STARTCHAR uni1EBC
ENCODING 7868
SWIDTH 626 0
DWIDTH 18 0
BBX 16 24 1 0
BITMAP
0708
0FF0
08E0
0000
0000
FFFE
380E
1806
1802
1800
1808
1808
1818
1818
1FF8
1818
1808
1800
1801
1803
1802
1806
380E
FFFE
ENDCHAR
STARTCHAR uni1EBD
ENCODING 7869
SWIDTH 464 0
DWIDTH 13 0
BBX 11 19 1 0
BITMAP
1C40
3E40
4780
0000
0000
1F00
3180
60C0
40E0
C0E0
FFE0
C000
C000
E000
E000
7020
7840
3FC0
1F00
ENDCHAR
STARTCHAR uni1EBE
ENCODING 7870
SWIDTH 626 0
DWIDTH 18 0
BBX 16 26 1 0
BITMAP
0007
0006
018C
03D8
0660
0C30
0000
FFFE
380E
1806
1802
1800
1808
1808
1818
1818
1FF8
1818
1808
1800
1801
1803
1802
1806
380E
FFFE
ENDCHAR
STARTCHAR uni1EBF
ENCODING 7871
SWIDTH 464 0
DWIDTH 13 0
BBX 13 22 1 0
BITMAP
0038
0030
0060
0E40
0F80
1980
20C0
0000
1F00
3180
60C0
40E0
C0E0
FFE0
C000
C000
E000
E000
7020
7840
3FC0
1F00
ENDCHAR
STARTCHAR uni1EC0
ENCODING 7872
SWIDTH 626 0
DWIDTH 18 0
BBX 16 25 1 0
BITMAP
0070
0198
03CC
0660
0C30
0000
FFFE
380E
1806
1802
1800
1808
1808
1818
1818
1FF8
1818
1808
1800
1801
1803
1802
1806
380E
FFFE
ENDCHAR
STARTCHAR uni1EC1
ENCODING 7873
SWIDTH 464 0
DWIDTH 13 0
BBX 11 22 1 0
BITMAP
0180
01C0
00C0
0E40
0F20
1980
30C0
0000
1F00
3180
60C0
40E0
C0E0
FFE0
C000
C000
E000
E000
7020
7840
3FC0
1F00
ENDCHAR
STARTCHAR uni1EC2
ENCODING 7874
SWIDTH 626 0
DWIDTH 18 0
BBX 16 28 1 0
BITMAP
0038
006C
0024
0004
000C
03D0
0660
0C30
0000
FFFE
380E
1806
1802
1800
1808
1808
1818
1818
1FF8
1818
1808
1800
1801
1803
1802
1806
380E
FFFE
ENDCHAR
STARTCHAR uni1EC3
ENCODING 7875
SWIDTH 464 0
DWIDTH 13 0
BBX 12 24 1 0
BITMAP
00E0
01B0
0130
0030
0020
0E40
0B00
1180
2040
0000
1F00
3180
60C0
40E0
C0E0
FFE0
C000
C000
E000
E000
7020
7840
3FC0
1F00
ENDCHAR
STARTCHAR uni1EC4
ENCODING 7876
SWIDTH 626 0
DWIDTH 18 0
BBX 16 27 1 0
BITMAP
0718
0FF0
08E0
0000
03C0
0660
0C30
0000
FFFE
380E
1806
1802
1800
1808
1808
1818
1818
1FF8
1818
1808
1800
1801
1803
1802
1806
380E
FFFE
ENDCHAR
STARTCHAR uni1EC5
ENCODING 7877
SWIDTH 464 0
DWIDTH 13 0
BBX 11 23 1 0
BITMAP
1C40
3E40
2380
0000
0E00
0F00
1980
30C0
0000
1F00
3180
60C0
40E0
C0E0
FFE0
C000
C000
E000
E000
7020
7840
3FC0
1F00
ENDCHAR
STARTCHAR uni1EC6
ENCODING 7878
SWIDTH 626 0
DWIDTH 18 0
BBX 16 29 1 -5
BITMAP
0180
03C0
0660
0C30
0000
FFFE
380E
1806
1802
1800
1808
1808
1818
1818
1FF8
1818
1808
1800
1801
1803
1802
1806
380E
FFFE
0000
0000
0180
03C0
0180
ENDCHAR
STARTCHAR uni1EC7
ENCODING 7879
SWIDTH 464 0
DWIDTH 13 0
BBX 11 25 1 -5
BITMAP
0600
0E00
0B00
1180
20C0
0000
1F00
3180
60C0
40E0
C0E0
FFE0
C000
C000
E000
E000
7020
7840
3FC0
1F00
0000
0000
0600
0E00
0600
ENDCHAR
STARTCHAR uni1EC8
ENCODING 7880
SWIDTH 357 0
DWIDTH 10 0
BBX 8 27 1 0
BITMAP
1C
36
26
06
04
18
00
00
FF
3C
18
18
18
18
18
18
18
18
18
18
18
18
18
18
18
3C
FF
ENDCHAR
STARTCHAR uni1EC9
ENCODING 7881
SWIDTH 285 0
DWIDTH 8 0
BBX 6 21 1 0
BITMAP
70
D8
48
08
18
20
00
70
F0
30
30
30
30
30
30
30
30
30
30
38
FC
ENDCHAR
STARTCHAR uni1ECA
ENCODING 7882
SWIDTH 357 0
DWIDTH 10 0
BBX 8 24 1 -5
BITMAP
FF
3C
18
18
18
18
18
18
18
18
18
18
18
18
18
18
18
3C
FF
00
00
18
3C
18
ENDCHAR
STARTCHAR uni1ECB
ENCODING 7883
SWIDTH 285 0
DWIDTH 8 0
BBX 6 24 1 -5
BITMAP
30
78
30
00
00
70
F0
30
30
30
30
30
30
30
30
30
30
38
FC
00
00
30
78
30
ENDCHAR
STARTCHAR uni1ECC
ENCODING 7884
SWIDTH 738 0
DWIDTH 21 0
BBX 18 24 1 -5
BITMAP
03F800
0E1E00
1C0700
380380
700380
7001C0
7001C0
6001C0
E001C0
E001C0
E001C0
6001C0
7001C0
7001C0
700380
380380
1C0700
0E0E00
03F800
000000
000000
00E000
00E000
00E000
ENDCHAR
STARTCHAR uni1ECD
ENCODING 7885
SWIDTH 514 0
DWIDTH 14 0
BBX 12 19 1 -5
BITMAP
0F80
38C0
7060
6070
E030
E030
E030
E030
E030
E030
6070
7060
38C0
1F80
0000
0000
0700
0700
0700
ENDCHAR
STARTCHAR uni1ECE
ENCODING 7886
SWIDTH 738 0
DWIDTH 21 0
BBX 18 27 1 0
BITMAP
00E000
01B000
013000
003000
003000
004000
000000
000000
03F800
0E1E00
1C0700
380380
700380
7001C0
7001C0
6001C0
E001C0
E001C0
E001C0
6001C0
7001C0
7001C0
700380
380380
1C0700
0E0E00
03F800
ENDCHAR
STARTCHAR uni1ECF
ENCODING 7887
SWIDTH 514 0
DWIDTH 14 0
BBX 12 21 1 0
BITMAP
0700
0D80
0980
0180
0180
0200
0000
0F80
38C0
7060
6070
E030
E030
E030
E030
E030
E030
6070
7060
38C0
1F80
ENDCHAR
STARTCHAR uni1ED0
ENCODING 7888
SWIDTH 738 0
DWIDTH 21 0
BBX 18 26 1 0
BITMAP
000180
000380
00E600
01FC00
033000
060800
000000
03F800
0E1E00
1C0700
380380
700380
7001C0
7001C0
6001C0
E001C0
E001C0
E001C0
6001C0
7001C0
7001C0
700380
380380
1C0700
0E0E00
03F800
ENDCHAR
STARTCHAR uni1ED1
ENCODING 7889
SWIDTH 514 0
DWIDTH 14 0
BBX 13 22 1 0
BITMAP
0018
0038
0030
0760
0F00
1980
3040
0000
0F80
38C0
7060
6070
E030
E030
E030
E030
E030
E030
6070
7060
38C0
1F80
ENDCHAR
STARTCHAR uni1ED2
ENCODING 7890
SWIDTH 738 0
DWIDTH 21 0
BBX 18 25 1 0
BITMAP
001C00
00CC00
01E300
013000
060800
000000
03F800
0E1E00
1C0700
380380
700380
7001C0
7001C0
6001C0
E001C0
E001C0
E001C0
6001C0
7001C0
7001C0
700380
380380
1C0700
0E0E00
03F800
ENDCHAR
STARTCHAR uni1ED3
ENCODING 7891
SWIDTH 514 0
DWIDTH 14 0
BBX 12 22 1 0
BITMAP
01C0
00C0
0040
0760
0F00
1980
3040
0000
0F80
38C0
7060
6070
E030
E030
E030
E030
E030
E030
6070
7060
38C0
1F80
ENDCHAR
STARTCHAR uni1ED4
ENCODING 7892
SWIDTH 738 0
DWIDTH 21 0
BBX 18 28 1 0
BITMAP
001E00
001300
001300
000300
000200
00EC00
01B000
061800
000000
03F800
0E1E00
1C0700
380380
700380
7001C0
7001C0
6001C0
E001C0
E001C0
E001C0
6001C0
7001C0
7001C0
700380
380380
1C0700
0E0E00
03F800
ENDCHAR
STARTCHAR uni1ED5
ENCODING 7893
SWIDTH 514 0
DWIDTH 14 0
BBX 13 24 1 0
BITMAP
00F0
0090
0098
0018
0030
0740
0D80
1880
3040
0000
0F80
38C0
7060
6070
E030
E030
E030
E030
E030
E030
6070
7060
38C0
1F80
ENDCHAR
STARTCHAR uni1ED6
ENCODING 7894
SWIDTH 738 0
DWIDTH 21 0
BBX 18 27 1 0
BITMAP
03C400
07F800
047000
000000
01E000
01B000
060800
000000
03F800
0E1E00
1C0700
380380
700380
7001C0
7001C0
6001C0
E001C0
E001C0
E001C0
6001C0
7001C0
7001C0
700380
380380
1C0700
0E0E00
03F800
ENDCHAR
STARTCHAR uni1ED7
ENCODING 7895
SWIDTH 514 0
DWIDTH 14 0
BBX 12 23 1 0
BITMAP
1C20
1E40
23C0
0000
0700
0F00
1980
3040
0000
0F80
38C0
7060
6070
E030
E030
E030
E030
E030
E030
6070
7060
38C0
1F80
ENDCHAR
STARTCHAR uni1ED8
ENCODING 7896
SWIDTH 738 0
DWIDTH 21 0
BBX 18 29 1 -5
BITMAP
00E000
01F000
033000
060800
000000
03F800
0E1E00
1C0700
380380
700380
7001C0
7001C0
6001C0
E001C0
E001C0
E001C0
6001C0
7001C0
7001C0
700380
380380
1C0700
0E0E00
03F800
000000
000000
00E000
00E000
00E000
ENDCHAR
STARTCHAR uni1ED9
ENCODING 7897
SWIDTH 514 0
DWIDTH 14 0
BBX 12 25 1 -5
BITMAP
0600
0700
0D80
1880
3040
0000
0F80
38C0
7060
6070
E030
E030
E030
E030
E030
E030
6070
7060
38C0
1F80
0000
0000
0700
0700
0700
ENDCHAR
STARTCHAR uni1EDA
ENCODING 7898
SWIDTH 737 0
DWIDTH 21 0
BBX 19 24 1 0
BITMAP
003040
0070E0
00C0E0
018060
000040
03FFC0
0E1E00
1C0700
380380
700380
7001C0
7001C0
6001C0
E001C0
E001C0
E001C0
6001C0
7001C0
700180
700380
380300
1C0700
0E0C00
03F000
ENDCHAR
STARTCHAR uni1EDB
ENCODING 7899
SWIDTH 516 0
DWIDTH 14 0
BBX 13 20 1 0
BITMAP
0180
0390
0318
0618
0418
0018
0FF0
38C0
7060
6070
E030
E030
E030
E030
E030
E030
6070
7060
38C0
1F80
ENDCHAR
STARTCHAR uni1EDC
ENCODING 7900
SWIDTH 737 0
DWIDTH 21 0
BBX 19 24 1 0
BITMAP
038040
01C0E0
00E0E0
003060
000040
03FFC0
0E1E00
1C0700
380380
700380
7001C0
7001C0
6001C0
E001C0
E001C0
E001C0
6001C0
7001C0
700180
700380
380300
1C0700
0E0C00
03F000
ENDCHAR
STARTCHAR uni1EDD
ENCODING 7901
SWIDTH 516 0
DWIDTH 14 0
BBX 13 20 1 0
BITMAP
1C00
0C10
0618
0618
0318
0018
0FF0
38C0
7060
6070
E030
E030
E030
E030
E030
E030
6070
7060
38C0
1F80
ENDCHAR
STARTCHAR uni1EDE
ENCODING 7902
SWIDTH 737 0
DWIDTH 21 0
BBX 19 27 1 0
BITMAP
00E000
01B000
013000
003040
0030E0
0040E0
000060
000040
03FFC0
0E1E00
1C0700
380380
700380
7001C0
7001C0
6001C0
E001C0
E001C0
E001C0
6001C0
7001C0
700180
700380
380300
1C0700
0E0C00
03F000
ENDCHAR
STARTCHAR uni1EDF
ENCODING 7903
SWIDTH 516 0
DWIDTH 14 0
BBX 13 21 1 0
BITMAP
0700
0D80
0990
0198
0198
0218
0018
0FF0
38C0
7060
6070
E030
E030
E030
E030
E030
E030
6070
7060
38C0
1F80
ENDCHAR
STARTCHAR uni1EE0
ENCODING 7904
SWIDTH 737 0
DWIDTH 21 0
BBX 19 24 1 0
BITMAP
03C440
07FCE0
0478E0
000060
000040
03FFC0
0E1E00
1C0700
380380
700380
7001C0
7001C0
6001C0
E001C0
E001C0
E001C0
6001C0
7001C0
700180
700380
380300
1C0700
0E0C00
03F000
ENDCHAR
STARTCHAR uni1EE1
ENCODING 7905
SWIDTH 516 0
DWIDTH 14 0
BBX 13 19 1 0
BITMAP
1C20
3E58
2398
0008
0018
0FF0
38C0
7060
6070
E030
E030
E030
E030
E030
E030
6070
7060
38C0
1F80
ENDCHAR
STARTCHAR uni1EE2
ENCODING 7906
SWIDTH 737 0
DWIDTH 21 0
BBX 19 29 1 -5
BITMAP
000040
0000E0
0000E0
000060
000040
03FFC0
0E1E00
1C0700
380380
700380
7001C0
7001C0
6001C0
E001C0
E001C0
E001C0
6001C0
7001C0
700180
700380
380300
1C0700
0E0C00
03F000
000000
000000
00E000
00E000
00E000
ENDCHAR
STARTCHAR uni1EE3
ENCODING 7907
SWIDTH 516 0
DWIDTH 14 0
BBX 13 24 1 -5
BITMAP
0010
0018
0018
0018
0018
0FF0
38C0
7060
6070
E030
E030
E030
E030
E030
E030
6070
7060
38C0
1F80
0000
0000
0700
0700
0700
ENDCHAR
STARTCHAR uni1EE4
ENCODING 7908
SWIDTH 752 0
DWIDTH 21 0
BBX 20 24 1 -5
BITMAP
FF07F0
3C01C0
380180
380180
380180
380180
380180
380180
380180
380180
380180
380180
380180
380180
180180
1C0300
1E0700
0FFE00
03F800
000000
000000
00E000
00E000
00E000
ENDCHAR
STARTCHAR uni1EE5
ENCODING 7909
SWIDTH 570 0
DWIDTH 16 0
BBX 14 19 1 -5
BITMAP
F0F0
7070
3030
3030
3030
3030
3030
3030
3030
3030
3030
3070
38F0
1F3C
0000
0000
0700
0700
0300
ENDCHAR
STARTCHAR uni1EE6
ENCODING 7910
SWIDTH 752 0
DWIDTH 21 0
BBX 20 27 1 0
BITMAP
007000
00D800
009800
001800
001000
006000
000000
000000
FF07F0
3C01C0
380180
380180
380180
380180
380180
380180
380180
380180
380180
380180
380180
380180
180180
1C0300
1E0700
0FFE00
03F800
ENDCHAR
STARTCHAR uni1EE7
ENCODING 7911
SWIDTH 570 0
DWIDTH 16 0
BBX 14 21 1 0
BITMAP
0780
0480
04C0
00C0
0180
0200
0000
F0F0
7070
3030
3030
3030
3030
3030
3030
3030
3030
3030
3070
38F0
1F3C
ENDCHAR
STARTCHAR uni1EE8
ENCODING 7912
SWIDTH 762 0
DWIDTH 21 0
BBX 22 25 1 0
BITMAP
000008
00381C
00381C
00600C
01C00C
000008
FF07F0
3C0180
380180
380180
380180
380180
380180
380180
380180
380180
380180
380180
380180
380180
180180
1C0300
1E0700
0FFE00
03F800
ENDCHAR
STARTCHAR uni1EE9
ENCODING 7913
SWIDTH 574 0
DWIDTH 16 0
BBX 15 20 1 0
BITMAP
01C0
0180
0306
0206
0606
0006
F0FC
F0F0
7030
3030
3030
3030
3030
3030
3030
3030
3030
3070
38F0
1F3C
ENDCHAR
STARTCHAR uni1EEA
ENCODING 7914
SWIDTH 762 0
DWIDTH 21 0
BBX 22 25 1 0
BITMAP
000008
01C01C
00E01C
00700C
00180C
000008
FF07F0
3C0180
380180
380180
380180
380180
380180
380180
380180
380180
380180
380180
380180
380180
180180
1C0300
1E0700
0FFE00
03F800
ENDCHAR
STARTCHAR uni1EEB
ENCODING 7915
SWIDTH 574 0
DWIDTH 16 0
BBX 15 20 1 0
BITMAP
1C00
0E00
0606
0206
0106
0006
F0FC
F0F0
7030
3030
3030
3030
3030
3030
3030
3030
3030
3070
38F0
1F3C
ENDCHAR
STARTCHAR uni1EEC
ENCODING 7916
SWIDTH 762 0
DWIDTH 21 0
BBX 22 27 1 0
BITMAP
007000
00D800
009808
00181C
00101C
00600C
00000C
000008
FF07F0
3C0180
380180
380180
380180
380180
380180
380180
380180
380180
380180
380180
380180
380180
180180
1C0300
1E0700
0FFE00
03F800
ENDCHAR
STARTCHAR uni1EED
ENCODING 7917
SWIDTH 574 0
DWIDTH 16 0
BBX 15 21 1 0
BITMAP
0780
0C80
0480
0086
0186
0206
0006
F0FC
F0F0
7030
3030
3030
3030
3030
3030
3030
3030
3030
3070
38F0
1F3C
ENDCHAR
STARTCHAR uni1EEE
ENCODING 7918
SWIDTH 762 0
DWIDTH 21 0
BBX 22 25 1 0
BITMAP
000008
01E21C
03FC1C
023C0C
00000C
000008
FF07F0
3C0180
380180
380180
380180
380180
380180
380180
380180
380180
380180
380180
380180
380180
180180
1C0300
1E0700
0FFE00
03F800
ENDCHAR
STARTCHAR uni1EEF
ENCODING 7919
SWIDTH 574 0
DWIDTH 16 0
BBX 15 19 1 0
BITMAP
0C20
1F26
23C6
0006
0006
F0FC
F0F0
7030
3030
3030
3030
3030
3030
3030
3030
3030
3070
38F0
1F3C
ENDCHAR
STARTCHAR uni1EF0
ENCODING 7920
SWIDTH 762 0
DWIDTH 21 0
BBX 22 30 1 -5
BITMAP
000008
00001C
00001C
00000C
00000C
000008
FF07F0
3C0180
380180
380180
380180
380180
380180
380180
380180
380180
380180
380180
380180
380180
180180
1C0300
1E0700
0FFE00
03F800
000000
000000
00E000
00E000
00E000
ENDCHAR
STARTCHAR uni1EF1
ENCODING 7921
SWIDTH 574 0
DWIDTH 16 0
BBX 15 23 1 -5
BITMAP
0006
0006
0006
0006
F0FC
F0F0
7030
3030
3030
3030
3030
3030
3030
3030
3030
3070
38F0
1F3C
0000
0000
0700
0700
0700
ENDCHAR
STARTCHAR Ygrave
ENCODING 7922
SWIDTH 647 0
DWIDTH 18 0
BBX 18 24 0 0
BITMAP
038000
01C000
006000
003000
000000
FE0FC0
7C0380
3C0200
1C0600
0E0400
0F0C00
070800
039000
03B000
01E000
00E000
00C000
00C000
00C000
00C000
00C000
00E000
01E000
07F800
ENDCHAR
STARTCHAR ygrave
ENCODING 7923
SWIDTH 483 0
DWIDTH 14 0
BBX 14 26 0 -6
BITMAP
0E00
0600
0300
0300
0180
0000
FC7C
7018
3030
3830
3820
1C60
1C40
0C40
0EC0
0680
0780
0300
0300
0300
0200
0600
0400
EC00
F800
7000
ENDCHAR
STARTCHAR uni1EF4
ENCODING 7924
SWIDTH 647 0
DWIDTH 18 0
BBX 18 24 0 -5
BITMAP
FE0FC0
7C0380
3C0200
1C0600
0E0400
0F0C00
070800
039000
03B000
01E000
00E000
00C000
00C000
00C000
00C000
00C000
00E000
01E000
07F800
000000
000000
00C000
00E000
00C000
ENDCHAR
STARTCHAR uni1EF5
ENCODING 7925
SWIDTH 483 0
DWIDTH 14 0
BBX 14 20 0 -6
BITMAP
FC7C
7018
3030
3830
3820
1C60
1C40
0C40
0EC0
0680
0780
0300
0300
0300
0200
0600
04E0
ECE0
F8E0
7000
ENDCHAR
STARTCHAR uni1EF6
ENCODING 7926
SWIDTH 647 0
DWIDTH 18 0
BBX 18 27 0 0
BITMAP
00E000
01B000
009000
001000
003000
004000
000000
000000
FE0FC0
7C0380
3C0200
1C0600
0E0400
0F0C00
070800
039000
03B000
01E000
00E000
00C000
00C000
00C000
00C000
00C000
00E000
01E000
07F800
ENDCHAR
STARTCHAR uni1EF7
ENCODING 7927
SWIDTH 483 0
DWIDTH 14 0
BBX 14 27 0 -6
BITMAP
0380
06C0
04C0
00C0
0080
0100
0000
FC7C
7018
3030
3830
3820
1C60
1C40
0C40
0EC0
0680
0780
0300
0300
0300
0200
0600
0400
EC00
F800
7000
ENDCHAR
STARTCHAR uni1EF8
ENCODING 7928
SWIDTH 647 0
DWIDTH 18 0
BBX 18 24 0 0
BITMAP
03C400
03FC00
047800
000000
000000
FE0FC0
7C0380
3C0200
1C0600
0E0400
0F0C00
070800
039000
03B000
01E000
00E000
00C000
00C000
00C000
00C000
00C000
00E000
01E000
07F800
ENDCHAR
STARTCHAR uni1EF9
ENCODING 7929
SWIDTH 483 0
DWIDTH 14 0
BBX 14 25 0 -6
BITMAP
0E10
1FA0
11E0
0000
0000
FC7C
7018
3030
3830
3820
1C60
1C40
0C40
0EC0
0680
0780
0300
0300
0300
0200
0600
0400
EC00
F800
7000
ENDCHAR
STARTCHAR uni2000
ENCODING 8192
SWIDTH 500 0
DWIDTH 14 0
BBX 1 1 0 0
BITMAP
00
ENDCHAR
STARTCHAR uni2001
ENCODING 8193
SWIDTH 1000 0
DWIDTH 28 0
BBX 1 1 0 0
BITMAP
00
ENDCHAR
STARTCHAR uni2002
ENCODING 8194
SWIDTH 500 0
DWIDTH 14 0
BBX 1 1 0 0
BITMAP
00
ENDCHAR
STARTCHAR uni2003
ENCODING 8195
SWIDTH 1000 0
DWIDTH 28 0
BBX 1 1 0 0
BITMAP
00
ENDCHAR
STARTCHAR uni2004
ENCODING 8196
SWIDTH 334 0
DWIDTH 9 0
BBX 1 1 0 0
BITMAP
00
ENDCHAR
STARTCHAR uni2005
ENCODING 8197
SWIDTH 250 0
DWIDTH 7 0
BBX 1 1 0 0
BITMAP
00
ENDCHAR
STARTCHAR uni2006
ENCODING 8198
SWIDTH 167 0
DWIDTH 5 0
BBX 1 1 0 0
BITMAP
00
ENDCHAR
STARTCHAR uni2007
ENCODING 8199
SWIDTH 560 0
DWIDTH 16 0
BBX 1 1 0 0
BITMAP
00
ENDCHAR
ENDFONT
